<?xml version="1.0" encoding="UTF-8" standalone="no"?>
<svg
   xmlns:dc="http://purl.org/dc/elements/1.1/"
   xmlns:cc="http://creativecommons.org/ns#"
   xmlns:rdf="http://www.w3.org/1999/02/22-rdf-syntax-ns#"
   xmlns:svg="http://www.w3.org/2000/svg"
   xmlns="http://www.w3.org/2000/svg"
   xmlns:sodipodi="http://sodipodi.sourceforge.net/DTD/sodipodi-0.dtd"
   xmlns:inkscape="http://www.inkscape.org/namespaces/inkscape"
   width="512"
   height="512"
   viewBox="0 0 409.60004 409.60004"
   id="svg2"
   version="1.1"
   inkscape:version="0.91 r13725"
   sodipodi:docname="addskill.svg">
  <metadata
     id="metadata9">
    <rdf:RDF>
      <cc:Work
         rdf:about="">
        <dc:format>image/svg+xml</dc:format>
        <dc:type
           rdf:resource="http://purl.org/dc/dcmitype/StillImage" />
        <dc:title></dc:title>
      </cc:Work>
    </rdf:RDF>
  </metadata>
  <defs
     id="defs7" />
  <sodipodi:namedview
     pagecolor="#ffffff"
     bordercolor="#666666"
     borderopacity="1"
     objecttolerance="10"
     gridtolerance="10"
     guidetolerance="10"
     inkscape:pageopacity="0"
     inkscape:pageshadow="2"
     inkscape:window-width="758"
     inkscape:window-height="534"
     id="namedview5"
     showgrid="false"
     inkscape:zoom="0.18437502"
     inkscape:cx="345.74716"
     inkscape:cy="199.37579"
     inkscape:window-x="245"
     inkscape:window-y="28"
     inkscape:window-maximized="0"
     inkscape:current-layer="svg2"
     units="px" />
  <circle
     style="opacity:1;fill:#d4d4d4;fill-opacity:1;stroke:#868686;stroke-width:9.50542259;stroke-linecap:round;stroke-linejoin:round;stroke-miterlimit:4;stroke-dasharray:57.03253133, 57.03253132999999764;stroke-dashoffset:0;stroke-opacity:1"
     id="path4133"
     cx="204.80002"
     cy="204.80002"
     r="200.0473" />
  <path
     id="Selection"
     d="m 188.39594,164.33647 c 0.02,-1.62633 0.19463,-3.91833 0.83429,-5.41512 2.52841,-5.91617 12.51214,-4.43897 17.87162,-4.43174 2.84327,0.004 6.10188,0.036 8.31842,2.08017 2.47105,2.27871 2.50957,5.6309 2.51401,8.75226 l 0,28.55499 29.53834,0 c 1.62632,0.02 3.92005,0.19577 5.4151,0.8365 5.91568,2.52736 4.44064,12.50992 4.43176,17.86941 -0.004,2.84325 -0.0355,6.10031 -2.08018,8.31844 -2.27816,2.46949 -5.62866,2.50952 -8.75004,2.51398 l -28.55498,0 0,24.61491 c 0,3.1614 0.37822,8.66329 -1.34598,11.31744 -2.0735,3.18809 -5.54414,3.43504 -8.99255,3.45285 -4.02462,0.0178 -13.18178,0.68521 -16.22527,-1.68862 -2.61412,-2.03787 -2.93671,-5.07028 -2.97454,-8.15826 l 0,-29.54054 -29.54056,0 c -1.6263,-0.0201 -3.91781,-0.1958 -5.41509,-0.83429 -5.91567,-2.52958 -4.43843,-12.5099 -4.43177,-17.87162 0.004,-2.84106 0.0377,-6.10034 2.08018,-8.31621 2.2804,-2.47172 5.6309,-2.50955 8.75225,-2.51622 l 28.55499,0 z"
     style="fill:#808080;fill-opacity:1;stroke:none;stroke-width:1"
     inkscape:connector-curvature="0"
     sodipodi:nodetypes="csssccccccccscccccccccccc" />
</svg>
