<?xml version="1.0" encoding="UTF-8" standalone="no"?>
<svg
   xmlns:dc="http://purl.org/dc/elements/1.1/"
   xmlns:cc="http://creativecommons.org/ns#"
   xmlns:rdf="http://www.w3.org/1999/02/22-rdf-syntax-ns#"
   xmlns:svg="http://www.w3.org/2000/svg"
   xmlns="http://www.w3.org/2000/svg"
   viewBox="0 0 69.900002 75"
   height="75"
   width="69.900002"
   version="1.1"
   id="svg4250">
  <metadata
     id="metadata4256">
    <rdf:RDF>
      <cc:Work
         rdf:about="">
        <dc:format>image/svg+xml</dc:format>
        <dc:type
           rdf:resource="http://purl.org/dc/dcmitype/StillImage" />
        <dc:title></dc:title>
      </cc:Work>
    </rdf:RDF>
  </metadata>
  <defs
     id="defs4254" />
  <g
     id="g6541">
    <path
       id="path6469"
       d="m 34.957031,0 c 0,0 2.875925,-0.03490293 5.8512,1.231325 3.559282,1.5147711 5.885933,4.2027594 7.080394,6.5206281 0.240754,0.4671874 0.453212,0.950711 0.642577,1.4472657 0.06384,0.1664306 0.123769,0.3344467 0.181639,0.5039062 0.07822,0.2307283 0.151945,0.463094 0.21875,0.699219 0.07627,0.267071 0.145808,0.536981 0.20703,0.810547 0.03192,0.144257 0.06415,0.287627 0.0918,0.433593 0.07351,0.383218 0.130863,0.771684 0.173827,1.166016 0.01,0.09272 0.01715,0.186015 0.02539,0.279297 0.03923,0.437234 0.06642,0.879071 0.06641,1.328125 -0.0014,0.869222 0.03798,1.697462 0,2.791016 l 1.294918,19.017578 0.503904,7.392578 c 1.113075,-0.01417 5.772938,0.103001 7.177709,3.333984 1.035847,2.382469 1.798992,10.960859 2.230455,16.84375 -3.28764,3.591751 -7.81741,7.305618 -14.931507,9.621547 -5.648384,1.83878 -10.812542,1.733922 -10.812542,1.733922 z"
       style="opacity:1;fill:#d2d6d9;fill-opacity:1;stroke:none" />
    <path
       style="opacity:1;fill:#b7bbbc;fill-opacity:1;stroke:none"
       d="m 47.808594,28.082031 a 15.505413,37.432961 0 0 1 -0.06055,0.242188 15.505413,37.432961 0 0 1 -0.939453,2.978515 15.505413,37.432961 0 0 1 -1.056641,2.738282 15.505413,37.432961 0 0 1 -1.164062,2.46875 15.505413,37.432961 0 0 1 -1.259766,2.177734 15.505413,37.432961 0 0 1 -1.345703,1.861328 15.505413,37.432961 0 0 1 -1.414063,1.527344 15.505413,37.432961 0 0 1 -1.470703,1.179687 15.505413,37.432961 0 0 1 -1.511718,0.820313 15.505413,37.432961 0 0 1 -1.539063,0.451172 15.505413,37.432961 0 0 1 -1.087891,0.09375 l 0,9.054687 a 15.505413,57.930843 0 0 0 12.84961,-25.59375 z"
       id="path6471" />
    <path
       style="opacity:1;fill:#efae6e;fill-opacity:1;stroke:none"
       d="m 35.000001,13.212891 c 2.047713,0 4.161825,-0.120641 6.144683,0.390625 4.616197,1.190253 5.841442,2.758849 6.617352,4.123046 l -0.662125,6.826172 c 0,0 -0.617157,-2.111203 -2.361387,-2.666015 -0.872115,-0.277409 -2.741963,-0.281567 -4.675898,-0.216797 -1.933934,0.06477 -3.932352,0.199219 -5.062625,0.199219 -0.01008,0 -0.03267,-0.0019 -0.04296,-0.002 l 0,-8.654297 c 0.01717,2.1e-5 0.02559,0 0.04296,0 z"
       id="path6509" />
    <path
       style="opacity:1;fill:#00ada7;fill-opacity:1;stroke:none"
       d="M 34.957031 5.2597656 L 34.955078 75.154297 C 34.955078 75.154297 34.850401 75.152196 34.839844 75.152344 A 34.950001 34.950001 0 0 0 34.949219 75.158203 A 34.950001 34.950001 0 0 0 35.123047 75.152344 C 35.101785 75.152102 34.958984 75.154297 34.958984 75.154297 L 34.957031 5.2597656 z M 47.900391 7.7773438 C 48.135913 8.2368473 48.345229 8.711432 48.53125 9.1992188 C 48.59509 9.3656492 48.655021 9.5336655 48.712891 9.703125 C 48.791111 9.9338533 48.864836 10.166219 48.931641 10.402344 C 49.007911 10.669415 49.07745 10.939325 49.138672 11.212891 C 49.170592 11.357148 49.202819 11.500518 49.230469 11.646484 C 49.303979 12.029702 49.361333 12.418168 49.404297 12.8125 C 49.414297 12.90522 49.421447 12.998515 49.429688 13.091797 C 49.468918 13.529031 49.496104 13.970868 49.496094 14.419922 C 49.494694 15.289144 49.534074 16.117384 49.496094 17.210938 L 50.791016 36.228516 L 51.294922 43.621094 C 52.407997 43.606924 57.067885 43.724095 58.472656 46.955078 C 59.507338 49.334867 60.269449 57.895024 60.701172 63.777344 A 34.950001 34.950001 0 0 0 69.900391 40.208984 A 34.950001 34.950001 0 0 0 47.900391 7.7773438 z M 59.921875 64.615234 C 59.575626 64.973253 59.213968 65.328885 58.839844 65.685547 A 34.950001 34.950001 0 0 0 59.921875 64.615234 z M 48.070312 72.580078 C 47.565977 72.78122 47.033809 72.968396 46.5 73.154297 A 34.950001 34.950001 0 0 0 48.070312 72.580078 z M 43.685547 74.021484 C 43.475034 74.07494 43.279259 74.109619 43.072266 74.158203 A 34.950001 34.950001 0 0 0 43.685547 74.021484 z M 43.072266 74.158203 A 34.950001 34.950001 0 0 1 39.919922 74.769531 C 40.884837 74.628675 41.957734 74.419799 43.072266 74.158203 z M 38.15625 74.982422 C 37.397061 75.05759 36.823158 75.088335 36.310547 75.111328 A 34.950001 34.950001 0 0 0 38.15625 74.982422 z "
       id="path6523" />
  </g>
  <path
     id="rect6493"
     d="M 34.914062 13.212891 C 32.866399 13.212891 30.75234 13.09225 28.769531 13.603516 C 24.153449 14.793769 22.928235 16.362365 22.152344 17.726562 L 22.814453 24.552734 C 22.814453 24.552734 23.431595 22.441531 25.175781 21.886719 C 26.047874 21.60931 27.917676 21.605152 29.851562 21.669922 C 31.785448 21.734696 33.783817 21.869141 34.914062 21.869141 C 34.924173 21.869141 34.94674 21.867227 34.957031 21.867188 L 34.957031 13.212891 C 34.939856 13.212912 34.931442 13.212891 34.914062 13.212891 z "
     style="opacity:1;fill:#c6915b;fill-opacity:1;stroke:none" />
  <g
     id="g6535">
    <path
       style="opacity:1;fill:#00908b;fill-opacity:1;stroke:none"
       d="M 34.957031 5.2597656 L 34.955078 75.154297 C 34.955078 75.154297 34.850401 75.152196 34.839844 75.152344 A 34.950001 34.950001 0 0 0 34.949219 75.158203 A 34.950001 34.950001 0 0 0 35.123047 75.152344 C 35.101785 75.152102 34.958984 75.154297 34.958984 75.154297 L 34.957031 5.2597656 z M 22.025391 7.7519531 A 34.950001 34.950001 0 0 0 0 40.208984 A 34.950001 34.950001 0 0 0 9.2109375 63.798828 C 9.6424017 57.915937 10.405556 49.337547 11.441406 46.955078 C 12.846182 43.724095 17.506062 43.606924 18.619141 43.621094 L 19.123047 36.228516 L 20.417969 17.210938 C 20.379989 16.117384 20.419369 15.289144 20.417969 14.419922 C 20.417959 13.970868 20.445145 13.529031 20.484375 13.091797 C 20.492615 12.998515 20.499766 12.90522 20.509766 12.8125 C 20.55273 12.418168 20.610084 12.029702 20.683594 11.646484 C 20.711244 11.500518 20.743471 11.357148 20.775391 11.212891 C 20.836613 10.939325 20.906152 10.669415 20.982422 10.402344 C 21.049226 10.166219 21.122952 9.9338533 21.201172 9.703125 C 21.259042 9.5336655 21.318973 9.3656491 21.382812 9.1992188 C 21.57218 8.7026638 21.784636 8.2191405 22.025391 7.7519531 z M 9.2148438 63.802734 A 34.950001 34.950001 0 0 0 10.433594 65.076172 C 10.009173 64.651862 9.6025249 64.226167 9.2148438 63.802734 z M 12.183594 66.705078 A 34.950001 34.950001 0 0 0 12.744141 67.173828 C 12.557212 67.017341 12.364054 66.862841 12.183594 66.705078 z M 17.955078 70.734375 A 34.950001 34.950001 0 0 0 18.5 71.029297 C 18.316052 70.932237 18.13452 70.833357 17.955078 70.734375 z M 20.566406 72.027344 C 21.688872 72.526827 22.859978 73.002385 24.142578 73.419922 C 24.715132 73.606311 25.276257 73.759614 25.833984 73.908203 A 34.950001 34.950001 0 0 1 20.566406 72.027344 z M 43.685547 74.021484 C 43.475034 74.07494 43.279259 74.109619 43.072266 74.158203 A 34.950001 34.950001 0 0 0 43.685547 74.021484 z M 43.072266 74.158203 A 34.950001 34.950001 0 0 1 39.919922 74.769531 C 40.884837 74.628675 41.957734 74.419799 43.072266 74.158203 z M 26.640625 74.113281 C 27.723072 74.373855 28.7543 74.573183 29.703125 74.71875 A 34.950001 34.950001 0 0 1 26.640625 74.113281 z M 30.275391 74.804688 A 34.950001 34.950001 0 0 0 32.589844 75.041016 C 31.895674 74.990227 31.202089 74.932791 30.275391 74.804688 z M 38.15625 74.982422 C 37.397061 75.05759 36.823158 75.088335 36.310547 75.111328 A 34.950001 34.950001 0 0 0 38.15625 74.982422 z "
       id="circle6511" />
    <path
       style="opacity:1;fill:#aeb2b5;fill-opacity:1;stroke:none"
       d="m 34.957031,0 c 0,0 -2.875935,-0.03490293 -5.851221,1.231325 -3.559294,1.5147711 -5.885954,4.2027594 -7.080419,6.5206281 -0.240755,0.4671874 -0.453213,0.950711 -0.642579,1.4472657 -0.06384,0.1664306 -0.12377,0.3344467 -0.18164,0.5039062 -0.07822,0.2307283 -0.151946,0.463094 -0.21875,0.699219 -0.07627,0.267071 -0.145809,0.536981 -0.207031,0.810547 -0.03192,0.144257 -0.06415,0.287627 -0.0918,0.433593 -0.07351,0.383218 -0.130864,0.771684 -0.173828,1.166016 -0.01,0.09272 -0.01715,0.186015 -0.02539,0.279297 -0.03923,0.437234 -0.06642,0.879071 -0.06641,1.328125 0.0014,0.869222 -0.03798,1.697462 0,2.791016 l -1.294922,19.017578 -0.503906,7.392578 c -1.113079,-0.01417 -5.772959,0.103001 -7.177735,3.333984 -1.03585,2.382469 -1.7989983,10.960859 -2.2304625,16.84375 3.2876525,3.591751 7.8174375,7.305618 14.9315595,9.621547 5.648404,1.83878 10.812581,1.733922 10.812581,1.733922 z"
       id="path6357" />
    <path
       style="opacity:1;fill:#989c9d;fill-opacity:1;stroke:none"
       d="m 22.099609,28.080078 a 15.505413,57.930843 0 0 0 12.84961,25.597656 15.505413,57.930843 0 0 0 0.0059,-0.002 l 0,-9.054687 a 15.505413,37.432961 0 0 1 -0.0059,0 15.505413,37.432961 0 0 1 -1.546875,-0.1875 A 15.505413,37.432961 0 0 1 31.869141,43.875 15.505413,37.432961 0 0 1 30.367188,42.949219 15.505413,37.432961 0 0 1 28.912109,41.666016 15.505413,37.432961 0 0 1 27.515625,40.039062 15.505413,37.432961 0 0 1 26.195312,38.082031 15.505413,37.432961 0 0 1 24.960938,35.818359 15.505413,37.432961 0 0 1 23.826172,33.267578 15.505413,37.432961 0 0 1 22.804688,30.457031 15.505413,37.432961 0 0 1 22.099609,28.080078 Z"
       id="path6478" />
    <path
       id="path6507"
       d="M 34.914062 13.212891 C 32.866399 13.212891 30.75234 13.09225 28.769531 13.603516 C 24.153449 14.793769 22.928235 16.362365 22.152344 17.726562 L 22.814453 24.552734 C 22.814453 24.552734 23.431595 22.441531 25.175781 21.886719 C 26.047874 21.60931 27.917676 21.605152 29.851562 21.669922 C 31.785448 21.734696 33.783817 21.869141 34.914062 21.869141 C 34.924173 21.869141 34.94674 21.867227 34.957031 21.867188 L 34.957031 13.212891 C 34.939856 13.212912 34.931442 13.212891 34.914062 13.212891 z "
       style="opacity:1;fill:#c6915b;fill-opacity:1;stroke:none" />
  </g>
</svg>
