<?xml version="1.0" encoding="UTF-8" standalone="no"?>
<svg
   xmlns:dc="http://purl.org/dc/elements/1.1/"
   xmlns:cc="http://creativecommons.org/ns#"
   xmlns:rdf="http://www.w3.org/1999/02/22-rdf-syntax-ns#"
   xmlns:svg="http://www.w3.org/2000/svg"
   xmlns="http://www.w3.org/2000/svg"
   xmlns:sodipodi="http://sodipodi.sourceforge.net/DTD/sodipodi-0.dtd"
   xmlns:inkscape="http://www.inkscape.org/namespaces/inkscape"
   version="1.1"
   id="svg4306"
   viewBox="0 0 409.59948 409.59949"
   height="512"
   width="512"
   inkscape:version="0.91 r13725"
   sodipodi:docname="alphabet.svg">
  <sodipodi:namedview
     pagecolor="#ffffff"
     bordercolor="#666666"
     borderopacity="1"
     objecttolerance="10"
     gridtolerance="10"
     guidetolerance="10"
     inkscape:pageopacity="0"
     inkscape:pageshadow="2"
     inkscape:window-width="941"
     inkscape:window-height="650"
     id="namedview9"
     showgrid="false"
     inkscape:zoom="0.4609375"
     inkscape:cx="-96.542373"
     inkscape:cy="256"
     inkscape:window-x="328"
     inkscape:window-y="29"
     inkscape:window-maximized="0"
     inkscape:current-layer="svg4306" />
  <metadata
     id="metadata4313">
    <rdf:RDF>
      <cc:Work
         rdf:about="">
        <dc:format>image/svg+xml</dc:format>
        <dc:type
           rdf:resource="http://purl.org/dc/dcmitype/StillImage" />
        <dc:title />
      </cc:Work>
    </rdf:RDF>
  </metadata>
  <defs
     id="defs4311" />
  <path
     inkscape:connector-curvature="0"
     style="fill:#ffffff;fill-opacity:1;stroke:none;stroke-width:1"
     d="m 262.04106,72.520778 c 0,0 85.77176,236.399102 85.77176,236.399102 10.22683,30.11518 36.02515,83.51056 -10.38101,97.74585 -49.43824,15.16039 -51.95641,-58.58582 -73.23233,-71.94751 -9.40458,-5.85859 -23.84547,-5.1905 -34.58622,-5.2419 -20.04253,-0.15419 -75.23659,-4.36823 -89.16358,8.22259 -15.46872,13.92696 -15.05759,44.29914 -35.30568,61.10402 -16.702113,13.82422 -38.594732,12.12831 -53.189797,-3.95708 -21.84123,-24.10248 2.055631,-69.48082 11.614388,-96.20419 0,0 77.086659,-210.703555 77.086659,-210.703555 12.07692,-33.763962 17.9355,-68.864087 53.08703,-83.8188984 47.99929,-5.9613704 55.09125,31.3485754 68.29878,68.4015714 z M 167.94393,247.25055 c 0,0 71.94755,0 71.94755,0 0,0 -35.97379,-92.50401 -35.97379,-92.50401 0,0 -35.97376,92.50401 -35.97376,92.50401 z"
     id="Selection" />
</svg>
