<?xml version="1.0" encoding="UTF-8" standalone="no"?>
<svg
   xmlns:dc="http://purl.org/dc/elements/1.1/"
   xmlns:cc="http://creativecommons.org/ns#"
   xmlns:rdf="http://www.w3.org/1999/02/22-rdf-syntax-ns#"
   xmlns:svg="http://www.w3.org/2000/svg"
   xmlns="http://www.w3.org/2000/svg"
   xmlns:sodipodi="http://sodipodi.sourceforge.net/DTD/sodipodi-0.dtd"
   xmlns:inkscape="http://www.inkscape.org/namespaces/inkscape"
   width="3.27778in"
   height="3.27778in"
   viewBox="0 0 236 236"
   id="svg2"
   version="1.1"
   inkscape:version="0.91 r13725"
   sodipodi:docname="animal.svg">
  <metadata
     id="metadata9">
    <rdf:RDF>
      <cc:Work
         rdf:about="">
        <dc:format>image/svg+xml</dc:format>
        <dc:type
           rdf:resource="http://purl.org/dc/dcmitype/StillImage" />
      </cc:Work>
    </rdf:RDF>
  </metadata>
  <defs
     id="defs7" />
  <sodipodi:namedview
     pagecolor="#ffffff"
     bordercolor="#666666"
     borderopacity="1"
     objecttolerance="10"
     gridtolerance="10"
     guidetolerance="10"
     inkscape:pageopacity="0"
     inkscape:pageshadow="2"
     inkscape:window-width="699"
     inkscape:window-height="480"
     id="namedview5"
     showgrid="false"
     inkscape:zoom="0.79999944"
     inkscape:cx="121.87508"
     inkscape:cy="135.00009"
     inkscape:window-x="324"
     inkscape:window-y="119"
     inkscape:window-maximized="0"
     inkscape:current-layer="svg2" />
  <path
     id="Selection"
     fill="none"
     stroke="black"
     stroke-width="1"
     d="M 56.10,130.00            C 56.64,122.23 59.16,125.37 59.00,111.00              59.00,111.00 58.00,97.00 58.00,97.00              57.95,84.74 60.07,76.05 65.32,65.00              68.62,58.05 74.38,50.37 80.01,45.17              82.20,43.15 89.95,37.77 90.79,35.79              92.02,32.90 89.49,29.57 88.35,27.00              86.72,23.05 86.37,17.94 88.35,14.00              93.40,3.59 111.70,-4.21 121.67,3.85              126.41,7.68 128.85,17.38 128.48,23.28              127.87,33.12 121.60,30.69 114.00,35.34              111.36,36.95 107.74,40.41 105.00,40.94              101.19,42.02 98.62,38.95 95.29,40.94              92.49,42.37 88.95,48.14 87.38,51.00              82.82,59.31 78.41,76.48 78.04,86.00              77.47,100.64 85.00,116.72 97.00,125.20              102.81,129.31 113.16,132.48 114.66,133.39              119.21,136.14 118.62,142.98 126.00,146.40              131.24,149.06 134.82,145.64 140.00,146.40              145.15,146.88 149.56,151.84 155.00,150.07              160.37,148.32 162.26,142.48 167.09,141.30              167.09,141.30 177.00,140.71 177.00,140.71              185.28,139.63 191.07,137.63 198.00,132.91              206.69,126.99 213.42,117.11 216.25,107.00              217.76,101.63 217.65,95.61 220.00,91.00              222.24,102.88 222.98,102.36 223.00,115.00              223.02,126.16 223.30,135.82 221.72,147.00              219.47,162.83 211.83,184.18 205.60,199.00              200.09,212.12 190.33,217.68 177.00,220.85              173.02,221.82 166.82,222.88 163.06,220.85              157.54,217.81 158.24,210.26 158.85,205.00              158.85,205.00 160.99,178.00 160.99,178.00              160.87,173.49 159.97,168.45 155.89,165.75              153.72,164.31 151.53,164.22 149.17,165.24              141.96,168.35 140.86,177.16 141.01,184.00              141.17,190.72 142.63,205.74 144.52,212.00              146.06,217.12 150.45,222.15 149.30,225.87              148.39,228.81 144.62,229.81 142.00,230.57              132.91,233.23 129.16,234.01 120.00,231.19              116.96,230.26 113.82,229.46 111.00,227.96              91.07,217.36 83.38,191.66 70.76,174.00              69.68,178.76 69.43,184.14 70.76,189.00              71.32,192.54 74.10,197.17 71.97,200.66              69.56,204.64 62.18,205.18 58.00,204.91              43.26,203.95 34.01,195.40 27.17,183.00              18.68,167.63 19.03,159.52 19.00,143.00              18.98,129.49 16.09,128.54 15.17,120.00              13.30,102.57 14.22,80.74 22.63,65.00              27.70,55.50 32.33,47.80 41.01,41.04              43.90,38.80 47.27,35.92 51.00,36.00              44.86,39.93 40.58,44.95 36.43,50.91              21.17,72.91 21.72,102.89 36.43,125.09              41.08,132.11 48.95,142.26 57.00,145.00              57.00,145.00 56.10,130.00 56.10,130.00 Z            M 213.99,49.04            C 212.36,50.11 208.87,51.89 207.00,52.35              199.76,54.10 198.20,46.34 193.82,42.53              189.81,39.04 184.87,38.64 182.78,35.73              179.40,31.03 184.67,21.54 188.10,18.10              190.60,15.61 191.86,14.97 195.00,13.65              217.11,9.07 233.95,35.80 213.99,49.04 Z            M 38.00,45.00            C 38.00,45.00 39.00,46.00 39.00,46.00              39.00,46.00 39.00,45.00 39.00,45.00              39.00,45.00 38.00,45.00 38.00,45.00 Z            M 123.96,76.68            C 128.94,78.66 133.24,86.77 132.52,92.00              132.10,95.03 129.66,97.59 127.92,100.00              123.99,105.44 122.10,110.51 115.00,112.22              106.02,114.39 100.71,104.85 101.55,97.00              102.57,87.55 109.14,79.69 118.00,76.68              120.24,76.24 121.70,75.87 123.96,76.68 Z            M 109.00,83.00            C 109.00,83.00 110.00,84.00 110.00,84.00              110.00,84.00 110.00,83.00 110.00,83.00              110.00,83.00 109.00,83.00 109.00,83.00 Z            M 190.32,110.00            C 188.96,115.85 183.76,122.73 177.01,121.64              170.41,120.58 168.01,114.44 165.95,109.00              165.95,109.00 161.54,98.00 161.54,98.00              160.77,91.42 167.32,85.30 173.00,83.57              186.32,82.45 192.90,98.87 190.32,110.00 Z            M 216.00,116.00            C 216.00,116.00 217.00,117.00 217.00,117.00              217.00,117.00 217.00,116.00 217.00,116.00              217.00,116.00 216.00,116.00 216.00,116.00 Z            M 153.60,132.30            C 155.25,136.11 149.34,137.22 147.00,138.11              147.00,138.11 141.10,140.37 141.10,140.37              138.08,140.76 136.97,138.34 134.79,136.62              131.40,133.93 124.09,131.21 132.06,127.57              136.45,126.80 151.58,127.63 153.60,132.30 Z            M 145.98,158.85            C 151.44,156.63 152.66,152.68 144.00,151.92              144.00,151.92 137.00,150.92 137.00,150.92              137.00,150.92 128.00,149.00 128.00,149.00              126.43,158.26 139.07,161.67 145.98,158.85 Z"
     style="fill:#000000;fill-opacity:1;stroke:none" />
</svg>
