<?xml version="1.0" encoding="UTF-8" standalone="no"?>
<svg
   xmlns:dc="http://purl.org/dc/elements/1.1/"
   xmlns:cc="http://creativecommons.org/ns#"
   xmlns:rdf="http://www.w3.org/1999/02/22-rdf-syntax-ns#"
   xmlns:svg="http://www.w3.org/2000/svg"
   xmlns="http://www.w3.org/2000/svg"
   viewBox="0 0 36.934582 28.822496"
   height="28.822496"
   width="36.934582"
   version="1.1"
   id="svg4190">
  <metadata
     id="metadata4196">
    <rdf:RDF>
      <cc:Work
         rdf:about="">
        <dc:format>image/svg+xml</dc:format>
        <dc:type
           rdf:resource="http://purl.org/dc/dcmitype/StillImage" />
        <dc:title></dc:title>
      </cc:Work>
    </rdf:RDF>
  </metadata>
  <defs
     id="defs4194" />
  <g
     transform="translate(-5.2105179,-5.0151171)"
     id="g4227">
    <path
       style="opacity:1;fill:#cdcdcd;fill-opacity:1;stroke:none;stroke-width:2.89400005;stroke-linecap:round;stroke-linejoin:round;stroke-miterlimit:4;stroke-dasharray:none;stroke-dashoffset:0;stroke-opacity:1"
       d="m 34.989968,5.0154709 c 3.963747,-0.039245 7.15513,3.191188 7.15513,7.1551301 l 0,14.511813 c 0,3.963942 -3.191226,7.17229 -7.15513,7.155131 0,0 -8.894361,-0.05039 -15.267637,-0.05039 -4.478947,0 -14.5118131,-9.989296 -14.5118131,-14.31026 0,-4.320964 10.0328661,-14.3102605 14.5118131,-14.3102605 9.218374,0 15.267637,-0.1511636 15.267637,-0.1511636 z"
       id="rect4218" />
    <path
       style="opacity:1;fill:#ffffff;fill-opacity:1;stroke:none;stroke-width:2.89400005;stroke-linecap:round;stroke-linejoin:round;stroke-miterlimit:4;stroke-dasharray:none;stroke-dashoffset:0;stroke-opacity:1"
       d="m 22.732422,12.707031 c -0.319948,-0.01123 -0.645572,0.0879 -0.898438,0.298828 -0.505731,0.421863 -0.529598,1.129657 -0.05469,1.585938 l 4.855469,4.664062 -4.855469,4.664063 c -0.474897,0.456281 -0.449076,1.164074 0.05664,1.585937 0.505716,0.421863 1.294634,0.393781 1.769531,-0.0625 l 4.734375,-4.548828 4.734375,4.548828 c 0.474911,0.456281 1.265752,0.484363 1.771484,0.0625 0.505732,-0.421863 0.529599,-1.129656 0.05469,-1.585937 l -4.855469,-4.664063 4.855469,-4.664062 c 0.474897,-0.456281 0.451029,-1.164075 -0.05469,-1.585938 -0.505716,-0.421863 -1.296587,-0.393781 -1.771484,0.0625 l -4.734375,4.548829 -4.734375,-4.548829 c -0.237456,-0.22814 -0.553099,-0.350098 -0.873047,-0.361328 z"
       id="rect4222" />
  </g>
</svg>
