<?xml version="1.0" encoding="UTF-8" standalone="no"?>
<svg
   xmlns:dc="http://purl.org/dc/elements/1.1/"
   xmlns:cc="http://creativecommons.org/ns#"
   xmlns:rdf="http://www.w3.org/1999/02/22-rdf-syntax-ns#"
   xmlns:svg="http://www.w3.org/2000/svg"
   xmlns="http://www.w3.org/2000/svg"
   xmlns:sodipodi="http://sodipodi.sourceforge.net/DTD/sodipodi-0.dtd"
   xmlns:inkscape="http://www.inkscape.org/namespaces/inkscape"
   width="512"
   height="512"
   viewBox="0 0 409.59967 409.5997"
   id="svg2"
   version="1.1"
   inkscape:version="0.91 r13725"
   sodipodi:docname="book.svg">
  <metadata
     id="metadata9">
    <rdf:RDF>
      <cc:Work
         rdf:about="">
        <dc:format>image/svg+xml</dc:format>
        <dc:type
           rdf:resource="http://purl.org/dc/dcmitype/StillImage" />
        <dc:title></dc:title>
      </cc:Work>
    </rdf:RDF>
  </metadata>
  <defs
     id="defs7" />
  <sodipodi:namedview
     pagecolor="#ffffff"
     bordercolor="#666666"
     borderopacity="1"
     objecttolerance="10"
     gridtolerance="10"
     guidetolerance="10"
     inkscape:pageopacity="0"
     inkscape:pageshadow="2"
     inkscape:window-width="947"
     inkscape:window-height="539"
     id="namedview5"
     showgrid="false"
     units="px"
     inkscape:zoom="0.44500553"
     inkscape:cx="221.06726"
     inkscape:cy="163.14753"
     inkscape:window-x="131"
     inkscape:window-y="43"
     inkscape:window-maximized="0"
     inkscape:current-layer="svg2" />
  <path
     id="Selection"
     d="m 377.05404,175.32591 c 0,0 -33.73224,111.01748 -33.73224,111.01748 0,0 -19.49922,61.20195 -19.49922,61.20195 -9.49342,18.07592 -27.19929,27.01425 -46.9974,27.04272 0,0 -196.415549,0 -196.415549,0 -29.519263,-0.35583 -60.461828,-24.48078 -61.187712,-55.50874 0,0 2.78967,-25.61942 2.78967,-25.61942 0.241962,-5.7359 -1.565631,-10.73169 0,-15.65631 1.5087,-4.24144 7.571962,-12.51082 10.190836,-17.07961 5.066952,-8.86717 12.852408,-27.04272 14.802331,-37.00583 0.612019,-5.79284 -0.982078,-8.63944 0,-12.80971 1.394835,-3.40169 5.892466,-9.23722 7.970486,-12.80971 4.141806,-7.17344 8.65367,-17.70587 11.15868,-25.61942 5.237748,-16.52452 1.024777,-21.32105 4.554563,-28.46602 0,0 10.475496,-14.23301 10.475496,-14.23301 3.714816,-6.00633 9.308389,-20.11124 11.144447,-27.04272 3.21666,-12.169221 -0.07117,-13.293629 1.508699,-19.926212 1.380602,-5.821301 6.290993,-10.632059 9.436483,-15.656311 6.49026,-10.375865 10.2193,-27.825536 21.29259,-33.51874 5.67897,-2.903534 25.27782,-2.049554 32.72169,-2.063787 0,0 62.62524,0 62.62524,0 0,0 101.05438,0 101.05438,0 4.4834,0 8.44017,-0.14233 12.80971,1.124408 13.43596,3.885612 22.21773,17.791263 21.07909,31.611517 -0.59779,7.386932 -5.02426,19.684253 -7.24461,27.042719 0,0 -12.80971,42.699026 -12.80971,42.699026 0,0 -24.19611,79.70486 -24.19611,79.70486 0,0 -16.2114,54.08544 -16.2114,54.08544 -4.11334,12.59622 -10.1766,35.61099 -21.05062,43.32528 -7.40117,5.22352 -18.97261,6.47602 -27.81131,6.49026 0,0 -180.75923,0 -180.75923,0 -3.743282,0 -11.272544,-0.69742 -14.389574,0.86821 -9.891942,4.98155 -1.764893,16.19717 4.483399,20.28204 7.287301,4.75383 22.545088,5.87823 31.255691,5.89247 0,0 185.029134,0 185.029134,0 7.87086,-0.0142 17.53507,-0.37006 24.13919,-5.19505 7.0738,-5.18082 8.32631,-12.56775 10.61782,-20.42437 0,0 9.39379,-31.31262 9.39379,-31.31262 0,0 35.15554,-115.28739 35.15554,-115.28739 0,0 20.32473,-72.588349 20.32473,-72.588349 33.07752,11.272539 12.86665,52.975259 6.291,75.434949 z M 254.05236,89.942086 c 0,0 -86.82136,0 -86.82136,0 -12.82395,0.01423 -14.13338,1.451767 -17.81973,14.218774 -1.19558,3.30206 -2.60464,7.48656 0,10.33317 3.06009,2.932 9.70691,2.47654 13.54982,2.47654 0,0 113.86409,0 113.86409,0 4.91038,-0.0142 11.17291,0.34159 15.34318,-2.63311 3.92831,-2.81813 10.09121,-17.762787 7.98472,-22.317354 -0.82551,-1.779126 -1.99262,-1.779126 -2.39115,-2.07802 0,0 -43.70957,0 -43.70957,0 z m -18.50291,56.932044 c 0,0 -86.82137,0 -86.82137,0 -3.33052,-0.0142 -8.16975,-0.2989 -11.07328,1.43753 -4.54033,2.74697 -10.78862,18.80181 -6.56142,23.11441 2.87507,2.932 9.52189,2.47654 13.3648,2.47654 0,0 113.86408,0 113.86408,0 4.91039,-0.0142 11.17292,0.34159 15.34319,-2.6331 3.92831,-2.81814 10.0912,-17.7628 7.98472,-22.31737 -0.82552,-1.77912 -1.99263,-1.77912 -2.39115,-2.07801 0,0 -43.70957,0 -43.70957,0 z"
     style="fill:#ffffff;fill-opacity:1;stroke:none;stroke-width:1.4233011;stroke-opacity:1"
     inkscape:connector-curvature="0" />
</svg>
