<?xml version="1.0" encoding="UTF-8" standalone="no"?>
<svg
   xmlns:dc="http://purl.org/dc/elements/1.1/"
   xmlns:cc="http://creativecommons.org/ns#"
   xmlns:rdf="http://www.w3.org/1999/02/22-rdf-syntax-ns#"
   xmlns:svg="http://www.w3.org/2000/svg"
   xmlns="http://www.w3.org/2000/svg"
   xmlns:sodipodi="http://sodipodi.sourceforge.net/DTD/sodipodi-0.dtd"
   xmlns:inkscape="http://www.inkscape.org/namespaces/inkscape"
   width="5.20833in"
   height="5.20833in"
   viewBox="0 0 375 375"
   id="svg4831"
   version="1.1"
   inkscape:version="0.91 r13725"
   sodipodi:docname="box.svg">
  <metadata
     id="metadata4838">
    <rdf:RDF>
      <cc:Work
         rdf:about="">
        <dc:format>image/svg+xml</dc:format>
        <dc:type
           rdf:resource="http://purl.org/dc/dcmitype/StillImage" />
      </cc:Work>
    </rdf:RDF>
  </metadata>
  <defs
     id="defs4836" />
  <sodipodi:namedview
     pagecolor="#ffffff"
     bordercolor="#666666"
     borderopacity="1"
     objecttolerance="10"
     gridtolerance="10"
     guidetolerance="10"
     inkscape:pageopacity="0"
     inkscape:pageshadow="2"
     inkscape:window-width="699"
     inkscape:window-height="480"
     id="namedview4834"
     showgrid="false"
     inkscape:zoom="0.35600491"
     inkscape:cx="151.03666"
     inkscape:cy="246.69556"
     inkscape:window-x="118"
     inkscape:window-y="73"
     inkscape:window-maximized="0"
     inkscape:current-layer="svg4831" />
  <path
     id="Selection"
     fill="none"
     stroke="black"
     stroke-width="1"
     d="M 46.00,80.37            C 46.00,80.37 99.00,66.71 99.00,66.71              99.00,66.71 126.00,59.63 126.00,59.63              128.69,58.94 136.64,56.67 138.96,56.97              142.62,57.44 147.37,63.36 150.00,66.00              150.00,66.00 173.00,90.00 173.00,90.00              175.77,92.78 181.68,100.32 186.00,98.83              188.35,98.02 193.07,92.93 195.00,91.00              195.00,91.00 213.00,73.00 213.00,73.00              215.42,70.58 219.78,65.63 223.00,64.77              225.23,64.17 230.45,65.50 233.00,65.87              233.00,65.87 257.00,69.75 257.00,69.75              257.00,69.75 338.00,83.00 338.00,83.00              338.00,83.00 299.00,125.00 299.00,125.00              299.00,125.00 323.00,127.72 323.00,127.72              323.00,127.72 350.00,130.85 350.00,130.85              355.95,131.56 370.46,132.36 375.00,135.00              375.00,135.00 317.00,165.69 317.00,165.69              312.72,168.01 300.37,173.08 298.60,177.21              297.88,178.89 298.00,182.12 298.00,184.00              298.00,184.00 298.00,238.00 298.00,238.00              297.98,248.19 296.59,246.44 282.00,256.57              282.00,256.57 231.00,290.33 231.00,290.33              231.00,290.33 201.00,310.33 201.00,310.33              198.13,312.23 189.90,317.99 187.00,318.47              183.75,319.01 178.95,316.58 176.00,315.23              176.00,315.23 158.00,307.30 158.00,307.30              158.00,307.30 89.00,277.15 89.00,277.15              89.00,277.15 73.00,270.15 73.00,270.15              70.71,269.15 67.38,267.91 66.02,265.73              64.79,263.74 65.00,260.30 65.00,258.00              65.00,258.00 65.00,198.00 65.00,198.00              65.00,195.70 65.21,192.26 63.98,190.27              62.07,187.20 51.70,184.05 48.00,182.68              48.00,182.68 14.00,169.95 14.00,169.95              9.57,168.30 2.67,166.97 0.00,163.00              0.00,163.00 12.00,159.00 12.00,159.00              12.00,159.00 64.00,141.00 64.00,141.00              64.00,141.00 56.28,132.00 56.28,132.00              56.28,132.00 16.00,88.00 16.00,88.00              16.00,88.00 46.00,80.37 46.00,80.37 Z            M 283.00,122.58            C 283.00,122.58 221.00,110.00 221.00,110.00              221.00,110.00 183.00,103.11 183.00,103.11              183.00,103.11 159.00,110.33 159.00,110.33              159.00,110.33 114.00,125.00 114.00,125.00              114.00,125.00 83.00,135.00 83.00,135.00              83.00,135.00 68.00,141.00 68.00,141.00              68.00,141.00 100.00,151.33 100.00,151.33              100.00,151.33 151.00,168.00 151.00,168.00              151.00,168.00 173.00,175.33 173.00,175.33              173.00,175.33 185.00,178.71 185.00,178.71              185.00,178.71 196.00,174.75 196.00,174.75              196.00,174.75 216.00,164.75 216.00,164.75              216.00,164.75 270.00,138.25 270.00,138.25              270.00,138.25 295.00,125.00 295.00,125.00              295.00,125.00 283.00,122.58 283.00,122.58 Z"
     style="fill:#ffffff;fill-opacity:1;stroke:none" />
</svg>
