<?xml version="1.0" encoding="UTF-8" standalone="no"?>
<svg
   xmlns:dc="http://purl.org/dc/elements/1.1/"
   xmlns:cc="http://creativecommons.org/ns#"
   xmlns:rdf="http://www.w3.org/1999/02/22-rdf-syntax-ns#"
   xmlns:svg="http://www.w3.org/2000/svg"
   xmlns="http://www.w3.org/2000/svg"
   xmlns:sodipodi="http://sodipodi.sourceforge.net/DTD/sodipodi-0.dtd"
   xmlns:inkscape="http://www.inkscape.org/namespaces/inkscape"
   width="512"
   height="512"
   viewBox="0 0 409.60004 409.60004"
   id="svg2"
   version="1.1"
   inkscape:version="0.91 r13725"
   sodipodi:docname="business.svg">
  <metadata
     id="metadata9">
    <rdf:RDF>
      <cc:Work
         rdf:about="">
        <dc:format>image/svg+xml</dc:format>
        <dc:type
           rdf:resource="http://purl.org/dc/dcmitype/StillImage" />
        <dc:title></dc:title>
      </cc:Work>
    </rdf:RDF>
  </metadata>
  <defs
     id="defs7" />
  <sodipodi:namedview
     pagecolor="#ffffff"
     bordercolor="#666666"
     borderopacity="1"
     objecttolerance="10"
     gridtolerance="10"
     guidetolerance="10"
     inkscape:pageopacity="0"
     inkscape:pageshadow="2"
     inkscape:window-width="895"
     inkscape:window-height="476"
     id="namedview5"
     showgrid="false"
     units="px"
     inkscape:zoom="0.36875005"
     inkscape:cx="319.99996"
     inkscape:cy="319.99996"
     inkscape:window-x="254"
     inkscape:window-y="26"
     inkscape:window-maximized="0"
     inkscape:current-layer="svg2" />
  <path
     style="fill:#000000;stroke:none"
     d="M 260.63063,4.790625e-4 C 252.73455,0.03477906 244.84365,1.7790991 237.83545,5.1361091 c -5.71534,2.72912 -14.77284,8.5229399 -13.25007,15.9785699 0.57351,2.88733 4.07514,7.3963 5.81544,9.88812 14.14,20.40905 15.46254,5.81543 27.62491,21.83417 8.89931,11.72731 14.12085,35.51687 26.34256,51.337841 19.42025,25.15536 45.01128,28.5754 74.10211,19.69589 9.7299,-2.96645 20.42884,-6.66336 25.70908,-15.74064 -6.60525,-0.0197 -13.66536,0.37698 -19.77622,-2.58945 C 354.49538,100.7152 344.72593,87.562779 338.69418,78.465719 324.5344,57.087629 309.93956,23.032969 289.25362,8.5567791 280.94391,2.7388591 270.78274,-0.04355094 260.63063,4.790625e-4 Z M 166.78629,19.211219 c -2.92982,0.024 -6.07316,0.28613 -10.03335,0.7756 -12.47879,2.03695 -20.72548,3.83597 -31.64195,10.93563 -36.289364,23.63258 -34.727664,75.744171 -18.23429,110.827181 12.32058,26.18371 35.77579,52.16905 67.67484,46.82948 26.48036,-4.44965 46.33446,-30.83051 54.69979,-54.73997 16.21651,-46.414791 9.98823,-101.135591 -46.7893,-112.724461 -6.50143,-1.32253 -10.79272,-1.94344 -15.67574,-1.90346 z M 87.536166,222.83213 c -32.31435,6.60527 -40.73901,27.82514 -46.67188,57.35105 -7.21832,35.91362 -12.83477,84.12804 -12.65678,120.63495 0.0148,2.86648 0.25047,5.80104 0.66745,8.78187 l 269.988674,0 c 0.15303,-1.6435 0.25951,-3.26089 0.2781,-4.82663 0.45487,-39.0778 -3.83535,-84.14782 -11.09322,-122.61257 -3.34218,-17.66017 -10.50365,-43.03368 -26.66081,-53.2382 -3.75748,-2.37316 -11.21188,-4.60725 -15.64177,-6.09047 L 223.16088,297.98178 192.35014,406.751 c -3.06531,-10.81761 -1.3454,-13.5665 -2.31443,-23.73147 l -1.82003,-39.55245 -1.7984,-25.70908 c -0.0395,-19.34115 -4.50899,-26.955 -19.77623,-39.55244 l 17.24548,-17.7986 c 13.28963,-17.02733 -9.09767,-32.49357 -17.24548,-32.90888 -7.09966,-0.37574 -14.85256,5.91557 -18.92646,11.23538 -3.12464,4.09366 -4.9626,8.56186 -3.8749,13.76301 0.98881,4.66718 4.07205,8.40489 7.19669,11.86573 4.13323,4.58809 8.62367,8.28624 13.62706,11.86573 -12.10305,12.22171 -21.49677,19.51914 -21.75386,37.57482 l -1.97762,63.28391 -1.97762,29.66434 -24.0281,-83.06014 -27.390074,-100.85873 z"
     id="Selection"
     inkscape:connector-curvature="0" />
</svg>
