<?xml version="1.0" encoding="UTF-8" standalone="no"?>
<!DOCTYPE svg PUBLIC "-//W3C//DTD SVG 20010904//EN"
              "http://www.w3.org/TR/2001/REC-SVG-20010904/DTD/svg10.dtd">

<svg xmlns="http://www.w3.org/2000/svg"
     width="7.11111in" height="7.11111in"
     viewBox="0 0 512 512">
  <path id="Selection"
        fill="none" stroke="black" stroke-width="1"
        d="M 339.00,65.96
           C 324.29,70.45 311.35,68.72 301.53,56.00
             295.35,48.00 292.71,35.97 288.21,30.04
             282.06,21.94 281.39,29.32 274.24,19.00
             273.36,17.74 271.59,15.46 271.30,14.00
             270.53,10.23 275.11,7.30 278.00,5.92
             286.10,2.04 296.53,2.42 304.00,7.65
             314.46,14.97 321.84,32.19 329.00,43.00
             332.05,47.60 336.99,54.25 342.00,56.69
             345.09,58.19 348.66,57.99 352.00,58.00
             349.33,62.59 343.92,64.46 339.00,65.96 Z
           M 250.00,14.00
           C 278.71,19.86 281.86,47.53 273.66,71.00
             269.43,83.09 259.39,96.43 246.00,98.68
             229.87,101.38 218.01,88.24 211.78,75.00
             203.44,57.26 202.65,30.91 221.00,18.96
             226.52,15.37 230.69,14.46 237.00,13.43
             242.34,12.77 244.74,12.93 250.00,14.00 Z
           M 165.00,382.00
           C 159.85,381.99 154.28,382.04 152.52,375.96
             151.33,371.83 154.12,365.89 155.58,362.00
             155.58,362.00 164.69,336.00 164.69,336.00
             164.69,336.00 184.00,282.00 184.00,282.00
             185.39,277.93 191.25,263.16 191.25,260.00
             191.24,256.59 185.96,245.57 184.25,242.00
             179.26,231.49 172.06,217.64 172.00,206.00
             171.91,187.54 174.75,163.16 178.40,145.00
             181.40,130.07 185.66,119.34 202.00,116.00
             202.00,116.00 215.85,167.00 215.85,167.00
             215.85,167.00 228.00,209.00 228.00,209.00
             228.00,209.00 229.00,194.00 229.00,194.00
             229.00,194.00 230.00,162.00 230.00,162.00
             230.13,152.87 234.88,149.18 241.00,143.00
             238.47,141.19 236.20,139.32 234.11,137.00
             232.53,135.25 230.97,133.36 230.47,131.00
             229.92,128.37 230.85,126.11 232.43,124.04
             234.49,121.35 238.41,118.17 242.00,118.36
             246.12,118.57 257.44,126.39 250.72,135.00
             250.72,135.00 242.00,144.00 242.00,144.00
             249.72,150.37 251.98,154.22 252.00,164.00
             252.00,164.00 252.91,177.00 252.91,177.00
             252.91,177.00 253.83,197.00 253.83,197.00
             254.32,202.14 253.45,203.53 255.00,209.00
             255.00,209.00 270.58,154.00 270.58,154.00
             270.58,154.00 282.00,116.00 282.00,116.00
             284.24,116.75 288.01,117.88 289.91,119.08
             298.08,124.24 301.70,137.07 303.39,146.00
             307.06,165.45 309.23,188.24 309.00,208.00
             308.87,218.95 301.91,233.99 297.22,244.00
             295.42,247.85 290.47,258.16 290.39,262.00
             290.33,265.24 296.45,280.90 297.95,285.00
             297.95,285.00 314.67,332.00 314.67,332.00
             314.67,332.00 325.05,361.00 325.05,361.00
             326.44,364.79 329.33,371.01 328.69,374.99
             327.57,381.84 321.48,381.99 316.00,382.00
             316.00,382.00 280.00,382.00 280.00,382.00
             280.00,382.00 269.28,480.00 269.28,480.00
             268.44,486.86 268.22,505.21 262.78,509.26
             260.05,511.29 256.23,510.99 253.00,511.00
             253.00,511.00 231.00,511.00 231.00,511.00
             227.77,510.99 223.97,511.18 221.02,509.69
             213.22,505.74 213.52,488.93 212.42,481.00
             212.42,481.00 205.84,424.00 205.84,424.00
             205.84,424.00 201.00,382.00 201.00,382.00
             201.00,382.00 165.00,382.00 165.00,382.00 Z" />
</svg>
