<?xml version="1.0" encoding="UTF-8" standalone="no"?>
<svg
   xmlns:dc="http://purl.org/dc/elements/1.1/"
   xmlns:cc="http://creativecommons.org/ns#"
   xmlns:rdf="http://www.w3.org/1999/02/22-rdf-syntax-ns#"
   xmlns:svg="http://www.w3.org/2000/svg"
   xmlns="http://www.w3.org/2000/svg"
   xmlns:sodipodi="http://sodipodi.sourceforge.net/DTD/sodipodi-0.dtd"
   xmlns:inkscape="http://www.inkscape.org/namespaces/inkscape"
   width="3.88889in"
   height="3.90278in"
   viewBox="0 0 280 281"
   id="svg2"
   version="1.1"
   inkscape:version="0.91 r13725"
   sodipodi:docname="circle.svg">
  <metadata
     id="metadata9">
    <rdf:RDF>
      <cc:Work
         rdf:about="">
        <dc:format>image/svg+xml</dc:format>
        <dc:type
           rdf:resource="http://purl.org/dc/dcmitype/StillImage" />
      </cc:Work>
    </rdf:RDF>
  </metadata>
  <defs
     id="defs7" />
  <sodipodi:namedview
     pagecolor="#ffffff"
     bordercolor="#666666"
     borderopacity="1"
     objecttolerance="10"
     gridtolerance="10"
     guidetolerance="10"
     inkscape:pageopacity="0"
     inkscape:pageshadow="2"
     inkscape:window-width="699"
     inkscape:window-height="480"
     id="namedview5"
     showgrid="false"
     inkscape:zoom="0.67188573"
     inkscape:cx="175.00005"
     inkscape:cy="175.6251"
     inkscape:window-x="0"
     inkscape:window-y="0"
     inkscape:window-maximized="0"
     inkscape:current-layer="svg2" />
  <path
     id="Selection"
     fill="none"
     stroke="black"
     stroke-width="1"
     d="M 246.57,217.00            C 233.81,234.78 215.20,250.71 195.00,259.42              174.49,268.26 158.25,271.26 136.00,271.00              122.54,270.84 106.58,267.04 94.00,262.32              81.06,257.45 67.57,249.46 57.00,240.56              -1.98,190.88 -4.07,100.90 50.00,47.00              60.04,37.00 73.94,27.21 87.00,21.58              102.40,14.94 119.15,10.37 136.00,10.00              136.00,10.00 136.00,25.00 136.00,25.00              112.62,26.07 88.16,35.37 70.00,50.09              54.43,62.71 43.03,77.59 35.15,96.00              12.07,149.89 34.30,212.14 85.00,241.13              103.43,251.67 123.90,256.24 145.00,256.00              169.91,255.70 196.17,244.27 215.00,228.41              226.55,218.68 237.65,204.66 244.22,191.00              251.24,176.39 255.95,158.25 256.00,142.00              256.00,142.00 271.00,142.00 271.00,142.00              271.00,168.46 261.98,195.54 246.57,217.00 Z            M 234.33,205.00            C 223.67,220.89 205.79,236.57 188.00,243.99              169.04,251.90 156.49,254.24 136.00,254.00              96.28,253.53 56.19,226.60 39.32,191.00              18.08,146.18 26.84,95.01 62.00,60.00              70.56,51.47 86.12,39.79 98.00,37.00              98.00,37.00 103.00,51.00 103.00,51.00              86.44,58.14 72.33,69.36 61.74,84.00              54.33,94.25 49.41,104.79 46.15,117.00              29.50,179.45 79.35,239.30 143.00,239.00              163.87,238.90 185.84,230.14 202.00,217.19              212.78,208.56 221.99,197.33 228.24,185.00              234.77,172.13 238.96,156.47 239.00,142.00              239.00,142.00 254.00,142.00 254.00,142.00              254.00,164.89 247.04,186.05 234.33,205.00 Z            M 232.00,172.00            C 213.63,226.24 153.90,251.14 102.00,228.85              92.52,224.78 83.48,219.10 76.00,211.96              67.55,203.90 60.63,195.50 55.37,185.00              44.49,163.30 41.79,137.33 48.72,114.00              50.33,108.58 53.69,99.85 56.44,95.00              57.60,92.94 59.42,89.40 62.10,89.30              64.32,89.21 70.65,93.68 73.00,95.00              73.00,95.00 63.16,119.00 63.16,119.00              56.17,144.50 61.25,170.16 77.67,191.00              83.46,198.36 91.04,205.00 99.00,209.94              141.73,236.45 196.89,217.07 215.99,171.00              219.58,162.34 221.92,151.38 222.00,142.00              222.00,142.00 237.00,142.00 237.00,142.00              236.99,152.17 235.26,162.36 232.00,172.00 Z            M 77.00,142.00            C 77.03,150.87 78.56,157.83 82.01,166.00              84.87,172.74 90.16,180.64 95.17,185.96              126.24,218.97 178.49,209.14 199.11,170.00              203.13,162.37 205.81,150.62 206.00,142.00              206.00,142.00 220.00,142.00 220.00,142.00              219.97,152.95 217.52,162.90 213.40,173.00              209.70,182.05 203.88,190.11 197.00,197.00              156.85,237.14 86.82,222.92 67.05,169.00              63.86,160.30 62.03,151.27 62.00,142.00              62.00,142.00 77.00,142.00 77.00,142.00 Z            M 203.00,142.00            C 202.62,183.76 162.60,212.08 123.00,200.41              114.11,197.79 104.81,193.44 99.00,186.00              101.28,183.72 106.97,177.30 110.00,176.91              112.80,176.54 117.41,180.64 120.00,182.12              125.18,185.09 132.06,187.24 138.00,187.83              164.53,190.48 187.43,168.17 188.00,142.00              188.00,142.00 203.00,142.00 203.00,142.00 Z"
     style="fill:#ffffff;fill-opacity:1;stroke:none" />
</svg>
