<?xml version="1.0" encoding="UTF-8" standalone="no"?>
<svg
   xmlns:dc="http://purl.org/dc/elements/1.1/"
   xmlns:cc="http://creativecommons.org/ns#"
   xmlns:rdf="http://www.w3.org/1999/02/22-rdf-syntax-ns#"
   xmlns:svg="http://www.w3.org/2000/svg"
   xmlns="http://www.w3.org/2000/svg"
   xmlns:sodipodi="http://sodipodi.sourceforge.net/DTD/sodipodi-0.dtd"
   xmlns:inkscape="http://www.inkscape.org/namespaces/inkscape"
   height="1000"
   width="813"
   id="svg2"
   version="1.1"
   inkscape:version="0.91 r13725"
   sodipodi:docname="clock.svg">
  <metadata
     id="metadata10">
    <rdf:RDF>
      <cc:Work
         rdf:about="">
        <dc:format>image/svg+xml</dc:format>
        <dc:type
           rdf:resource="http://purl.org/dc/dcmitype/StillImage" />
      </cc:Work>
    </rdf:RDF>
  </metadata>
  <defs
     id="defs8" />
  <sodipodi:namedview
     pagecolor="#ffffff"
     bordercolor="#666666"
     borderopacity="1"
     objecttolerance="10"
     gridtolerance="10"
     guidetolerance="10"
     inkscape:pageopacity="0"
     inkscape:pageshadow="2"
     inkscape:window-width="699"
     inkscape:window-height="480"
     id="namedview6"
     showgrid="false"
     inkscape:zoom="0.236"
     inkscape:cx="277.26271"
     inkscape:cy="550.84746"
     inkscape:window-x="572"
     inkscape:window-y="100"
     inkscape:window-maximized="0"
     inkscape:current-layer="svg2" />
  <path
     d="M406.25 93.5c223.75 0 406.25 181.25 406.25 406.25 0 223.75 -182.5 406.25 -406.25 406.25 -225 0 -406.25 -182.5 -406.25 -406.25 0 -225 181.25 -406.25 406.25 -406.25zm0 722.5c175 0 316.25 -142.5 316.25 -317.5s-141.25 -316.25 -316.25 -316.25 -317.5 141.25 -317.5 316.25 142.5 317.5 317.5 317.5zm107.5 -267.5l-115 0c-13.75 0 -25 -5 -32.5 -15l-131.25 -143.75c-38.75 -41.25 25 -101.25 65 -61.25l117.5 130l96.25 0c61.25 0 55 90 0 90z"
     id="path4"
     style="fill:#000000" />
</svg>
