<?xml version="1.0" encoding="UTF-8" standalone="no"?>
<svg
   xmlns:dc="http://purl.org/dc/elements/1.1/"
   xmlns:cc="http://creativecommons.org/ns#"
   xmlns:rdf="http://www.w3.org/1999/02/22-rdf-syntax-ns#"
   xmlns:svg="http://www.w3.org/2000/svg"
   xmlns="http://www.w3.org/2000/svg"
   xmlns:sodipodi="http://sodipodi.sourceforge.net/DTD/sodipodi-0.dtd"
   xmlns:inkscape="http://www.inkscape.org/namespaces/inkscape"
   xml:space="preserve"
   enable-background="new 0 0 283.464 283.464"
   viewBox="0 0 283.464 283.464"
   height="283.464px"
   width="283.464px"
   y="0px"
   x="0px"
   id="Layer_1"
   version="1.1"
   inkscape:version="0.91 r13725"
   sodipodi:docname="clothing.svg"><sodipodi:namedview
     pagecolor="#ffffff"
     bordercolor="#666666"
     borderopacity="1"
     objecttolerance="10"
     gridtolerance="10"
     guidetolerance="10"
     inkscape:pageopacity="0"
     inkscape:pageshadow="2"
     inkscape:window-width="699"
     inkscape:window-height="480"
     id="namedview7"
     showgrid="false"
     inkscape:zoom="0.83255725"
     inkscape:cx="141.73199"
     inkscape:cy="141.73199"
     inkscape:window-x="0"
     inkscape:window-y="0"
     inkscape:window-maximized="0"
     inkscape:current-layer="Layer_1" /><metadata
     id="metadata37"><rdf:RDF><cc:Work
         rdf:about=""><dc:format>image/svg+xml</dc:format><dc:type
           rdf:resource="http://purl.org/dc/dcmitype/StillImage" /><dc:title /></cc:Work></rdf:RDF></metadata><defs
     id="defs35" /><g
     id="g5" /><path
     style="fill:#ffffff"
     d="m 267.36694,110.51125 -55.64747,-74.318526 -40.92318,-8.74362 -3.04861,-9.81772 0.12798,-1.31178 -0.53248,0 -0.12341,-0.39307 -24.71113,0.19425 -24.71114,-0.19425 -0.12341,0.39307 -0.53248,0 0.12798,1.31178 -3.04633,9.81772 -40.925462,8.74362 -55.647469,74.318526 -7.548403,90.21518 34.179205,56.83813 27.026155,-13.51537 c 0,0 27.206703,20.92437 71.203634,19.87312 43.99464,1.05125 71.20135,-19.87312 71.20135,-19.87312 l 27.02616,13.51537 34.1792,-56.83813 -7.55069,-90.21518 z M 69.712135,214.2418 42.29519,159.78954 71.707217,123.62668 c 9.529773,54.83848 -1.995082,90.61512 -1.995082,90.61512 z m 145.590715,0 c 0,0 -11.52486,-35.77664 -1.99509,-90.61283 l 29.41204,36.16286 -27.41695,54.44997 z"
     id="path9" /></svg>