<?xml version="1.0" encoding="UTF-8" standalone="no"?>
<svg
   xmlns:dc="http://purl.org/dc/elements/1.1/"
   xmlns:cc="http://creativecommons.org/ns#"
   xmlns:rdf="http://www.w3.org/1999/02/22-rdf-syntax-ns#"
   xmlns:svg="http://www.w3.org/2000/svg"
   xmlns="http://www.w3.org/2000/svg"
   xmlns:sodipodi="http://sodipodi.sourceforge.net/DTD/sodipodi-0.dtd"
   xmlns:inkscape="http://www.inkscape.org/namespaces/inkscape"
   width="7.11111in"
   height="7.11111in"
   viewBox="0 0 512 512"
   id="svg2"
   version="1.1"
   inkscape:version="0.91 r13725"
   sodipodi:docname="cog.svg">
  <metadata
     id="metadata9">
    <rdf:RDF>
      <cc:Work
         rdf:about="">
        <dc:format>image/svg+xml</dc:format>
        <dc:type
           rdf:resource="http://purl.org/dc/dcmitype/StillImage" />
      </cc:Work>
    </rdf:RDF>
  </metadata>
  <defs
     id="defs7" />
  <sodipodi:namedview
     pagecolor="#ffffff"
     bordercolor="#666666"
     borderopacity="1"
     objecttolerance="10"
     gridtolerance="10"
     guidetolerance="10"
     inkscape:pageopacity="0"
     inkscape:pageshadow="2"
     inkscape:window-width="699"
     inkscape:window-height="480"
     id="namedview5"
     showgrid="false"
     inkscape:zoom="0.36875005"
     inkscape:cx="319.99996"
     inkscape:cy="319.99996"
     inkscape:window-x="0"
     inkscape:window-y="0"
     inkscape:window-maximized="0"
     inkscape:current-layer="svg2" />
  <path
     id="Selection copy"
     d="m 284.23138,3.3567886 c 6.45301,0.077968 14.88985,0.022291 19.55964,5.293917 3.7336,4.2128404 4.3243,14.3548764 5.26048,20.0388724 1.56031,9.584775 4.12369,39.030106 10.14204,44.970437 3.14291,3.109483 9.45103,5.015291 13.59701,6.642473 4.85925,1.894672 9.4176,4.446894 14.77839,3.154065 10.73272,-2.596804 38.67346,-30.972204 50.67672,-32.933739 12.29303,-2.006116 23.8505,12.560513 31.67435,20.395517 8.53714,8.525989 35.40795,32.231599 34.54978,44.335159 -0.93618,12.99519 -32.26504,41.3483 -33.52443,52.78315 -0.51267,4.69208 6.37499,20.65186 8.91607,25.12104 9.28386,16.30526 51.73552,8.82691 65.6,18.91322 7.70126,5.60598 6.79851,15.10159 6.80966,23.53843 0,0 0,42.22875 0,42.22875 -0.0112,6.24125 0.37893,15.30221 -2.77513,20.80789 -4.16827,7.28889 -12.97289,7.71239 -20.45125,8.74889 -8.73775,1.21482 -37.84873,4.52491 -43.9005,8.41454 -5.5837,3.59986 -11.13395,16.55047 -13.42984,22.90317 -3.0649,8.47026 2.01726,12.74997 6.9211,19.35902 5.17133,6.95453 24.03996,29.89113 25.91234,35.89833 2.67482,8.54829 -2.02841,14.78954 -7.0437,21.1088 -8.51485,10.72158 -25.5557,28.46457 -36.03208,37.03514 -4.39116,3.58872 -11.39028,9.00523 -16.88481,10.42066 -12.56051,3.23207 -28.75434,-13.03976 -38.00476,-20.41781 -7.14401,-5.69514 -15.61428,-15.65885 -25.53341,-12.46021 -5.12674,1.66062 -20.12803,7.55638 -23.07033,11.64663 -5.71744,7.92415 -5.96263,54.3546 -14.1877,63.49358 -5.42766,6.04063 -16.3387,5.29392 -23.78362,5.30506 0,0 -42.22876,0 -42.22876,0 -7.3669,-0.0112 -18.44512,0.72442 -23.78362,-5.30506 -3.7336,-4.21285 -4.33544,-14.35489 -5.26048,-20.03887 -1.57146,-9.58479 -4.12368,-39.03012 -10.14203,-44.97045 -3.15406,-3.10948 -9.45104,-5.01529 -13.59702,-6.64247 -4.85925,-1.90581 -9.4176,-4.4469 -14.78953,-3.15407 -10.46524,2.54109 -36.76765,29.51221 -48.55916,32.54367 -13.68617,3.52184 -27.249745,-13.47442 -35.898335,-22.11186 -8.982943,-8.98294 -35.185051,-30.83846 -32.075571,-44.34631 2.931159,-12.73884 31.986411,-39.92172 33.16779,-50.67673 0.512674,-4.69208 -6.408427,-20.67415 -8.916073,-25.2102 C 72.664128,310.6938 65.843333,311.60771 56.191685,310.0251 19.37945,303.99561 5.8827454,308.45364 5.5261025,282.06207 c 0,0 0,-50.67673 0,-50.67673 0.078016,-6.59789 0.078016,-15.00129 5.2939185,-19.88284 8.213932,-7.70126 51.256271,-6.97683 61.799527,-13.86449 4.92613,-3.22093 11.245396,-17.16345 13.429835,-22.90317 3.13177,-8.25851 -1.582604,-12.86143 -6.408427,-19.35902 -7.522937,-10.13088 -29.333879,-31.6632 -26.670203,-44.34631 1.337411,-6.40843 8.314238,-14.020531 12.571663,-19.002386 8.916072,-10.431797 31.551751,-33.747334 43.432424,-39.487048 20.36208,-9.818829 44.20142,26.614473 60.33951,31.752354 4.6475,1.482301 21.49889,-5.583688 25.92349,-8.213928 8.00217,-4.758956 7.92416,-13.719607 8.86034,-22.056134 1.0365,-9.228132 4.40231,-39.275295 9.89684,-45.3716624 2.4965,-2.7862766 3.91193,-2.7639858 6.97683,-4.1013967 0,0 63.25953,-1.1925203 63.25953,-1.1925203 z M 174.42995,256.71813 c 0.0558,43.8225 32.5771,83.91139 78.12709,84.4575 22.30132,0.26748 38.33911,-1.35971 56.98484,-15.51396 52.77201,-40.04431 43.10921,-123.14212 -18.98009,-148.21857 -15.33564,-6.19667 -32.28732,-6.27468 -48.55915,-4.49147 -41.45974,9.29501 -67.61727,41.45974 -67.57269,83.7665 z"
     style="fill:#ffffff;fill-opacity:1;stroke:none;stroke-width:1"
     inkscape:connector-curvature="0" />
</svg>
