<?xml version="1.0" encoding="UTF-8" standalone="no"?>
<svg
   xmlns:dc="http://purl.org/dc/elements/1.1/"
   xmlns:cc="http://creativecommons.org/ns#"
   xmlns:rdf="http://www.w3.org/1999/02/22-rdf-syntax-ns#"
   xmlns:svg="http://www.w3.org/2000/svg"
   xmlns="http://www.w3.org/2000/svg"
   xmlns:sodipodi="http://sodipodi.sourceforge.net/DTD/sodipodi-0.dtd"
   xmlns:inkscape="http://www.inkscape.org/namespaces/inkscape"
   width="7.11111in"
   height="7.11111in"
   viewBox="0 0 512 512"
   id="svg2"
   version="1.1"
   inkscape:version="0.91 r13725"
   sodipodi:docname="compass.svg">
  <metadata
     id="metadata9">
    <rdf:RDF>
      <cc:Work
         rdf:about="">
        <dc:format>image/svg+xml</dc:format>
        <dc:type
           rdf:resource="http://purl.org/dc/dcmitype/StillImage" />
      </cc:Work>
    </rdf:RDF>
  </metadata>
  <defs
     id="defs7" />
  <sodipodi:namedview
     pagecolor="#ffffff"
     bordercolor="#666666"
     borderopacity="1"
     objecttolerance="10"
     gridtolerance="10"
     guidetolerance="10"
     inkscape:pageopacity="0"
     inkscape:pageshadow="2"
     inkscape:window-width="699"
     inkscape:window-height="480"
     id="namedview5"
     showgrid="false"
     inkscape:zoom="0.36875005"
     inkscape:cx="319.99996"
     inkscape:cy="319.99996"
     inkscape:window-x="642"
     inkscape:window-y="64"
     inkscape:window-maximized="0"
     inkscape:current-layer="svg2" />
  <path
     id="Selection"
     fill="none"
     stroke="black"
     stroke-width="1"
     d="M 303.17,30.67            C 399.58,50.06 472.80,130.46 484.43,227.82              484.43,227.82 486.65,250.61 486.65,250.61              487.13,352.68 427.86,442.66 329.55,475.44              295.43,486.82 274.83,487.26 239.61,486.85              223.85,486.66 204.40,482.09 189.24,477.76              109.77,455.08 50.70,390.10 30.82,310.57              25.22,288.17 24.69,267.48 24.95,244.61              25.20,223.54 32.61,190.98 40.56,171.46              68.11,103.78 120.86,56.32 190.44,34.78              203.38,30.77 221.26,27.85 234.81,26.55              234.81,26.55 248.00,25.66 248.00,25.66              261.10,24.10 289.77,27.97 303.17,30.67 Z            M 210.83,80.19            C 181.72,87.50 154.76,103.19 132.88,123.59              99.46,154.76 73.46,208.02 72.92,254.20              71.99,334.23 125.92,404.40 201.23,429.29              217.40,434.63 235.73,438.68 252.80,438.88              280.59,439.20 301.67,434.21 327.15,423.29              349.45,413.74 370.45,399.07 387.01,381.32              421.26,344.60 438.06,300.53 437.48,250.61              437.35,239.57 434.06,223.07 431.33,212.23              415.57,149.46 363.93,96.05 300.77,80.19              282.95,75.71 257.90,74.16 239.61,75.86              239.61,75.86 210.83,80.19 210.83,80.19 Z            M 355.03,179.85            C 355.03,179.85 333.44,223.02 333.44,223.02              333.44,223.02 308.26,273.39 308.26,273.39              308.26,273.39 295.21,298.11 295.21,298.11              292.51,301.07 285.43,303.94 281.58,305.97              281.58,305.97 246.80,323.13 246.80,323.13              246.80,323.13 233.61,329.99 233.61,329.99              233.61,329.99 200.04,346.47 200.04,346.47              200.04,346.47 158.06,366.93 158.06,366.93              158.06,366.93 174.56,333.35 174.56,333.35              174.56,333.35 204.54,273.39 204.54,273.39              204.54,273.39 218.93,244.61 218.93,244.61              218.93,244.61 226.88,230.68 226.88,230.68              226.88,230.68 240.81,222.73 240.81,222.73              240.81,222.73 267.19,209.54 267.19,209.54              267.19,209.54 328.35,178.95 328.35,178.95              328.35,178.95 361.93,161.86 361.93,161.86              362.57,166.71 357.31,175.23 355.03,179.85 Z            M 257.60,281.79            C 250.44,274.63 234.45,256.80 226.42,253.00              226.42,253.00 196.14,314.16 196.14,314.16              196.14,314.16 183.25,341.75 183.25,341.75              183.25,341.75 210.83,328.85 210.83,328.85              210.83,328.85 271.99,298.57 271.99,298.57              268.81,291.86 262.79,286.98 257.60,281.79 Z"
     style="fill:#ffffff;fill-opacity:1;stroke:none" />
</svg>
