<?xml version="1.0" encoding="UTF-8" standalone="no"?>
<svg
   xmlns:dc="http://purl.org/dc/elements/1.1/"
   xmlns:cc="http://creativecommons.org/ns#"
   xmlns:rdf="http://www.w3.org/1999/02/22-rdf-syntax-ns#"
   xmlns:svg="http://www.w3.org/2000/svg"
   xmlns="http://www.w3.org/2000/svg"
   xmlns:sodipodi="http://sodipodi.sourceforge.net/DTD/sodipodi-0.dtd"
   xmlns:inkscape="http://www.inkscape.org/namespaces/inkscape"
   width="512"
   height="512"
   id="svg2"
   version="1.1"
   inkscape:version="0.91 r13725"
   sodipodi:docname="crown.svg">
  <defs
     id="defs17" />
  <sodipodi:namedview
     pagecolor="#ffffff"
     bordercolor="#666666"
     borderopacity="1"
     objecttolerance="10"
     gridtolerance="10"
     guidetolerance="10"
     inkscape:pageopacity="0"
     inkscape:pageshadow="2"
     inkscape:window-width="1187"
     inkscape:window-height="508"
     id="namedview15"
     showgrid="false"
     inkscape:zoom="0.484375"
     inkscape:cx="320"
     inkscape:cy="240"
     inkscape:window-x="112"
     inkscape:window-y="21"
     inkscape:window-maximized="0"
     inkscape:current-layer="svg2" />
  <title
     id="title4">crown3</title>
  <metadata
     id="metadata2401">image/svg+xmlCrown with cross on the topcrown religious cross king<rdf:RDF>
  <cc:Work
     rdf:about="">
    <dc:format>image/svg+xml</dc:format>
    <dc:type
       rdf:resource="http://purl.org/dc/dcmitype/StillImage" />
    <dc:title>crown3</dc:title>
  </cc:Work>
</rdf:RDF>
</metadata>
  <g
     id="g7"
     transform="matrix(0.926832,0,0,0.926832,-44.558372,40.858482)"
     style="fill:#ffffff">
    <title
       id="title9">Layer 1</title>
    <g
       id="layer1"
       style="fill:#ffffff">
      <g
         id="g2392"
         style="fill:#ffffff">
        <path
           id="path16"
           d="m 464.75589,190.11899 c -34.69983,-10.89574 -70.10876,-16.07163 -105.85217,-18.6424 9.89218,-20.09884 -0.0782,-37.27804 -19.19709,-43.33571 l -0.90902,-9.01239 8.31588,0 7.62137,6.2342 c 12.89566,-12.10114 10.99393,-23.59848 -1.03808,-34.66338 l -3.46527,5.546906 -9.3595,0.339996 0,-4.501579 5.88696,-6.932312 C 331.9089,77.767265 316.54068,77.652748 300.6543,84.812325 l 8.31591,4.850685 3.11799,7.27951 -9.70127,0 -6.58325,-5.199669 c -10.67392,10.632229 -10.44119,23.344229 0.68903,38.137749 l 5.80151,-9.95761 8.06134,0.25635 -0.56177,8.23044 c -23.22229,10.42486 -28.23654,25.0133 -15.03549,43.76841 -38.93957,1.3292 -76.02476,8.84333 -111.85364,20.58248 -14.17555,-15.63167 -29.52192,-11.78298 -41.36126,-35.21254 2.45803,28.56381 -6.62688,36.84517 -5.80875,54.2369 -13.24471,6.10148 -24.93497,14.80097 -35.06165,26.10035 -18.906201,-17.56992 -35.779797,-23.96228 -52.597004,-29.99831 14.544609,21.29897 22.073288,43.37026 33.116302,65.05956 -1.229042,9.15402 1.747169,16.03546 14.026466,17.91897 l 31.552736,46.75009 c -3.7634,9.61035 0.90904,18.18076 10.51759,19.48069 l 13.24471,17.91897 c 54.54234,-8.47949 109.48283,-15.01367 164.02519,-15.31909 63.1073,-0.34183 124.27652,5.53241 188.94559,13.36468 l 12.46295,-20.64428 c 10.25573,-0.64542 16.61902,-9.34674 11.29205,-19.86432 l 30.77283,-45.57923 c 14.41729,-0.64724 16.23541,-7.13778 14.02643,-20.25522 l 28.43658,-62.33244 c -16.10089,11.81751 -35.71619,16.22817 -48.30817,28.43674 -9.89941,-10.12869 -21.65332,-17.79007 -34.67077,-23.76428 1.81811,-23.49866 -7.27228,-32.58905 -7.3996,-51.81522 -13.56464,18.35895 -20.51151,7.89046 -45.37375,32.88176 l 0.0128,-0.005 z m 14.97186,87.96917 c 5.01975,-7.42867 -0.007,-8.17407 -4.38159,-3.70706 -13.87738,19.57343 -8.47403,33.03086 12.81747,40.15406 29.19654,3.60708 37.51239,-8.99765 45.18287,-22.61142 2.93255,-5.69605 0.75994,-9.14856 -3.35981,-1.68354 -9.0122,9.02674 -7.51409,16.88083 -26.77301,19.83524 4.29615,-12.60657 6.83783,-34.28168 22.56232,-57.62345 4.8216,-6.798 10.61762,-6.21438 16.40454,-5.95986 -8.83404,-9.40836 -20.5097,-16.75902 -32.98718,-23.54229 l -4.09796,6.75417 c 18.35168,2.15805 24.87677,13.69922 12.41382,32.83777 -5.71784,17.13721 -30.05466,30.74551 -29.67832,46.59552 -13.71374,-5.07062 -15.99362,-13.46469 -8.09588,-31.03461 l -0.007,-0.0145 z m -121.7258,-86.64179 c 1.73264,5.93038 0.47455,11.91004 -3.77249,17.93879 27.15845,-10.49559 48.49906,-2.50712 48.62082,23.89154 -0.98721,18.92603 -24.56586,36.99918 -18.72073,62.24683 -20.88788,-2.51441 -26.78208,-11.50479 -25.68036,-33.55627 -3.75067,-10.40448 -15.85181,-7.26468 -12.0593,8.60678 8.0741,35.88705 56.54407,47.1864 88.40405,21.59695 7.08689,-5.80875 11.16486,-12.85382 12.22843,-21.14243 0.0581,-10.08252 -7.93228,-8.80496 -11.46848,4.5961 -1.12176,15.27549 -13.06106,22.08603 -32.37814,23.09507 9.66672,-17.24268 3.29617,-34.24534 4.95062,-51.36744 5.24152,-26.89503 30.00556,-44.44293 51.49527,-29.54377 l 0.49811,-12.40677 c -29.91461,-9.97942 -71.18316,-14.30281 -102.1178,-13.96283 l 0,0.007 z m -65.07449,-0.68178 c -1.64169,5.95765 -0.29266,11.91751 4.04709,17.88263 -27.31299,-10.08507 -48.53363,-1.76918 -48.24274,24.62948 1.27088,18.91147 23.0878,39.42813 17.62628,64.7685 20.84427,-2.83438 30.00559,-16.46997 28.59293,-36.41791 3.59253,-10.46085 12.96832,-7.11743 10.79394,8.09588 -7.51962,35.99796 -55.8132,48.03727 -88.06228,22.93873 -7.1723,-5.69605 -11.36299,-12.68476 -12.54836,-20.95154 -0.21452,-10.07761 7.80501,-8.92679 11.53934,4.41791 1.35629,15.26275 13.3938,21.88784 32.72542,22.60598 -9.93579,-17.09539 -3.8198,-34.18896 -5.73062,-51.28198 -5.65238,-26.80955 -25.74396,-38.86142 -51.94246,-28.75671 l -0.68906,-12.39929 c 36.33248,-9.814 70.70507,-15.11898 101.89781,-15.51714 l -0.007,-0.0145 z m -118.77138,89.75253 c -2.06714,-6.69052 0.99268,-7.92502 4.38158,-3.70706 13.05925,19.16073 4.93608,31.25458 -12.81929,40.14679 -29.1965,3.60888 -38.54869,-8.65042 -46.22644,-22.26419 -2.93256,-5.69605 -0.41089,-9.14673 3.70706,-1.68354 9.01221,9.02677 6.47781,19.65888 34.74893,22.26419 -19.89888,-18.84802 -14.11737,-37.05606 -29.84919,-60.39984 -4.82157,-6.79779 -10.61577,-6.21402 -16.40454,-5.95236 10.48304,-8.86313 21.63877,-16.38998 32.98902,-23.54231 l 3.40891,5.36152 c -18.35167,4.58881 -24.18225,15.0846 -11.71933,34.22315 5.71786,17.13718 30.05646,30.74551 29.68011,46.60278 10.93575,-4.72882 15.99184,-13.46469 8.09592,-31.0346"
           inkscape:connector-curvature="0"
           style="fill:#ffffff;fill-rule:evenodd" />
        <path
           id="path18"
           d="m 139.73987,217.41743 -38.12329,26.65304 3.70706,5.05807 38.12327,-27.66225 -3.70704,-4.04886 z m 374.1405,-1.91079 c 12.47748,4.26884 24.03314,11.78296 34.67072,22.53508 l -4.1543,4.50155 c -10.97937,-11.14845 -21.95148,-17.85353 -32.93085,-22.53306 l 2.42169,-4.50357 -0.007,0 z m -160.17633,-39.52866 1.03809,8.31589 4.50158,0.3418 c 35.00528,0.74542 70.04691,5.13424 102.28144,16.98813 l 1.72537,-5.19971 C 429.76517,185.05383 392.7218,179.01781 353.69134,175.9707 l 0.0127,0.007 z m -167.03593,21.87329 c 30.59462,-11.05028 68.41246,-17.71898 109.28465,-21.92947 0.98721,3.11783 1.65445,5.27588 0.0782,8.40117 -37.19241,1.94534 -71.89224,8.06152 -107.38114,18.57184 l -1.98897,-5.04354 0.007,0 z m 115.02977,-29.49995 22.88235,-27.38588 23.91864,28.42928 c 14.10465,-14.14646 4.70154,-36.92881 -23.91864,-36.39592 -26.12762,1.36355 -36.35428,19.5787 -22.88235,35.35961 l 0,-0.007 z m -5.19785,-66.91454 4.84882,2.29441 17.67715,0.12726 -0.68905,-11.441144 -5.97239,-5.581406 c 6.456,-3.614395 17.06629,-2.954376 25.60944,-0.341888 l -5.75967,5.930626 -0.0418,11.441092 13.56472,0.0856 7.27774,-4.936268 c 3.63617,6.527088 3.63617,12.535828 0,18.024428 l -5.1979,-3.46526 -15.59546,0.33999 0,7.27958 2.0744,7.96865 -18.02621,0.34196 2.77072,-15.59547 -17.67716,0.68705 -4.85061,3.45999 c -2.59076,-6.0651 -2.59076,-11.61225 0,-16.64106 l -0.0127,0.0218 z m -147.82614,78.24826 c 15.73003,9.7649 37.8033,11.18663 39.74138,47.19913 26.09308,-18.66985 41.774,1.39282 48.31361,18.23167 4.77426,12.28476 -3.45799,27.21265 4.33975,48.34052 -10.43214,-1.81805 -16.88813,-8.94128 -19.37345,-21.3624 -5.62513,-20.69284 -28.48565,-15.56585 -21.36242,6.456 15.06279,28.53473 41.5322,34.20349 65.20902,31.58911 26.00763,-2.86893 48.66992,-20.53885 46.56644,-49.47138 -7.11594,-15.06277 -14.89914,-15.56637 -23.34958,-1.48336 -4.96518,10.43158 2.47802,27.31973 -14.90097,31.29766 1.15811,-20.19885 -20.53156,-40.40258 -20.36792,-56.13989 3.63617,-26.74574 23.01687,-29.89302 53.15881,-16.88812 -16.56271,-33.03812 3.96884,-51.41907 18.87528,-67.07091 15.89547,17.22266 31.95816,31.79456 18.87707,66.57257 35.65256,-19.31708 62.10556,1.95262 52.52609,21.53349 -7.80499,15.9571 -21.64599,40.5008 -19.23889,51.9856 -26.16397,-5.12882 0.32547,-40.5737 -27.81842,-40.73731 -19.53708,4.80155 -15.39728,31.29783 6.456,48.19324 12.25021,9.26856 27.15664,13.24469 44.71386,11.91751 21.53873,-0.37634 38.37049,-13.34469 51.96973,-34.92709 4.72336,-13.9552 -11.56842,-22.73291 -18.20081,-10.38306 -4.55972,15.77365 -11.39206,26.42575 -24.0477,29.60739 4.68702,-16.82449 1.61991,-37.02096 4.95789,-53.51092 10.48853,-23.36614 26.38217,-28.74221 47.67368,-16.11565 2.01077,-38.64143 28.67834,-39.17412 41.33398,-53.71875 2.42896,18.86983 16.63178,28.77127 -9.51764,59.96932 20.66791,2.72003 29.52374,12.75381 12.39386,38.88287 -6.61963,11.13571 -18.30258,19.91339 -23.91318,31.3891 -11.01394,-11.44843 1.57807,-16.8172 2.37259,-25.23309 2.37256,-13.77011 -13.79922,-11.79569 -22.21508,7.9468 -2.88349,22.84781 6.656,37.83243 43.52838,35.51072 14.31738,-5.14881 24.98407,-13.58649 30.31103,-26.83118 2.4289,-7.3996 -0.86725,-11.76843 -7.88324,-9.04858 -7.29407,7.79046 -16.62628,25.0422 -21.90234,23.39321 3.41614,-11.38299 8.5141,-23.44232 11.9375,-34.82711 7.15228,-20.70209 17.29358,-26.45978 30.43286,-17.27866 3.3161,-17.34265 21.21875,-26.28395 33.50531,-31.85818 l -19.20984,42.21359 c -17.35718,-2.65622 -17.21533,11.27026 -13.55737,18.74075 l -30.21833,46.45374 c -15.84454,2.13803 -21.76056,10.40484 -11.77563,18.84073 l -6.61237,16.43359 C 384.99497,340.73367 268.21982,340.58459 152.13916,367.47943 l -9.43764,-13.40833 c 12.74656,-9.60125 5.46151,-20.53155 -9.43946,-20.86425 l -32.29089,-45.21198 c 9.02494,-9.31766 1.52537,-21.6806 -14.402809,-19.86978 -6.414185,-14.07519 -8.784958,-25.46725 -19.253471,-42.24269 16.895401,4.79428 32.007286,14.75209 35.64344,32.80357 9.26855,-11.75204 19.21164,-7.61209 29.80737,12.41349 4.80156,12.91198 3.87071,23.4732 14.40283,38.74871 -14.90095,-3.30889 -15.89364,-15.5682 -23.84046,-23.35141 -5.79604,-5.29788 -14.07737,0.32724 -8.44498,9.43946 22.27145,32.12729 56.88585,37.42697 73.52492,5.46151 3.80705,-14.4028 -0.99268,-25.50399 -14.40282,-33.2872 -8.9395,0 -10.43214,6.456 -5.95786,14.89917 4.63065,6.456 7.77594,10.93027 1.98171,20.86609 -12.00839,-20.46792 -23.69136,-26.95846 -29.80737,-37.82513 -10.18308,-18.1095 -7.68323,-30.42334 17.88261,-32.22144 -23.26414,-24.42224 -12.99564,-35.35252 -9.43767,-54.15146 l 0.007,0.007 z m 326.18143,59.19481 c 5.71054,1.26355 8.89944,5.46167 7.09414,9.34491 -1.80355,3.87799 -7.93957,6.01602 -13.65561,4.75266 -5.71057,-1.26557 -8.89947,-5.4617 -7.09594,-9.33966 1.80539,-3.87796 7.93408,-6.01603 13.65011,-4.75046 l 0.007,-0.007 z m 1.51263,-4.06866 c 8.55768,1.94534 13.3374,8.4086 10.63211,14.3808 -2.69983,5.97256 -11.89569,9.25946 -20.46066,7.31411 -8.55768,-1.94534 -13.3374,-8.4086 -10.63211,-14.3808 2.69983,-5.97256 11.89569,-9.26147 20.4534,-7.31411 l 0.007,0 z m 83.11343,34.23749 c 4.26886,0 7.75592,2.95437 7.75592,6.57598 0,3.62162 -3.48706,6.57599 -7.75592,6.57599 -4.26886,0 -7.75592,-2.95437 -7.75592,-6.57599 0,-3.62161 3.48707,-6.57598 7.75592,-6.57598 z m -42.85211,65.45626 c 4.26703,0 7.75415,2.95438 7.75415,6.57782 0,3.62162 -3.48712,6.57599 -7.75415,6.57599 -4.26886,0 -7.75592,-2.95437 -7.75592,-6.57599 0,-3.62344 3.48706,-6.57782 7.75592,-6.57782 z m -73.55398,-19.00436 c 7.61956,0.68176 13.83377,6.54871 13.83377,13.04651 0,6.50509 -6.21421,11.25027 -13.83377,10.56851 -7.61411,-0.68179 -13.82828,-6.54874 -13.82828,-13.0538 0,-6.49783 6.21417,-11.25028 13.82828,-10.56122 z m -0.36359,3.82886 c 5.32694,0.47635 9.67395,4.57974 9.67395,9.12494 0,4.54519 -4.34701,7.86319 -9.67395,7.38687 -5.32519,-0.47635 -9.67221,-4.58158 -9.67221,-9.12677 0,-4.5452 4.34701,-7.86139 9.67221,-7.38504 z m -116.04431,-98.5322 c 10.21942,0 18.54986,6.05985 18.54986,13.49378 0,7.42868 -8.33044,13.49377 -18.54986,13.49377 -10.21942,0 -18.55713,-6.05783 -18.55713,-13.49377 0,-7.42867 8.33771,-13.49378 18.55713,-13.49378 z m -0.5109,3.36708 c 7.70505,0 13.99741,4.39612 13.99741,9.78673 0,5.38333 -6.2851,9.7796 -13.99741,9.7796 -7.70501,0 -13.99737,-4.39627 -13.99737,-9.7796 0,-5.39061 6.28509,-9.78673 13.99737,-9.78673 z m 0.1709,81.65682 c 9.10492,0 16.53366,5.6033 16.53366,12.47744 0,6.87598 -7.42325,12.47931 -16.53366,12.47931 -9.10492,0 -16.5336,-5.60333 -16.5336,-12.47931 0,-6.87414 7.42142,-12.47744 16.5336,-12.47744 z m -0.34176,4.04886 c 6.31414,0 11.47021,4.01248 11.47021,8.94128 0,4.92154 -5.14877,8.94131 -11.47021,8.94131 -6.31241,0 -11.46848,-4.01248 -11.46848,-8.94131 0,-4.92154 5.1488,-8.94128 11.46848,-8.94128 z M 181.57748,239.35639 c 6.12874,0 11.13573,3.78503 11.13573,8.4284 0,4.6452 -4.99972,8.43064 -11.13573,8.43064 -6.13055,0 -11.13026,-3.78544 -11.13026,-8.43064 0,-4.64337 4.99971,-8.4284 11.13026,-8.4284 z m 0.50359,-3.06913 c 8.64317,0 15.68822,5.33426 15.68822,11.88117 0,6.54162 -7.04505,11.88113 -15.68822,11.88113 -8.63586,0 -15.68819,-5.33243 -15.68819,-11.88113 0,-6.53946 7.04505,-11.88117 15.68819,-11.88117 z m 28.17294,80.30054 c 7.80501,0 14.16829,5.34149 14.16829,11.8811 0,6.54148 -6.36328,11.88117 -14.16829,11.88117 -7.80501,0 -14.16827,-5.33243 -14.16827,-11.88117 0,-6.53961 6.36326,-11.8811 14.16827,-11.8811 z m 0.17092,4.08337 c 5.4815,0 9.94853,3.55799 9.94853,7.92502 0,4.36157 -4.46703,7.92682 -9.94853,7.92682 -5.47606,0 -9.95035,-3.55798 -9.95035,-7.92682 0,-4.36703 4.46702,-7.92502 9.95035,-7.92502 z m -73.05039,18.33716 c 4.26886,0 7.75592,2.76892 7.75592,6.17783 0,3.40344 -3.4798,6.17965 -7.75592,6.17965 -4.26884,0 -7.7559,-2.77075 -7.7559,-6.17965 0,-3.40164 3.48706,-6.17783 7.7559,-6.17783 z M 92.328026,271.18491 c 3.990669,0 7.250481,3.15438 7.250481,7.02505 0,3.8707 -3.259811,7.02326 -7.250481,7.02326 -3.9925,0 -7.252312,-3.15256 -7.252312,-7.02326 0,-3.87067 3.259811,-7.02505 7.252312,-7.02505"
           inkscape:connector-curvature="0"
           style="fill:#ffffff;fill-rule:evenodd" />
      </g>
    </g>
  </g>
</svg>
