<?xml version="1.0" encoding="UTF-8" standalone="no"?>
<svg
   xmlns:dc="http://purl.org/dc/elements/1.1/"
   xmlns:cc="http://creativecommons.org/ns#"
   xmlns:rdf="http://www.w3.org/1999/02/22-rdf-syntax-ns#"
   xmlns:svg="http://www.w3.org/2000/svg"
   xmlns="http://www.w3.org/2000/svg"
   xmlns:sodipodi="http://sodipodi.sourceforge.net/DTD/sodipodi-0.dtd"
   xmlns:inkscape="http://www.inkscape.org/namespaces/inkscape"
   width="7.11111in"
   height="7.11111in"
   viewBox="0 0 512 512"
   id="svg2"
   version="1.1"
   inkscape:version="0.91 r13725"
   sodipodi:docname="diamond.svg">
  <metadata
     id="metadata9">
    <rdf:RDF>
      <cc:Work
         rdf:about="">
        <dc:format>image/svg+xml</dc:format>
        <dc:type
           rdf:resource="http://purl.org/dc/dcmitype/StillImage" />
      </cc:Work>
    </rdf:RDF>
  </metadata>
  <defs
     id="defs7" />
  <sodipodi:namedview
     pagecolor="#ffffff"
     bordercolor="#666666"
     borderopacity="1"
     objecttolerance="10"
     gridtolerance="10"
     guidetolerance="10"
     inkscape:pageopacity="0"
     inkscape:pageshadow="2"
     inkscape:window-width="699"
     inkscape:window-height="480"
     id="namedview5"
     showgrid="false"
     inkscape:zoom="0.36875005"
     inkscape:cx="319.99996"
     inkscape:cy="319.99996"
     inkscape:window-x="0"
     inkscape:window-y="0"
     inkscape:window-maximized="0"
     inkscape:current-layer="svg2" />
  <path
     id="Selection"
     fill="none"
     stroke="black"
     stroke-width="1"
     d="M 207.34,59.70            C 207.34,59.70 382.08,59.70 382.08,59.70              387.42,59.47 393.86,59.30 398.78,61.63              405.83,64.99 416.65,81.49 421.78,88.33              421.78,88.33 475.34,159.75 475.34,159.75              481.80,168.37 500.20,188.57 497.73,199.26              496.25,205.66 486.94,215.70 482.31,220.53              482.31,220.53 447.56,257.00 447.56,257.00              447.56,257.00 356.38,354.25 356.38,354.25              356.38,354.25 315.23,398.32 315.23,398.32              315.23,398.32 278.62,437.82 278.62,437.82              273.80,442.99 265.99,451.83 259.00,453.31              247.05,455.83 234.97,439.81 227.97,431.75              227.97,431.75 210.51,413.51 210.51,413.51              210.51,413.51 158.28,357.29 158.28,357.29              158.28,357.29 119.34,316.26 119.34,316.26              119.34,316.26 64.37,257.00 64.37,257.00              64.37,257.00 48.22,240.29 48.22,240.29              48.22,240.29 21.59,211.41 21.59,211.41              17.98,207.03 13.84,202.24 13.83,196.22              13.82,188.25 23.85,176.72 28.60,170.39              28.60,170.39 69.63,115.68 69.63,115.68              69.63,115.68 98.12,77.70 98.12,77.70              104.47,69.24 107.06,63.28 117.68,59.70              117.68,59.70 207.34,59.70 207.34,59.70 Z            M 137.44,89.85            C 137.44,89.85 127.06,90.76 127.06,90.76              127.06,90.76 109.52,111.12 109.52,111.12              109.52,111.12 58.42,181.02 58.42,181.02              58.42,181.02 129.84,181.02 129.84,181.02              144.43,181.00 144.09,177.27 153.00,159.75              153.00,159.75 189.10,89.85 189.10,89.85              189.10,89.85 137.44,89.85 137.44,89.85 Z            M 322.49,152.15            C 322.49,152.15 300.03,109.61 300.03,109.61              289.52,91.10 292.77,89.88 277.23,89.85              277.23,89.85 234.69,89.85 234.69,89.85              219.15,89.88 222.40,91.10 211.89,109.61              211.89,109.61 189.44,152.15 189.44,152.15              184.44,161.62 178.39,170.65 175.43,181.02              175.43,181.02 336.50,181.02 336.50,181.02              333.54,170.65 327.48,161.62 322.49,152.15 Z            M 402.40,111.12            C 402.40,111.12 384.86,90.76 384.86,90.76              384.86,90.76 374.48,89.85 374.48,89.85              374.48,89.85 322.82,89.85 322.82,89.85              322.82,89.85 358.92,159.75 358.92,159.75              367.83,177.27 367.50,181.00 382.08,181.02              382.08,181.02 453.50,181.02 453.50,181.02              453.50,181.02 402.40,111.12 402.40,111.12 Z            M 188.05,316.26            C 188.05,316.26 156.72,246.36 156.72,246.36              156.72,246.36 146.34,223.57 146.34,223.57              146.34,223.57 139.88,212.97 139.88,212.97              139.88,212.97 128.32,211.41 128.32,211.41              128.32,211.41 62.98,211.41 62.98,211.41              62.98,211.41 93.31,244.84 93.31,244.84              93.31,244.84 138.82,293.47 138.82,293.47              138.82,293.47 184.41,342.09 184.41,342.09              184.41,342.09 210.38,367.93 210.38,367.93              210.38,367.93 188.05,316.26 188.05,316.26 Z            M 172.39,211.41            C 172.39,211.41 254.44,393.76 254.44,393.76              254.44,393.76 257.48,393.76 257.48,393.76              257.48,393.76 339.54,211.41 339.54,211.41              339.54,211.41 172.39,211.41 172.39,211.41 Z            M 383.60,211.41            C 383.60,211.41 372.04,212.97 372.04,212.97              372.04,212.97 365.58,223.57 365.58,223.57              365.58,223.57 355.20,246.36 355.20,246.36              355.20,246.36 323.87,316.26 323.87,316.26              323.87,316.26 301.55,367.93 301.55,367.93              301.55,367.93 327.51,342.09 327.51,342.09              327.51,342.09 371.58,294.99 371.58,294.99              371.58,294.99 418.61,244.84 418.61,244.84              418.61,244.84 448.94,211.41 448.94,211.41              448.94,211.41 383.60,211.41 383.60,211.41 Z"
     style="fill:#ffffff;fill-opacity:1;stroke:none" />
</svg>
