<?xml version="1.0" encoding="UTF-8" standalone="no"?>
<svg
   xmlns:dc="http://purl.org/dc/elements/1.1/"
   xmlns:cc="http://creativecommons.org/ns#"
   xmlns:rdf="http://www.w3.org/1999/02/22-rdf-syntax-ns#"
   xmlns:svg="http://www.w3.org/2000/svg"
   xmlns="http://www.w3.org/2000/svg"
   xmlns:sodipodi="http://sodipodi.sourceforge.net/DTD/sodipodi-0.dtd"
   xmlns:inkscape="http://www.inkscape.org/namespaces/inkscape"
   width="7.11111in"
   height="7.11111in"
   viewBox="0 0 512 512"
   id="svg2"
   version="1.1"
   inkscape:version="0.91 r13725"
   sodipodi:docname="education.svg">
  <metadata
     id="metadata9">
    <rdf:RDF>
      <cc:Work
         rdf:about="">
        <dc:format>image/svg+xml</dc:format>
        <dc:type
           rdf:resource="http://purl.org/dc/dcmitype/StillImage" />
      </cc:Work>
    </rdf:RDF>
  </metadata>
  <defs
     id="defs7" />
  <sodipodi:namedview
     pagecolor="#ffffff"
     bordercolor="#666666"
     borderopacity="1"
     objecttolerance="10"
     gridtolerance="10"
     guidetolerance="10"
     inkscape:pageopacity="0"
     inkscape:pageshadow="2"
     inkscape:window-width="699"
     inkscape:window-height="480"
     id="namedview5"
     showgrid="false"
     inkscape:zoom="0.36875005"
     inkscape:cx="287.45759"
     inkscape:cy="330.84742"
     inkscape:window-x="52"
     inkscape:window-y="9"
     inkscape:window-maximized="0"
     inkscape:current-layer="svg2" />
  <path
     id="Selection"
     fill="none"
     stroke="black"
     stroke-width="1"
     d="M 28.00,199.55            C 28.00,199.55 45.00,193.20 45.00,193.20              45.00,193.20 61.00,186.67 61.00,186.67              61.00,186.67 198.00,134.33 198.00,134.33              198.00,134.33 211.00,129.07 211.00,129.07              211.00,129.07 236.91,119.12 236.91,119.12              241.99,117.03 252.79,112.28 257.96,112.79              262.86,113.28 279.59,120.77 285.00,122.91              285.00,122.91 337.00,142.77 337.00,142.77              337.00,142.77 377.00,157.70 377.00,157.70              377.00,157.70 385.91,161.62 385.91,161.62              385.91,161.62 439.00,182.10 439.00,182.10              439.00,182.10 504.00,207.00 504.00,207.00              495.62,208.50 487.63,212.62 479.58,215.34              479.58,215.34 454.01,224.51 454.01,224.51              454.01,224.51 436.00,230.54 436.00,230.54              436.00,230.54 428.00,233.96 428.00,233.96              428.00,233.96 412.99,238.71 412.99,238.71              412.99,238.71 389.72,246.59 389.72,246.59              389.72,246.59 372.00,251.66 372.00,251.66              372.00,251.66 320.00,267.71 320.00,267.71              320.00,267.71 297.00,275.29 297.00,275.29              297.00,275.29 278.00,280.63 278.00,280.63              272.81,282.52 260.22,287.39 255.00,286.73              245.72,285.54 236.93,280.96 228.00,278.40              228.00,278.40 216.00,275.29 216.00,275.29              216.00,275.29 194.00,268.01 194.00,268.01              194.00,268.01 171.00,260.93 171.00,260.93              171.00,260.93 152.28,255.59 152.28,255.59              152.28,255.59 141.00,251.66 141.00,251.66              141.00,251.66 119.83,245.41 119.83,245.41              114.71,243.78 102.85,241.17 100.00,237.00              104.61,236.69 116.16,233.75 119.83,231.11              121.43,229.97 125.37,226.02 123.26,223.92              121.57,222.25 117.09,224.36 115.00,224.74              115.00,224.74 96.00,228.55 96.00,228.55              92.54,229.36 89.46,228.87 88.31,233.06              88.31,233.06 87.79,243.00 87.79,243.00              87.79,243.00 86.20,250.00 86.20,250.00              84.97,258.23 85.01,265.74 85.00,274.00              85.00,274.00 83.00,298.00 83.00,298.00              83.00,298.00 83.00,313.00 83.00,313.00              82.98,323.41 81.61,321.52 81.05,328.00              81.05,328.00 81.05,347.00 81.05,347.00              73.74,348.55 68.39,351.90 61.00,352.00              49.39,352.15 46.75,349.29 36.00,347.00              36.00,347.00 36.00,331.00 36.00,331.00              36.02,322.33 36.66,325.41 37.74,319.00              39.46,308.89 41.58,299.79 44.74,290.00              44.74,290.00 61.05,244.99 61.05,244.99              61.05,244.99 67.94,229.58 67.94,229.58              68.86,227.40 69.46,224.42 71.43,223.01              74.42,220.86 85.80,220.55 85.80,216.88              85.80,212.12 77.64,213.58 75.00,213.83              66.18,214.66 63.20,212.04 59.00,225.00              59.00,225.00 9.00,206.00 9.00,206.00              14.50,205.30 22.69,201.74 28.00,199.55 Z            M 403.88,262.00            C 403.88,262.00 257.88,306.00 257.88,306.00              257.88,306.00 109.00,261.81 109.00,261.81              109.00,261.81 108.94,342.19 108.94,342.19              108.94,342.19 126.67,399.33 252.67,398.67              378.67,398.00 404.38,352.25 404.00,341.38"
     style="fill:#ffffff;fill-opacity:1;stroke:none" />
</svg>
