<?xml version="1.0" encoding="UTF-8" standalone="no"?>
<svg
   xmlns:dc="http://purl.org/dc/elements/1.1/"
   xmlns:cc="http://creativecommons.org/ns#"
   xmlns:rdf="http://www.w3.org/1999/02/22-rdf-syntax-ns#"
   xmlns:svg="http://www.w3.org/2000/svg"
   xmlns="http://www.w3.org/2000/svg"
   xmlns:sodipodi="http://sodipodi.sourceforge.net/DTD/sodipodi-0.dtd"
   xmlns:inkscape="http://www.inkscape.org/namespaces/inkscape"
   width="7.11111in"
   height="7.11111in"
   viewBox="0 0 512 512"
   id="svg2"
   version="1.1"
   inkscape:version="0.91 r13725"
   sodipodi:docname="flower.svg">
  <metadata
     id="metadata9">
    <rdf:RDF>
      <cc:Work
         rdf:about="">
        <dc:format>image/svg+xml</dc:format>
        <dc:type
           rdf:resource="http://purl.org/dc/dcmitype/StillImage" />
      </cc:Work>
    </rdf:RDF>
  </metadata>
  <defs
     id="defs7" />
  <sodipodi:namedview
     pagecolor="#ffffff"
     bordercolor="#666666"
     borderopacity="1"
     objecttolerance="10"
     gridtolerance="10"
     guidetolerance="10"
     inkscape:pageopacity="0"
     inkscape:pageshadow="2"
     inkscape:window-width="699"
     inkscape:window-height="480"
     id="namedview5"
     showgrid="false"
     inkscape:zoom="0.36875005"
     inkscape:cx="319.99996"
     inkscape:cy="319.99996"
     inkscape:window-x="632"
     inkscape:window-y="40"
     inkscape:window-maximized="0"
     inkscape:current-layer="svg2" />
  <path
     id="Selection"
     d="m 223.24001,267.41456 c -28.12534,-32.55506 -50.00177,-70.5429 -58.13694,-113.03899 -3.73037,-19.48733 -3.39316,-43.53487 -3.16133,-63.500034 0,0 1.16969,-12.704162 1.16969,-12.704162 0,0 1.40153,-35.557109 1.40153,-35.557109 -0.0632,-5.11075 -2.64498,-14.667438 0.76926,-18.407011 3.97274,-4.352448 17.87207,-3.251351 23.71,-3.178637 20.01124,0.228529 40.45454,9.878706 56.69326,20.754632 43.18382,28.929754 73.35348,87.817651 73.43778,139.267941 0,0 0,13.97146 0,13.97146 -0.0421,24.96165 -9.38916,58.3789 -21.90804,80.01648 -5.22674,9.02692 -9.29432,16.54762 -18.03014,22.85295 0,0 0,-31.74482 0,-31.74482 0,0 -1.18023,-15.23876 -1.18023,-15.23876 -3.51962,-50.56734 -15.62753,-96.25246 -52.93127,-133.35734 10.16896,17.45134 16.69184,22.08426 25.18529,43.18168 4.28888,10.6474 6.81795,21.82457 9.08357,33.02251 2.19186,10.84477 5.64825,27.43393 5.66932,38.1021 0.0527,31.12156 0.34775,42.18446 -3.86736,73.65921 -13.15115,-8.23745 -27.50361,-26.06275 -37.90439,-38.1021 z m -0.74819,-152.40839 c 0,0 1.28561,1.2673 1.28561,1.2673 0,0 0,-1.2673 0,-1.2673 0,0 -1.28561,0 -1.28561,0 z m 1.28561,1.2673 c 0,0 1.29615,1.27769 1.29615,1.27769 0,0 0,-1.27769 0,-1.27769 0,0 -1.29615,0 -1.29615,0 z m 97.88544,147.3288 c 17.29249,-34.09244 44.86986,-56.2598 81.20413,-68.15372 12.18167,-3.98888 23.1515,-6.75201 36.08136,-6.77278 0,0 14.17331,0 14.17331,0 13.5832,0.15581 35.62823,6.47153 46.37677,14.63627 3.17187,2.40995 9.81067,8.43482 11.23327,12.02896 2.06541,5.22502 -2.80305,9.24506 -6.04868,12.70416 0,0 -24.78486,30.47752 -24.78486,30.47752 -25.79649,32.25382 -58.30554,54.20304 -98.92868,64.17524 0,0 -20.61189,3.66686 -20.61189,3.66686 0,0 -15.46947,2.90855 -15.46947,2.90855 0,0 -29.63223,1.64126 -29.63223,1.64126 15.48,-27.17423 42.62532,-55.08599 69.58096,-71.36352 14.56321,-8.788 31.65549,-15.89319 48.95852,-16.26715 0,0 0,-2.54498 0,-2.54498 -32.65658,0.30124 -69.50719,21.93883 -92.76407,43.29594 -11.39134,10.46042 -20.82266,23.96444 -33.4996,32.90825 3.67768,-20.1937 4.42586,-34.20671 14.13116,-53.34086 z m -208.67965,58.59704 c -25.965094,-9.01653 -52.320081,-27.09113 -70.64528,-47.16018 0,0 -16.164954,-20.32873 -16.164954,-20.32873 C 21.388834,248.457 16.741673,242.55678 11.177725,236.93704 8.5432805,234.2674 2.3892172,228.8554 1.345977,225.50017 -0.60351228,219.24678 9.1966229,210.72886 13.770019,207.60216 31.104667,195.7394 51.35828,193.72419 71.748884,193.75535 c 49.685636,0.0727 97.484996,31.46436 119.477346,74.92651 8.18786,16.18404 11.76016,34.22748 13.22491,52.07356 0,0 -39.93818,-37.88396 -39.93818,-37.88396 -12.96147,-11.41608 -28.16749,-19.89245 -43.80555,-27.16384 -10.64316,-4.95494 -28.272865,-11.77966 -39.938187,-8.61141 40.802287,8.09202 69.032997,28.50386 95.440667,59.68775 7.92441,9.35932 16.36518,19.49772 21.80267,30.48791 -27.58791,-3.59415 -58.97995,-6.02487 -85.02934,-15.07256 z m 159.75274,27.76633 c 0,0 11.5494,-1.29846 11.5494,-1.29846 0,0 23.24635,-25.36678 23.24635,-25.36678 -2.2867,9.58785 -7.93495,19.36268 -12.88771,27.94293 58.06317,11.50957 105.73608,37.18798 142.47078,83.81838 9.64207,12.2471 25.33283,35.86874 28.88406,50.80626 0,0 -25.76487,-13.62867 -25.76487,-13.62867 -18.26198,-9.00614 -41.42402,-14.54279 -61.84623,-14.31426 -17.28196,0.19737 -42.77285,6.01448 -59.26448,11.42648 0,0 -25.76487,8.25822 -25.76487,8.25822 -12.6348,2.93972 -40.06464,2.06715 -54.1115,1.90095 -16.35463,-0.18698 -33.28884,-7.88427 -48.96906,-12.66261 -16.14388,-4.93416 -39.82227,-9.11002 -56.68272,-8.92304 -16.75507,0.19737 -41.719067,6.9286 -56.693252,14.31426 0,0 -25.764872,13.62867 -25.764872,13.62867 3.477468,-14.60512 18.55703,-37.47884 27.893503,-49.53896 32.772491,-42.29873 82.795331,-75.34202 137.022751,-82.55108 0,0 -9.02034,-21.58565 -9.02034,-21.58565 0,0 16.96583,16.4749 16.96583,16.4749 0,0 13.95202,1.29846 13.95202,1.29846 0,0 25.77541,-1.2673 25.77541,-1.2673 0.63226,-13.75332 5.16351,-29.15828 10.30594,-41.91438 3.32994,8.279 -0.82194,33.00173 -1.29614,43.18168 z"
     style="fill:#ffffff;fill-opacity:1;stroke:none;stroke-width:1;stroke-opacity:1"
     inkscape:connector-curvature="0" />
</svg>
