<?xml version="1.0" encoding="UTF-8" standalone="no"?>
<svg
   xmlns:dc="http://purl.org/dc/elements/1.1/"
   xmlns:cc="http://creativecommons.org/ns#"
   xmlns:rdf="http://www.w3.org/1999/02/22-rdf-syntax-ns#"
   xmlns:svg="http://www.w3.org/2000/svg"
   xmlns="http://www.w3.org/2000/svg"
   xmlns:sodipodi="http://sodipodi.sourceforge.net/DTD/sodipodi-0.dtd"
   xmlns:inkscape="http://www.inkscape.org/namespaces/inkscape"
   width="7.11111in"
   height="7.11111in"
   viewBox="0 0 512 512"
   id="svg2"
   version="1.1"
   inkscape:version="0.91 r13725"
   sodipodi:docname="ghost.svg">
  <metadata
     id="metadata9">
    <rdf:RDF>
      <cc:Work
         rdf:about="">
        <dc:format>image/svg+xml</dc:format>
        <dc:type
           rdf:resource="http://purl.org/dc/dcmitype/StillImage" />
      </cc:Work>
    </rdf:RDF>
  </metadata>
  <defs
     id="defs7" />
  <sodipodi:namedview
     pagecolor="#ffffff"
     bordercolor="#666666"
     borderopacity="1"
     objecttolerance="10"
     gridtolerance="10"
     guidetolerance="10"
     inkscape:pageopacity="0"
     inkscape:pageshadow="2"
     inkscape:window-width="699"
     inkscape:window-height="480"
     id="namedview5"
     showgrid="false"
     inkscape:zoom="0.36875005"
     inkscape:cx="319.99996"
     inkscape:cy="319.99996"
     inkscape:window-x="566"
     inkscape:window-y="29"
     inkscape:window-maximized="0"
     inkscape:current-layer="svg2" />
  <path
     id="Selection"
     fill="none"
     stroke="black"
     stroke-width="1"
     d="M 264.26,12.05            C 278.24,11.83 299.08,15.70 312.62,19.57              394.64,42.97 456.30,114.95 462.55,200.55              462.55,200.55 463.62,214.71 463.62,214.71              463.62,214.71 463.62,480.14 463.62,480.14              463.62,485.98 463.84,493.52 456.53,495.08              450.61,496.35 446.12,490.93 442.39,487.22              442.39,487.22 419.98,464.82 419.98,464.82              417.13,462.06 412.47,457.33 408.18,457.52              403.98,457.70 399.23,463.15 396.38,465.99              396.38,465.99 371.61,490.76 371.61,490.76              367.69,494.66 362.47,500.95 356.27,499.64              351.69,498.67 346.57,492.85 343.30,489.58              343.30,489.58 320.88,467.16 320.88,467.16              317.63,463.93 311.67,457.30 306.73,457.52              302.31,457.71 296.78,464.14 293.75,467.16              293.75,467.16 268.98,491.92 268.98,491.92              265.59,495.22 261.08,499.89 256.00,499.89              250.92,499.89 246.41,495.22 243.02,491.92              243.02,491.92 218.25,467.16 218.25,467.16              215.22,464.14 209.69,457.71 205.27,457.52              200.64,457.31 195.35,462.98 192.30,465.99              192.30,465.99 167.52,490.76 167.52,490.76              163.60,494.66 158.39,500.95 152.19,499.64              147.60,498.67 142.49,492.85 139.21,489.58              139.21,489.58 116.80,467.16 116.80,467.16              113.77,464.14 108.24,457.71 103.82,457.52              99.53,457.33 94.87,462.06 92.02,464.82              92.02,464.82 69.61,487.22 69.61,487.22              65.88,490.93 61.39,496.35 55.47,495.08              48.16,493.52 48.38,485.98 48.38,480.14              48.38,480.14 48.38,303.19 48.38,303.19              48.38,267.64 46.07,211.16 52.22,178.14              63.51,117.49 108.23,59.28 163.98,32.91              192.11,19.60 208.19,16.67 238.30,12.05              238.30,12.05 264.26,12.05 264.26,12.05 Z            M 179.32,190.69            C 162.43,202.92 160.59,229.43 176.00,243.65              184.52,251.52 195.20,253.77 206.45,252.11              228.29,248.88 239.76,223.53 231.01,204.09              224.66,189.97 210.93,183.00 195.84,184.38              189.58,185.43 184.57,186.88 179.32,190.69 Z            M 289.14,192.68            C 271.98,208.07 275.34,236.67 294.93,248.36              301.73,252.41 311.97,253.43 319.70,252.08              342.55,248.07 352.96,221.20 342.23,201.73              335.18,188.94 322.15,183.02 307.91,184.39              300.82,185.73 294.64,187.75 289.14,192.68 Z"
     style="fill:#ffffff;fill-opacity:1;stroke:none" />
</svg>
