<?xml version="1.0" encoding="UTF-8" standalone="no"?>
<svg
   xmlns:dc="http://purl.org/dc/elements/1.1/"
   xmlns:cc="http://creativecommons.org/ns#"
   xmlns:rdf="http://www.w3.org/1999/02/22-rdf-syntax-ns#"
   xmlns:svg="http://www.w3.org/2000/svg"
   xmlns="http://www.w3.org/2000/svg"
   xmlns:sodipodi="http://sodipodi.sourceforge.net/DTD/sodipodi-0.dtd"
   xmlns:inkscape="http://www.inkscape.org/namespaces/inkscape"
   width="7.11111in"
   height="7.11111in"
   viewBox="0 0 512 512"
   id="svg2"
   version="1.1"
   inkscape:version="0.91 r13725"
   sodipodi:docname="glasses.svg">
  <metadata
     id="metadata9">
    <rdf:RDF>
      <cc:Work
         rdf:about="">
        <dc:format>image/svg+xml</dc:format>
        <dc:type
           rdf:resource="http://purl.org/dc/dcmitype/StillImage" />
      </cc:Work>
    </rdf:RDF>
  </metadata>
  <defs
     id="defs7" />
  <sodipodi:namedview
     pagecolor="#ffffff"
     bordercolor="#666666"
     borderopacity="1"
     objecttolerance="10"
     gridtolerance="10"
     guidetolerance="10"
     inkscape:pageopacity="0"
     inkscape:pageshadow="2"
     inkscape:window-width="699"
     inkscape:window-height="480"
     id="namedview5"
     showgrid="false"
     inkscape:zoom="0.36875005"
     inkscape:cx="319.99996"
     inkscape:cy="319.99996"
     inkscape:window-x="153"
     inkscape:window-y="266"
     inkscape:window-maximized="0"
     inkscape:current-layer="svg2" />
  <path
     id="Selection"
     fill="none"
     stroke="black"
     stroke-width="1"
     d="M 109.00,166.00            C 130.16,165.76 156.14,168.84 177.00,172.80              177.00,172.80 209.00,179.65 209.00,179.65              209.00,179.65 233.00,184.72 233.00,184.72              244.34,186.25 255.57,186.13 267.00,186.00              288.54,185.74 336.67,173.03 361.00,169.27              377.11,166.79 386.71,165.97 403.00,166.00              413.63,166.02 430.13,169.11 441.00,170.92              441.00,170.92 480.00,180.85 480.00,180.85              484.68,182.06 492.26,182.22 495.26,186.22              498.01,189.88 497.07,204.90 497.00,210.00              496.86,220.13 493.14,218.79 487.53,226.00              483.83,230.75 481.97,236.31 480.29,242.00              473.97,263.47 471.64,286.05 460.69,306.00              444.62,335.26 411.90,347.37 380.00,347.00              358.67,346.75 331.98,338.12 316.00,323.83              306.87,315.67 297.59,302.10 292.32,291.00              292.32,291.00 275.69,244.00 275.69,244.00              272.05,235.97 268.24,231.13 259.00,231.00              255.54,230.96 251.19,230.74 248.10,232.45              244.66,234.36 242.87,238.50 241.45,242.00              241.45,242.00 234.28,267.00 234.28,267.00              227.55,289.59 210.04,318.12 191.00,332.08              177.87,341.70 160.22,346.81 144.00,347.00              123.41,347.24 114.05,347.69 94.00,341.00              80.63,336.54 69.32,330.43 60.53,319.00              56.72,314.05 53.00,304.05 50.60,298.00              50.60,298.00 36.42,254.00 36.42,254.00              36.42,254.00 32.78,239.00 32.78,239.00              29.56,229.27 20.69,223.18 16.91,215.00              12.03,204.41 14.90,193.79 15.00,183.00              36.65,181.18 77.86,166.37 109.00,166.00 Z            M 132.00,182.00            C 132.00,182.00 101.00,184.87 101.00,184.87              82.99,187.37 60.16,190.99 53.60,211.00              52.13,215.48 52.01,219.36 52.00,224.00              51.97,244.99 55.40,266.03 62.00,286.00              65.54,296.72 70.66,307.99 79.04,315.83              90.55,326.58 109.46,331.81 125.00,332.00              139.47,332.17 153.40,331.95 167.00,326.13              195.99,313.72 209.69,289.65 219.33,261.00              222.28,252.25 225.89,242.25 226.00,233.00              226.11,223.64 226.42,217.27 221.04,209.00              216.61,202.20 209.14,197.33 202.00,193.76              191.33,188.42 170.00,183.32 158.00,182.04              158.00,182.04 149.00,182.04 149.00,182.04              145.06,181.64 144.39,181.08 140.00,181.30              136.38,181.80 135.74,181.95 132.00,182.00 Z            M 356.00,182.28            C 334.76,184.83 298.30,193.20 290.75,216.00              288.88,221.64 288.94,225.19 289.00,231.00              289.15,243.69 294.22,256.34 298.80,268.00              303.31,279.49 307.47,289.90 314.92,300.00              328.96,319.02 352.21,331.72 376.00,332.00              393.91,332.21 413.44,331.53 429.00,321.45              443.61,311.99 449.17,298.79 454.02,283.00              459.56,265.01 462.84,246.77 463.91,228.00              464.44,218.61 462.08,207.30 455.53,200.29              444.35,188.32 422.55,185.70 407.00,183.85              407.00,183.85 387.00,182.00 387.00,182.00              387.00,182.00 371.00,181.29 371.00,181.29              371.00,181.29 356.00,182.28 356.00,182.28 Z"
     style="fill:#ffffff;fill-opacity:1;stroke:none" />
</svg>
