<?xml version="1.0" encoding="UTF-8" standalone="no"?>
<svg
   xmlns:dc="http://purl.org/dc/elements/1.1/"
   xmlns:cc="http://creativecommons.org/ns#"
   xmlns:rdf="http://www.w3.org/1999/02/22-rdf-syntax-ns#"
   xmlns:svg="http://www.w3.org/2000/svg"
   xmlns="http://www.w3.org/2000/svg"
   xmlns:sodipodi="http://sodipodi.sourceforge.net/DTD/sodipodi-0.dtd"
   xmlns:inkscape="http://www.inkscape.org/namespaces/inkscape"
   width="11.1111in"
   height="11.1111in"
   viewBox="0 0 800 800"
   id="svg2"
   version="1.1"
   inkscape:version="0.91 r13725"
   sodipodi:docname="group.svg">
  <metadata
     id="metadata9">
    <rdf:RDF>
      <cc:Work
         rdf:about="">
        <dc:format>image/svg+xml</dc:format>
        <dc:type
           rdf:resource="http://purl.org/dc/dcmitype/StillImage" />
      </cc:Work>
    </rdf:RDF>
  </metadata>
  <defs
     id="defs7" />
  <sodipodi:namedview
     pagecolor="#ffffff"
     bordercolor="#666666"
     borderopacity="1"
     objecttolerance="10"
     gridtolerance="10"
     guidetolerance="10"
     inkscape:pageopacity="0"
     inkscape:pageshadow="2"
     inkscape:window-width="699"
     inkscape:window-height="480"
     id="namedview5"
     showgrid="false"
     inkscape:zoom="0.23600023"
     inkscape:cx="499.99951"
     inkscape:cy="499.99951"
     inkscape:window-x="569"
     inkscape:window-y="47"
     inkscape:window-maximized="0"
     inkscape:current-layer="svg2" />
  <path
     id="Selection"
     d="m 201.57304,45.697483 c 11.60103,-0.211738 23.72584,2.841752 34.54678,6.920501 10.8098,4.089894 17.57429,8.302373 26.7459,15.278595 60.75777,46.203541 55.39744,144.884761 -10.02971,184.346101 -23.39152,14.10847 -38.29121,15.28974 -64.63592,14.98885 -9.30535,-0.11144 -21.43015,-3.48811 -30.08914,-6.90936 -43.15005,-17.09508 -66.441268,-57.34766 -68.993272,-102.30306 0,0 1.827636,-18.94501 1.827636,-18.94501 5.806089,-40.575756 33.989576,-74.866226 72.737696,-88.384049 7.29941,-2.540861 13.62927,-3.5104 21.17384,-4.992568 0,0 16.71619,0 16.71619,0 z m 406.76054,0.01114 c 13.50668,-0.222882 29.18646,4.034173 41.23326,10.063144 14.63223,7.310546 25.77636,16.225845 36.44129,28.696121 12.71544,14.855118 20.65006,33.198348 23.82613,52.377388 1.25929,7.58915 2.22883,13.40638 2.13968,21.17383 0,0 -1.76078,15.60178 -1.76078,15.60178 -5.13744,34.65822 -24.53936,63.41006 -55.07426,80.87291 -20.98439,12.01336 -36.86476,13.00519 -60.17827,12.73773 -9.11589,-0.11144 -17.0728,-2.31798 -25.63149,-5.2043 -37.64485,-12.67087 -64.88109,-46.30384 -71.92418,-85.06311 -1.53789,-8.48067 -1.72734,-17.03936 -1.62704,-25.63148 0.45691,-38.60325 25.21916,-76.571281 59.06386,-94.368447 11.11069,-5.839522 23.41381,-8.759282 35.6612,-11.255566 0,0 17.8306,0 17.8306,0 z M 418.88346,203.43142 c 50.79492,8.32466 85.24141,51.64187 89.24215,101.69014 0,0 0.82467,7.80088 0.82467,7.80088 0,0 -0.81352,7.80089 -0.81352,7.80089 -2.96434,40.50889 -24.08246,73.55122 -60.27857,92.61882 -14.76597,7.7786 -33.57725,11.21099 -50.14856,11.02154 -44.40934,-0.52378 -83.49178,-31.31499 -98.41377,-72.43681 -5.95096,-16.42644 -6.5416,-28.5401 -6.341,-45.69091 0.45691,-38.38037 26.34471,-76.39298 60.17827,-93.30976 15.28974,-7.64487 23.893,-8.6144 40.11885,-10.97696 8.56983,-1.0364 17.1508,0.1003 25.63148,1.48217 z M 74.530019,558.09318 c 0,4.10104 1.058692,20.01485 -1.78306,22.26596 -1.771916,1.39302 -6.028971,1.1367 -8.246652,1.1367 0,0 -51.262972,0 -51.262972,0 -9.0824618,-0.16716 -8.9041558,-3.09807 -8.9152999,-11.14412 0,0 0,-128.15743 0,-128.15743 0.022288,-13.30609 1.7384834,-28.59583 5.9398179,-41.23326 3.777859,-11.33358 7.187961,-19.19019 14.297912,-28.97473 5.627783,-7.75631 10.163441,-13.10549 17.652293,-19.16789 34.825389,-28.1612 68.803822,-29.86626 111.441242,-29.86626 0,0 45.69091,0 45.69091,0 0,0 57.94945,0 57.94945,0 3.56612,0 12.14709,-0.15601 14.46507,2.87519 1.21471,1.59361 1.41531,7.07652 1.8165,9.38335 0,0 4.73625,18.94501 4.73625,18.94501 6.84249,19.90341 17.3514,38.60325 32.48512,53.44722 15.74665,15.43462 35.40488,27.48141 56.82389,33.05348 19.19018,5.00371 22.0988,1.47102 22.28825,11.5676 0,0 0,6.68647 0,6.68647 -54.95168,0 -110.50514,-5.21545 -156.01774,32.63 -21.01782,17.48513 -33.16492,36.11811 -41.21097,62.09506 -1.80535,5.86181 -3.09807,11.76819 -4.00074,17.8306 -0.3789,2.51857 -0.40119,6.39673 -2.26226,8.24665 -2.15082,2.13967 -6.53046,1.77192 -9.36107,1.78306 0,0 -65.75033,0 -65.75033,0 -4.6471,0 -18.532679,1.3373 -21.151549,-2.57429 -1.370727,-2.06167 -1.1367,-6.12927 -1.1367,-8.56983 0,0 0,-85.80976 0,-85.80976 0,0 -14.487362,0 -14.487362,0 0,0 0,73.55122 0,73.55122 z M 602.76152,322.95215 c 26.87962,0 70.79862,-1.315 95.83947,2.71917 25.26373,4.06761 54.19387,17.70801 70.83205,37.39968 28.12777,33.2875 27.23624,61.72731 27.23624,102.52595 0,0 0,61.29268 0,61.29268 0,0 0,36.77561 0,36.77561 0,3.37667 0.54606,12.72659 -1.1367,15.25631 -2.05052,3.07578 -6.76448,2.56315 -10.00742,2.57429 0,0 -47.91974,0 -47.91974,0 -9.60623,-0.17831 -7.80089,-2.71917 -7.80089,-22.28825 0,0 0,-74.66563 0,-74.66563 0,0 -15.60177,0 -15.60177,0 0,0 0,73.55122 0,73.55122 0,4.10104 1.05869,20.01485 -1.78306,22.26596 -1.77192,1.39302 -6.02897,1.1367 -8.24665,1.1367 0,0 -80.2377,0 -80.2377,0 -2.83061,-0.0111 -7.21025,0.35661 -9.36106,-1.78306 -1.86107,-1.84992 -1.88336,-5.72808 -2.26226,-8.24665 -0.90267,-6.06241 -2.19539,-11.96879 -4.00074,-17.8306 -8.10178,-26.13297 -20.22659,-44.36476 -41.21097,-62.08392 -44.68794,-37.72286 -101.76815,-32.64114 -156.01774,-32.64114 0,-3.23179 -0.78009,-11.24442 1.78306,-13.3618 1.50445,-1.25929 6.20727,-1.80535 8.24665,-2.15082 0,0 14.48736,-3.33209 14.48736,-3.33209 13.21693,-3.789 26.73475,-10.39747 37.89002,-18.4101 24.06017,-17.26224 41.36699,-41.46728 50.12627,-69.72878 3.26523,-10.56463 3.72214,-17.44056 5.59435,-27.86031 17.01708,-2.23997 54.47249,-1.11442 73.55123,-1.11442 z M 208.25951,588.18232 c 0.0223,-11.97994 2.63002,-24.43907 6.7422,-35.6612 3.47696,-9.48365 7.21025,-16.23699 13.00519,-24.51708 18.19836,-25.97695 50.59433,-42.39225 81.66414,-46.48214 18.33209,-2.41827 37.24367,-1.43759 55.72063,-1.43759 0,0 62.40709,0 62.40709,0 41.07725,0 78.19832,-3.55498 114.78448,19.71395 8.62556,5.49406 15.16716,10.77637 22.24368,18.17607 32.71915,34.21246 27.90488,72.87143 27.90488,115.8989 0,0 0,103.64035 0,103.64035 0,0 -65.75033,0 -65.75033,0 0,0 0,-96.95388 0,-96.95388 0,0 -15.60177,0 -15.60177,0 0,0 0,96.95388 0,96.95388 0,0 -218.42484,0 -218.42484,0 0,0 0,-96.95388 0,-96.95388 0,0 -15.60178,0 -15.60178,0 0,0 0,96.95388 0,96.95388 0,0 -69.09357,0 -69.09357,0 0,0 0,-149.33126 0,-149.33126 z"
     style="fill:#ffffff;fill-opacity:1;stroke:none;stroke-width:1.00000095;stroke-linecap:round;stroke-linejoin:round;stroke-miterlimit:4;stroke-dasharray:none;stroke-opacity:1"
     inkscape:connector-curvature="0" />
</svg>
