<?xml version="1.0" encoding="UTF-8" standalone="no"?>
<svg
   xmlns:dc="http://purl.org/dc/elements/1.1/"
   xmlns:cc="http://creativecommons.org/ns#"
   xmlns:rdf="http://www.w3.org/1999/02/22-rdf-syntax-ns#"
   xmlns:svg="http://www.w3.org/2000/svg"
   xmlns="http://www.w3.org/2000/svg"
   xmlns:sodipodi="http://sodipodi.sourceforge.net/DTD/sodipodi-0.dtd"
   xmlns:inkscape="http://www.inkscape.org/namespaces/inkscape"
   viewBox="0 0 70.199997 78.300003"
   height="78.300003"
   width="70.199997"
   version="1.1"
   id="svg4250"
   inkscape:version="0.91 r13725"
   sodipodi:docname="karim.svg">
  <sodipodi:namedview
     pagecolor="#ffffff"
     bordercolor="#666666"
     borderopacity="1"
     objecttolerance="10"
     gridtolerance="10"
     guidetolerance="10"
     inkscape:pageopacity="0"
     inkscape:pageshadow="2"
     inkscape:window-width="691"
     inkscape:window-height="480"
     id="namedview14"
     showgrid="false"
     inkscape:zoom="3.0140484"
     inkscape:cx="35.099998"
     inkscape:cy="39.150002"
     inkscape:window-x="126"
     inkscape:window-y="33"
     inkscape:window-maximized="0"
     inkscape:current-layer="svg4250" />
  <metadata
     id="metadata4256">
    <rdf:RDF>
      <cc:Work
         rdf:about="">
        <dc:format>image/svg+xml</dc:format>
        <dc:type
           rdf:resource="http://purl.org/dc/dcmitype/StillImage" />
        <dc:title />
      </cc:Work>
    </rdf:RDF>
  </metadata>
  <defs
     id="defs4254" />
  <g
     id="g4835">
    <path
       id="path4849"
       d="M 30.149999,77.967453 C 15.211204,75.814731 2.8610678,63.674948 0.44300293,48.766448 -1.6986974,35.56186 4.3759501,21.786137 15.58652,14.424884 17.115049,13.421198 18.475981,12.6 18.610814,12.6 c 0.134833,0 0.679935,-0.77625 1.211339,-1.725 0.531404,-0.9487496 1.332304,-2.1299997 1.779779,-2.6249997 0.447475,-0.495 1.375048,-1.6738008 2.061272,-2.6195575 2.562588,-3.5317687 6.178682,-5.40008384 10.536795,-5.44401004 2.266493,-0.0228444 2.774723,0.079822 4.571282,0.92343234 2.525634,1.185964 4.964391,3.463432 6.208797,5.7981743 0.888873,1.667697 1.028151,1.7919609 2.008461,1.7919609 1.313907,0 3.444303,1.4091627 4.467189,2.9548477 0.404985,0.611975 1.606788,1.684971 2.670672,2.384435 4.529099,2.977712 8.279381,6.850789 11.008958,11.369431 1.864851,3.087139 3.078897,6.003834 4.096338,9.841287 0.711702,2.684295 0.795408,3.536697 0.795408,8.100001 0,4.563303 -0.08371,5.415705 -0.795408,8.1 -2.824542,10.653225 -9.463161,18.740395 -19.215638,23.408497 -6.129768,2.934063 -13.296564,4.055637 -19.866059,3.108954 z"
       style="fill:#eead6d" />
    <path
       id="path4847"
       d="M 30.149999,77.967453 C 18.657282,76.311321 8.3426522,68.583066 3.3200171,57.86504 -3.6611503,42.967616 0.94846295,25.25839 14.391328,15.331242 15.643488,14.406559 17.17873,13.380001 17.802976,13.05 c 0.770772,-0.407459 1.431885,-1.129486 2.060179,-2.25 0.508852,-0.9074996 1.291302,-2.0549997 1.738777,-2.5499997 0.447475,-0.495 1.375048,-1.6738008 2.061272,-2.6195575 2.570123,-3.5421536 6.196128,-5.41290042 10.536795,-5.43619717 2.242859,-0.0120376 2.793458,0.0994406 4.571282,0.92553387 2.522724,1.1722233 4.959087,3.4435651 6.208797,5.7882599 0.888873,1.667697 1.028151,1.7919609 2.008461,1.7919609 1.366998,0 3.40182,1.3918517 4.617066,3.1581477 0.507474,0.73759 1.287567,1.532902 1.733538,1.76736 1.416648,0.744768 4.043301,2.831766 6.180866,4.910984 5.063577,4.925362 8.46717,11.100056 9.95691,18.063509 0.789765,3.691585 0.743364,10.325974 -0.0977,13.967821 -2.512311,10.878507 -9.403557,19.523428 -19.363166,24.290677 -6.129768,2.934063 -13.296564,4.055637 -19.866059,3.108954 z m 9.895988,-31.54384 c 0.822792,-0.33075 1.970169,-0.955122 2.54973,-1.387488 0.579558,-0.432369 1.188864,-0.886758 1.354011,-1.009758 1.392369,-1.03701 3.353862,-2.964171 4.056654,-3.985644 1.064721,-1.547521 2.093616,-4.544704 2.093616,-6.098737 0,-0.996645 0.111843,-1.20501 0.730083,-1.360179 1.494291,-0.375045 1.86663,-1.46019 2.078838,-6.058607 0.178365,-3.865028 0.146943,-4.282281 -0.367119,-4.875 -0.309198,-0.35651 -0.69417,-0.648199 -0.855495,-0.648199 -0.512985,0 -1.272582,-1.056381 -1.470243,-2.044685 -0.105087,-0.525424 -0.294555,-0.955315 -0.421041,-0.955315 -0.126489,0 -0.313281,-0.331901 -0.415092,-0.737558 -0.212664,-0.847312 -2.575905,-3.462442 -3.128943,-3.462442 -0.2034,0 -0.44436,-0.194251 -0.535464,-0.431668 -0.09111,-0.237418 -0.559371,-0.518144 -1.040586,-0.623837 -0.481215,-0.105693 -0.874938,-0.310325 -0.874938,-0.454738 0,-0.144414 -0.4725,-0.351211 -1.05,-0.459551 -0.5775,-0.10834 -1.05,-0.300648 -1.05,-0.427352 0,-0.126704 -0.97875,-0.39283 -2.175,-0.591392 -1.19625,-0.198561 -2.561205,-0.434888 -3.033237,-0.52517 -0.554787,-0.10611 -0.949086,-0.0178 -1.11519,0.24978 -0.277664,0.44729 -0.39353,35.91007 -0.119658,36.623773 0.205791,0.53628 2.501424,0.183369 4.789074,-0.736233 z M 23.319079,13.220784 c -0.024,-0.318569 -0.144711,-0.516746 -0.268254,-0.440393 -0.123542,0.07635 -0.148574,0.337001 -0.05563,0.579217 0.23437,0.610757 0.375779,0.550145 0.323881,-0.138824 z"
       style="fill:#73a2a2" />
    <path
       id="path4845"
       d="M 31.349999,77.991135 C 19.634595,76.722537 8.7708662,69.041178 3.5862268,58.360358 -1.8931861,47.072279 -0.87196652,33.952846 6.2928735,23.588539 8.9707793,19.714811 13.639273,15.436334 17.788358,13.053414 18.841352,12.448654 19.423928,11.838153 19.9628,10.77474 20.367645,9.9758152 21.091773,8.8746723 21.571972,8.3277558 22.052171,7.7808393 22.991185,6.60654 23.658669,5.7182015 26.35782,2.1259702 30.011234,0.22547866 34.262447,0.20215863 c 2.126831,-0.0116668 2.51747,0.0889086 4.86671,1.25300187 2.76741,1.3713064 4.85538,3.3932987 6.024666,5.8342974 0.528189,1.1026458 0.753657,1.2813897 1.8,1.4269746 1.660584,0.2310489 2.142411,0.5480815 4.384998,2.8852405 1.080993,1.12658 2.909655,2.694825 4.063692,3.48499 4.007867,2.744166 8.333522,7.659148 10.693748,12.150663 5.682444,10.813709 5.355516,23.144079 -0.896577,33.815304 -1.403979,2.396343 -1.404693,2.396985 -1.668639,1.497372 -0.277119,-0.944517 -0.946623,-4.154757 -1.501581,-7.2 -0.338445,-1.857153 -1.203546,-3.535767 -2.395692,-4.648509 -0.935358,-0.873057 -3.11519,-1.801491 -4.229648,-1.801491 -0.505782,0 -2.142372,-0.19764 -3.636864,-0.439203 -1.494495,-0.24156 -3.776289,-0.567288 -5.070657,-0.723837 -2.592957,-0.313608 -2.60079,-0.310929 -7.846605,2.684277 -0.99,0.56526 -2.205,1.2465 -2.7,1.513866 -0.495,0.267366 -0.916875,0.638844 -0.9375,0.825507 -0.02061,0.186666 -0.05437,6.00939 -0.075,12.939391 l -0.0375,12.6 -0.824999,-0.04073 c -0.45375,-0.02241 -1.77,-0.143064 -2.925,-0.268134 z m 8.695988,-31.567522 c 0.822792,-0.33075 1.970169,-0.955122 2.54973,-1.387488 0.579558,-0.432369 1.188864,-0.886758 1.354011,-1.009758 1.392369,-1.03701 3.353862,-2.964171 4.056654,-3.985644 1.064721,-1.547521 2.093616,-4.544704 2.093616,-6.098737 0,-0.996645 0.111843,-1.20501 0.730083,-1.360179 1.494291,-0.375045 1.86663,-1.46019 2.078838,-6.058607 0.178365,-3.865028 0.146943,-4.282281 -0.367119,-4.875 -0.309198,-0.35651 -0.69417,-0.648199 -0.855495,-0.648199 -0.512985,0 -1.272582,-1.056381 -1.470243,-2.044685 -0.105087,-0.525424 -0.294555,-0.955315 -0.421041,-0.955315 -0.126489,0 -0.313281,-0.331901 -0.415092,-0.737558 -0.212664,-0.847312 -2.575905,-3.462442 -3.128943,-3.462442 -0.2034,0 -0.44436,-0.194251 -0.535464,-0.431668 -0.09111,-0.237418 -0.559371,-0.518144 -1.040586,-0.623837 -0.481215,-0.105693 -0.874938,-0.310325 -0.874938,-0.454738 0,-0.144414 -0.4725,-0.351211 -1.05,-0.459551 -0.5775,-0.10834 -1.05,-0.300648 -1.05,-0.427352 0,-0.126704 -0.97875,-0.39283 -2.175,-0.591392 -1.19625,-0.198561 -2.561205,-0.434888 -3.033237,-0.52517 -0.554787,-0.10611 -0.949086,-0.0178 -1.11519,0.24978 -0.277664,0.44729 -0.39353,35.91007 -0.119658,36.623773 0.205791,0.53628 2.501424,0.183369 4.789074,-0.736233 z M 23.319079,13.220784 c -0.024,-0.318569 -0.144711,-0.516746 -0.268254,-0.440393 -0.123542,0.07635 -0.148574,0.337001 -0.05563,0.579217 0.23437,0.610757 0.375779,0.550145 0.323881,-0.138824 z"
       style="fill:#c69059" />
    <path
       id="path4843"
       d="M 31.349999,77.984676 C 12.554864,75.891633 -1.4766924,58.846889 0.29428786,40.259951 0.92368979,33.654202 3.3782042,27.377127 7.3562418,22.200001 c 2.0639759,-2.686114 6.0960652,-6.338607 9.0904192,-8.234614 2.348604,-1.487121 2.913261,-2.000925 3.524442,-3.207033 0.400279,-0.7899125 1.12067,-1.8836817 1.600869,-2.4305982 0.480199,-0.5469165 1.419213,-1.7212158 2.086697,-2.6095543 2.699151,-3.5922313 6.352565,-5.49272284 10.603778,-5.51604287 2.126831,-0.0116668 2.51747,0.0889086 4.86671,1.25300187 2.76741,1.3713064 4.85538,3.3932987 6.024666,5.8342974 0.528189,1.1026458 0.753657,1.2813897 1.8,1.4269746 1.662822,0.23136 2.249856,0.6117541 4.101177,2.6575295 0.888567,0.981899 2.464305,2.352029 3.501636,3.044734 2.42058,1.616401 6.549425,5.524912 8.308814,7.865413 4.102095,5.456995 6.315276,11.10948 7.090005,18.107935 0.743571,6.717012 -1.25178,15.079725 -5.000589,20.957958 -1.117539,1.752333 -1.346439,1.975833 -1.38261,1.35 -0.02385,-0.4125 -0.02142,-0.91875 0.0053,-1.125 0.02679,-0.20625 -0.05847,-0.375 -0.189453,-0.375 -0.130983,0 -0.259383,-0.37125 -0.28533,-0.825 -0.09907,-1.732323 -0.489189,-3.657033 -0.713184,-3.518595 -0.128526,0.07943 -0.162783,-0.126699 -0.07613,-0.458073 0.08666,-0.331371 0.01755,-0.97281 -0.153591,-1.425414 -0.171132,-0.452604 -0.384633,-1.164039 -0.474444,-1.580964 -0.233721,-1.084956 -2.071491,-3.119838 -3.481274,-3.854658 -0.705351,-0.36765 -1.884537,-0.656523 -2.843802,-0.696663 -0.908388,-0.03801 -1.476471,-0.171726 -1.274595,-0.300012 0.214422,-0.136257 -0.06761,-0.245934 -0.685803,-0.266697 -2.564514,-0.08612 -4.442202,-0.288258 -5.612823,-0.604227 -0.694551,-0.18747 -1.572051,-0.265281 -1.95,-0.172917 -0.979944,0.239487 -1.667382,-0.3996 -1.994139,-1.85388 -0.26187,-1.1655 -0.226107,-1.298847 0.47643,-1.776492 1.309407,-0.89025 3.809007,-3.554217 4.323084,-4.607361 1.21209,-2.483101 1.457448,-3.304537 1.457448,-4.879387 0,-1.46664 0.07436,-1.679661 0.586365,-1.679661 0.3225,0 0.93,-0.343635 1.35,-0.763635 0.591621,-0.591615 0.763641,-1.06734 0.763641,-2.111825 0,-0.741504 0.141714,-2.619089 0.314919,-4.172411 0.355239,-3.185802 0.01413,-4.429203 -1.305975,-4.760528 -0.477732,-0.119904 -0.887601,-0.600336 -1.245684,-1.460152 -1.429212,-3.431742 -2.892525,-5.253196 -5.169615,-6.434854 -0.579318,-0.300627 -1.546134,-0.800331 -2.148477,-1.110452 -0.602343,-0.31012 -2.040168,-0.829247 -3.195168,-1.153615 -1.971543,-0.553684 -3.08859,-0.58295 -6.670652,-0.174765 -0.203859,0.02323 -0.449208,0.289736 -0.545217,0.592237 C 32.73812,11.4525 32.544389,11.7 32.40362,11.7 c -0.140772,0 -0.344562,0.403452 -0.452865,0.89656 -0.108306,0.493108 -0.321531,0.973575 -0.473838,1.067705 -0.152304,0.09413 -0.276918,0.35689 -0.276918,0.583911 0,0.22702 -0.137238,0.773726 -0.304971,1.214902 -0.241365,0.634834 -0.39084,0.730872 -0.71667,0.460458 -0.345113,-0.286418 -1.116393,-2.496908 -1.203257,-3.448536 -0.05509,-0.603565 -0.702978,-0.444011 -1.394694,0.34347 -1.05519,1.201278 -1.611915,2.142377 -2.22355,3.758739 -0.674706,1.783037 -1.074539,1.537479 -1.63893,-1.006547 -0.307768,-1.387285 -0.33132,-2.083679 -0.09192,-2.717925 C 23.885148,12.166198 23.865255,12 23.52394,12 c -0.233168,0 -0.423941,0.126669 -0.423941,0.281485 0,0.154817 -0.389536,0.707972 -0.865636,1.229234 -1.285519,1.407464 -2.564259,4.138235 -2.734364,5.839282 -0.129048,1.290479 -0.247835,1.513856 -0.850418,1.599196 -1.305096,0.184833 -1.576573,1.558553 -1.235377,6.251216 0.281694,3.874302 0.352047,4.194369 1.060482,4.824588 0.417324,0.37125 0.945471,0.675 1.17366,0.675 0.26956,0 0.478271,0.499155 0.595833,1.425 0.34373,2.706996 0.766882,4.029183 1.800222,5.625001 0.753476,1.163616 2.768233,3.20184 3.863675,3.908676 0.793747,0.512166 0.844179,0.655077 0.672691,1.906221 -0.101963,0.743901 -0.319301,1.435311 -0.482973,1.536465 -0.163673,0.101157 0.546117,0.636591 1.577309,1.189854 1.031193,0.553263 2.279896,1.245555 2.774896,1.538424 0.495,0.292866 1.46622,0.819405 2.158266,1.170084 0.692046,0.350679 1.569546,0.882384 1.95,1.181565 l 0.691733,0.543966 -0.08134,12.787372 -0.08134,12.787374 -0.818661,-0.04073 c -0.450264,-0.02241 -1.763661,-0.145971 -2.918661,-0.274593 z"
       style="fill:#d25747" />
    <path
       id="path4841"
       d="M 31.349999,77.984676 C 18.781772,76.585068 7.3314018,67.94733 2.7368915,56.400002 c -2.00377004,-5.036049 -2.26481191,-6.515376 -2.27633413,-12.9 -0.008605,-4.768144 0.0923084,-6.237196 0.54567643,-7.94371 1.2458769,-4.689579 2.7850274,-8.13034 5.3600803,-11.982423 1.8865808,-2.822181 6.8707999,-7.571735 10.0823749,-9.60768 2.345383,-1.486832 2.911628,-2.002507 3.522414,-3.207835 0.400279,-0.7899125 1.12067,-1.8836817 1.600869,-2.4305982 0.480199,-0.5469165 1.419213,-1.7212158 2.086697,-2.6095543 2.699151,-3.5922313 6.352565,-5.49272284 10.603778,-5.51604287 2.126831,-0.0116668 2.51747,0.0889086 4.86671,1.25300187 2.76741,1.3713064 4.85538,3.3932987 6.024666,5.8342974 0.528189,1.1026458 0.753657,1.2813897 1.8,1.4269746 0.657897,0.091538 1.486296,0.3252432 1.840887,0.5193457 0.744174,0.4073583 4.005288,3.9353378 4.005288,4.3330518 0,0.146619 0.112146,0.19727 0.249216,0.112557 0.137067,-0.08471 0.279243,0.588195 0.315945,1.49535 0.06479,1.601606 -0.671283,4.023264 -1.222896,4.023264 -0.133245,0 -0.242265,0.188056 -0.242265,0.417903 0,0.229847 -0.206055,0.496974 -0.457899,0.593615 -0.321591,0.123407 -0.601686,-0.157272 -0.940935,-0.942903 -1.456653,-3.373306 -2.872824,-5.112361 -5.107521,-6.27202 -0.579318,-0.300627 -1.546134,-0.800331 -2.148477,-1.110452 -0.602343,-0.31012 -2.040168,-0.829247 -3.195168,-1.153615 -1.971543,-0.553684 -3.08859,-0.58295 -6.670652,-0.174765 -0.203859,0.02323 -0.449208,0.289736 -0.545217,0.592237 C 32.73812,11.4525 32.544389,11.7 32.40362,11.7 c -0.140772,0 -0.344562,0.403452 -0.452865,0.89656 -0.108306,0.493108 -0.321531,0.973575 -0.473838,1.067705 -0.152304,0.09413 -0.276918,0.35689 -0.276918,0.583911 0,0.22702 -0.137238,0.773726 -0.304971,1.214902 -0.241365,0.634834 -0.39084,0.730872 -0.71667,0.460458 -0.345113,-0.286418 -1.116393,-2.496908 -1.203257,-3.448536 -0.05509,-0.603565 -0.702978,-0.444011 -1.394694,0.34347 -1.05519,1.201278 -1.611915,2.142377 -2.22355,3.758739 -0.674706,1.783037 -1.074539,1.537479 -1.63893,-1.006547 -0.307768,-1.387285 -0.33132,-2.083679 -0.09192,-2.717925 C 23.885148,12.166198 23.865255,12 23.52394,12 c -0.233168,0 -0.423941,0.126669 -0.423941,0.281485 0,0.154817 -0.377153,0.694414 -0.838118,1.199106 -1.203528,1.317694 -2.90774,4.785332 -2.936016,5.974045 -0.01607,0.675773 -0.216438,1.118031 -0.6,1.324368 -1.461957,0.786458 -1.706235,1.361755 -1.652239,3.891179 0.09131,4.277382 0.531731,6.804918 1.296969,7.443183 0.373672,0.31167 0.923622,0.571164 1.222109,0.576654 0.298488,0.0055 0.48123,0.111231 0.406093,0.234981 -0.273275,0.450081 0.625678,4.16652 1.396889,5.775 0.806853,1.682818 2.619837,3.900001 3.189018,3.900001 0.173412,0 0.315295,0.127368 0.315295,0.283038 0,0.155673 0.405,0.522279 0.9,0.814683 0.999491,0.590415 1.100751,1.141083 0.482098,2.62173 l -0.417902,1.000182 1.842902,0.988758 c 1.013596,0.543819 2.247902,1.22838 2.742902,1.521249 0.495,0.292866 1.46622,0.819405 2.158266,1.170084 0.692046,0.350679 1.569546,0.882384 1.95,1.181565 l 0.691733,0.543966 -0.08134,12.787372 -0.08134,12.787374 -0.818661,-0.04073 c -0.450264,-0.02241 -1.763661,-0.145971 -2.918661,-0.274593 z"
       style="fill:#608687" />
    <path
       id="path4839"
       d="M 5.0144869,60.961037 C 3.4523213,58.360022 2.1687131,55.295471 1.1563823,51.750002 0.55047781,49.627955 0.46989208,48.672494 0.46055737,43.500002 0.44928247,37.252411 0.63317268,36.050659 2.3187694,31.356292 4.7204146,24.667738 10.019775,18.140666 16.421448,13.986426 c 2.461278,-1.597199 3.10055,-2.170924 3.608752,-3.238735 0.339684,-0.71373 1.203101,-1.9862681 1.918703,-2.8278629 0.715603,-0.8415948 1.691004,-2.0565949 2.167557,-2.7000001 2.286891,-3.0875778 6.06308,-4.89864466 10.242002,-4.91208298 2.126006,-0.006837 2.65571,0.11074447 4.516682,1.00259128 2.518137,1.206785 5.203353,3.7864401 6.171708,5.9290831 0.615723,1.3623918 0.734151,1.4605809 1.761612,1.4605809 1.384884,0 3.031545,1.1530228 4.870272,3.4102537 0.743424,0.912631 1.411758,1.599251 1.485186,1.525824 0.07343,-0.07343 0.163758,0.614291 0.200736,1.528264 0.06528,1.613562 -0.66837,4.035659 -1.222395,4.035659 -0.133245,0 -0.242265,0.188056 -0.242265,0.417903 0,0.229847 -0.206055,0.496974 -0.457899,0.593615 -0.321591,0.123407 -0.601686,-0.157272 -0.940935,-0.942903 -1.456653,-3.373306 -2.872824,-5.112361 -5.107521,-6.27202 -0.579318,-0.300627 -1.546134,-0.800331 -2.148477,-1.110452 -0.602343,-0.31012 -2.040168,-0.829247 -3.195168,-1.153615 -1.971543,-0.553684 -3.08859,-0.58295 -6.670652,-0.174765 -0.203859,0.02323 -0.449208,0.289736 -0.545217,0.592237 C 32.73812,11.4525 32.544389,11.7 32.40362,11.7 c -0.140772,0 -0.344562,0.403452 -0.452865,0.89656 -0.108306,0.493108 -0.321531,0.973575 -0.473838,1.067705 -0.152304,0.09413 -0.276918,0.35689 -0.276918,0.583911 0,0.22702 -0.137238,0.773726 -0.304971,1.214902 -0.241365,0.634834 -0.39084,0.730872 -0.71667,0.460458 -0.345113,-0.286418 -1.116393,-2.496908 -1.203257,-3.448536 -0.05509,-0.603565 -0.702978,-0.444011 -1.394694,0.34347 -1.05519,1.201278 -1.611915,2.142377 -2.22355,3.758739 -0.674706,1.783037 -1.074539,1.537479 -1.63893,-1.006547 -0.307768,-1.387285 -0.33132,-2.083679 -0.09192,-2.717925 C 23.885148,12.166198 23.865255,12 23.52394,12 c -0.233168,0 -0.423941,0.126669 -0.423941,0.281485 0,0.154817 -0.377153,0.694414 -0.838118,1.199106 -1.203528,1.317694 -2.90774,4.785332 -2.936016,5.974045 -0.01607,0.675773 -0.216438,1.118031 -0.6,1.324368 -1.461957,0.786458 -1.706235,1.361755 -1.652239,3.891179 0.09131,4.277382 0.531731,6.804918 1.296969,7.443183 0.373672,0.31167 0.923622,0.571164 1.222109,0.576654 0.298488,0.0055 0.48123,0.111231 0.406093,0.234981 -0.273275,0.450081 0.625678,4.16652 1.396889,5.775 0.806853,1.682818 2.619837,3.900001 3.189018,3.900001 0.173412,0 0.315295,0.127368 0.315295,0.283038 0,0.155673 0.405,0.522279 0.9,0.814683 0.998113,0.589599 1.100634,1.141365 0.485583,2.61339 -0.393563,0.941928 -0.52566,1.008357 -2.625,1.320021 -5.641535,0.83754 -8.855279,1.274601 -9.352042,1.271859 -1.07183,-0.0059 -3.174121,1.211418 -4.237501,2.453739 -1.1349634,1.325949 -1.7862523,3.07131 -2.2737324,6.09327 -0.1596993,0.99 -0.4269249,2.271609 -0.5938347,2.84802 -0.1669098,0.576411 -0.3034722,1.412193 -0.3034722,1.857294 0,1.454802 -0.4752837,1.153761 -1.8855128,-1.194279 z"
       style="fill:#b0473a" />
    <path
       id="path4837"
       d="M 50.541844,18.975001 C 49.112134,15.667554 48.7036,15.1505 46.161799,13.431463 42.653626,11.05886 39.994654,10.2 36.157414,10.2 c -2.324912,0 -2.845598,0.0897 -3.274994,0.564176 -0.660231,0.729547 -1.679379,2.730614 -1.693053,3.324257 -0.0059,0.253862 -0.185403,0.776636 -0.399015,1.16172 l -0.388386,0.700153 -0.500984,-0.764598 c -0.275541,-0.420529 -0.502827,-1.005597 -0.50508,-1.300153 -0.02256,-2.949453 -1.787582,-2.301492 -3.553891,1.304677 -0.474066,0.967873 -0.924835,1.961909 -1.001709,2.20897 -0.332018,1.067054 -0.964896,-1.126525 -0.973504,-3.374201 C 23.861901,12.74625 23.827379,11.7 23.790084,11.7 c -0.390077,0 -2.567983,2.795532 -3.390382,4.351851 L 19.349999,18.03832 18.941711,17.04416 C 18.405763,15.739158 18.65935,12.892845 19.410007,11.787907 19.723092,11.327058 20.127831,10.6125 20.309427,10.2 20.491022,9.7875004 21.22694,8.7614229 21.9448,7.9198281 22.662659,7.0782333 23.639907,5.8632332 24.11646,5.219828 26.403351,2.1322502 30.17954,0.32118334 34.358462,0.30774502 c 2.126006,-0.006837 2.65571,0.11074447 4.516682,1.00259128 2.518137,1.206785 5.203353,3.7864401 6.171708,5.9290831 0.615723,1.3623918 0.734151,1.4605809 1.761612,1.4605809 1.359309,0 2.940441,1.0890715 4.792269,3.3008787 1.311522,1.566469 1.334388,1.631211 1.315986,3.726105 -0.01515,1.724813 -0.156981,2.34521 -0.742722,3.248763 -0.398199,0.614255 -0.818916,1.118498 -0.934923,1.12054 -0.11601,0.002 -0.429762,-0.502536 -0.69723,-1.121286 z"
       style="fill:#292928" />
  </g>
</svg>
