<?xml version="1.0" encoding="UTF-8" standalone="no"?>
<svg
   xmlns:dc="http://purl.org/dc/elements/1.1/"
   xmlns:cc="http://creativecommons.org/ns#"
   xmlns:rdf="http://www.w3.org/1999/02/22-rdf-syntax-ns#"
   xmlns:svg="http://www.w3.org/2000/svg"
   xmlns="http://www.w3.org/2000/svg"
   xmlns:sodipodi="http://sodipodi.sourceforge.net/DTD/sodipodi-0.dtd"
   xmlns:inkscape="http://www.inkscape.org/namespaces/inkscape"
   width="11.1111in"
   height="11.1111in"
   viewBox="0 0 800 800"
   id="svg2"
   version="1.1"
   inkscape:version="0.91 r13725"
   sodipodi:docname="location.svg">
  <metadata
     id="metadata9">
    <rdf:RDF>
      <cc:Work
         rdf:about="">
        <dc:format>image/svg+xml</dc:format>
        <dc:type
           rdf:resource="http://purl.org/dc/dcmitype/StillImage" />
      </cc:Work>
    </rdf:RDF>
  </metadata>
  <defs
     id="defs7" />
  <sodipodi:namedview
     pagecolor="#ffffff"
     bordercolor="#666666"
     borderopacity="1"
     objecttolerance="10"
     gridtolerance="10"
     guidetolerance="10"
     inkscape:pageopacity="0"
     inkscape:pageshadow="2"
     inkscape:window-width="1124"
     inkscape:window-height="493"
     id="namedview5"
     showgrid="false"
     inkscape:zoom="0.66750946"
     inkscape:cx="653.32289"
     inkscape:cy="878.17305"
     inkscape:window-x="91"
     inkscape:window-y="7"
     inkscape:window-maximized="0"
     inkscape:current-layer="svg2" />
  <path
     style="fill:#000000;fill-opacity:1;stroke:none"
     d="m 393.26878,1.5831289 -14.19675,1.2311128 -9.46449,0 C 310.89219,8.5639233 250.14219,36.129341 208.91249,78.589405 187.4281,100.71267 174.73343,119.74746 161.09272,147.09984 c -13.9483,27.9794 -24.50122,69.22103 -24.54854,100.56033 -0.0474,29.93146 -0.11795,55.56848 6.41257,85.18052 17.72225,80.35355 67.3873,155.76211 115.58523,221.23274 l 57.05874,75.71599 27.29363,35.49189 29.18467,33.12575 c 8.31693,8.93213 17.35665,17.46202 24.73896,27.21045 l 2.36612,0 18.6092,-22.4782 36.7452,-43.77331 36.77107,-48.50557 c 41.14689,-54.84674 77.85628,-107.55229 110.54427,-167.9949 27.71913,-51.26208 50.64691,-108.34495 56.37293,-166.81185 l 0,-9.46451 1.23113,-14.19675 0,-5.91531 -1.0777,-11.83062 C 654.39328,177.64657 633.00421,134.5475 594.48372,92.67895 L 573.09432,70.402252 C 530.42129,31.810789 477.7749,8.4337974 420.47923,2.8142417 l -9.4645,0 -11.83063,-1.2311128 -5.91532,0 z m -10.64755,139.7677611 20.11205,0 c 14.27957,0 33.35056,5.0857 46.13945,11.37959 17.47383,8.58903 33.22005,20.38492 45.34643,35.77655 39.95199,50.71785 37.21948,126.63508 -8.67148,172.72716 -11.67681,11.72414 -20.57347,18.50201 -35.49189,25.71869 -21.62636,10.47009 -37.94084,12.41142 -61.51926,12.13932 -8.02116,-0.0946 -18.20734,-2.29477 -26.02737,-4.29415 -72.04846,-18.45576 -108.71161,-97.34284 -86.65935,-166.06688 12.99001,-40.48437 45.7964,-71.9661 86.65935,-83.48911 7.06288,-1.99938 12.95454,-2.67261 20.11207,-3.89117 z m 116.08802,512.50278 c -0.89376,0.008 -1.7195,0.11049 -2.40864,0.35307 -3.57285,1.24222 -7.15679,6.8747 -9.41644,9.8915 l -17.89936,23.66126 c 18.90531,2.50809 44.24656,7.44073 61.51925,15.21345 6.04544,2.73288 17.15366,9.72553 18.28942,16.72925 1.02926,6.3412 -7.64186,13.07246 -12.3741,16.00647 -12.49314,7.74904 -36.17808,13.35566 -50.8717,15.8401 -34.02485,5.73784 -66.14507,7.25365 -100.56033,7.1945 l -23.66125,-1.18306 c -15.29699,-0.17747 -43.76151,-4.49565 -59.15315,-7.57161 -12.71791,-2.54359 -33.12576,-7.93835 -43.77331,-15.02489 -4.1289,-2.75654 -11.29825,-8.67186 -11.29825,-14.07844 0,-6.79079 10.56475,-14.03187 16.03049,-16.78841 12.54046,-6.32938 29.94333,-10.35106 43.77332,-13.02479 l 16.56289,-3.31257 c -3.75031,-7.01555 -13.43997,-17.81693 -18.77558,-24.84432 -2.11768,-2.79202 -5.02838,-7.51355 -8.54208,-8.41268 -4.2472,-1.10024 -24.42951,5.15778 -29.46936,6.83773 -30.22722,10.06786 -64.14638,30.51271 -57.4266,67.82647 6.73162,37.34924 51.01443,51.61703 83.45398,58.20668 62.24089,12.6351 148.3443,12.6351 210.58517,0 26.9738,-5.47757 62.74929,-16.68121 77.52573,-41.6438 2.5909,-4.37734 4.62577,-10.39914 5.6787,-15.37982 1.60897,-7.57159 0.97012,-16.27896 -1.24221,-23.66125 C 577.55411,681.01608 552.8521,669.1721 529.321,661.34023 l -22.47819,-6.21107 c -2.14727,-0.47028 -5.45225,-1.29934 -8.13356,-1.27549 z"
     id="Selection"
     inkscape:connector-curvature="0" />
</svg>
