<?xml version="1.0" encoding="UTF-8" standalone="no"?>
<svg
   xmlns:dc="http://purl.org/dc/elements/1.1/"
   xmlns:cc="http://creativecommons.org/ns#"
   xmlns:rdf="http://www.w3.org/1999/02/22-rdf-syntax-ns#"
   xmlns:svg="http://www.w3.org/2000/svg"
   xmlns="http://www.w3.org/2000/svg"
   xmlns:sodipodi="http://sodipodi.sourceforge.net/DTD/sodipodi-0.dtd"
   xmlns:inkscape="http://www.inkscape.org/namespaces/inkscape"
   width="11.1111in"
   height="11.1111in"
   viewBox="0 0 800 800"
   id="svg2"
   version="1.1"
   inkscape:version="0.91 r13725"
   sodipodi:docname="location.svg">
  <metadata
     id="metadata9">
    <rdf:RDF>
      <cc:Work
         rdf:about="">
        <dc:format>image/svg+xml</dc:format>
        <dc:type
           rdf:resource="http://purl.org/dc/dcmitype/StillImage" />
      </cc:Work>
    </rdf:RDF>
  </metadata>
  <defs
     id="defs7" />
  <sodipodi:namedview
     pagecolor="#ffffff"
     bordercolor="#666666"
     borderopacity="1"
     objecttolerance="10"
     gridtolerance="10"
     guidetolerance="10"
     inkscape:pageopacity="0"
     inkscape:pageshadow="2"
     inkscape:window-width="699"
     inkscape:window-height="480"
     id="namedview5"
     showgrid="false"
     inkscape:zoom="0.23600023"
     inkscape:cx="499.99951"
     inkscape:cy="499.99951"
     inkscape:window-x="0"
     inkscape:window-y="0"
     inkscape:window-maximized="0"
     inkscape:current-layer="svg2" />
  <path
     id="Selection"
     fill="none"
     stroke="black"
     stroke-width="1"
     d="M 376.09,619.00            C 376.09,619.00 351.42,591.00 351.42,591.00              351.42,591.00 328.35,561.00 328.35,561.00              328.35,561.00 280.12,497.00 280.12,497.00              239.38,441.66 197.40,377.92 182.42,310.00              176.90,284.97 176.96,263.30 177.00,238.00              177.04,211.51 185.96,176.65 197.75,153.00              209.28,129.88 220.01,113.79 238.17,95.09              273.02,59.20 324.37,35.90 374.00,31.04              374.00,31.04 382.00,31.04 382.00,31.04              382.00,31.04 394.00,30.00 394.00,30.00              394.00,30.00 399.00,30.00 399.00,30.00              399.00,30.00 409.00,31.04 409.00,31.04              409.00,31.04 417.00,31.04 417.00,31.04              465.43,35.79 509.93,55.55 546.00,88.17              546.00,88.17 564.08,107.00 564.08,107.00              596.64,142.39 614.72,178.82 618.09,227.00              618.09,227.00 619.00,237.00 619.00,237.00              619.00,237.00 619.00,242.00 619.00,242.00              619.00,242.00 617.96,254.00 617.96,254.00              617.96,254.00 617.96,262.00 617.96,262.00              613.12,311.42 593.74,359.67 570.31,403.00              542.68,454.09 511.65,498.64 476.87,545.00              476.87,545.00 445.79,586.00 445.79,586.00              445.79,586.00 414.73,623.00 414.73,623.00              414.73,623.00 399.00,642.00 399.00,642.00              399.00,642.00 397.00,642.00 397.00,642.00              390.76,633.76 383.12,626.55 376.09,619.00 Z            M 368.00,151.43            C 333.46,161.17 305.73,187.78 294.75,222.00              276.11,280.09 307.10,346.77 368.00,362.37              374.61,364.06 383.22,365.92 390.00,366.00              409.93,366.23 423.72,364.59 442.00,355.74              454.61,349.64 462.13,343.91 472.00,334.00              510.79,295.04 513.10,230.87 479.33,188.00              469.08,174.99 455.77,165.02 441.00,157.76              430.19,152.44 414.07,148.14 402.00,148.14              402.00,148.14 385.00,148.14 385.00,148.14              378.95,149.17 373.97,149.74 368.00,151.43 Z            M 654.28,702.00            C 654.28,702.00 628.60,657.00 628.60,657.00              628.60,657.00 600.63,608.00 600.63,608.00              596.71,600.84 590.40,592.12 590.04,584.00              588.97,559.55 617.35,551.54 630.82,566.04              635.71,571.32 648.87,596.02 653.60,604.00              653.60,604.00 706.20,696.00 706.20,696.00              706.20,696.00 723.92,727.00 723.92,727.00              728.97,736.28 732.25,738.94 731.99,750.00              731.54,768.25 716.46,772.98 701.00,773.00              701.00,773.00 99.00,773.00 99.00,773.00              93.78,772.99 85.74,772.39 81.00,770.25              69.84,765.19 65.25,752.38 68.79,741.00              70.25,736.31 79.97,720.17 82.99,715.00              82.99,715.00 108.15,671.00 108.15,671.00              108.15,671.00 148.15,601.00 148.15,601.00              148.15,601.00 168.19,567.02 168.19,567.02              183.34,550.07 210.97,560.88 209.96,584.00              209.63,591.50 205.66,596.76 202.01,603.00              202.01,603.00 188.86,626.00 188.86,626.00              188.86,626.00 155.99,684.00 155.99,684.00              155.99,684.00 133.00,725.00 133.00,725.00              133.00,725.00 667.00,725.00 667.00,725.00              667.00,725.00 654.28,702.00 654.28,702.00 Z            M 473.13,590.00            C 475.04,587.45 478.07,582.69 481.09,581.64              483.42,580.82 487.58,581.89 490.00,582.42              490.00,582.42 509.00,587.67 509.00,587.67              528.89,594.29 549.77,604.30 556.28,626.00              558.15,632.24 558.69,639.60 557.33,646.00              556.44,650.21 554.72,655.30 552.53,659.00              540.04,680.10 509.80,689.57 487.00,694.20              434.39,704.88 361.61,704.88 309.00,694.20              281.58,688.63 244.15,676.57 238.46,645.00              232.78,613.46 261.45,596.18 287.00,587.67              291.26,586.25 308.32,580.96 311.91,581.89              314.88,582.65 317.34,586.64 319.13,589.00              323.64,594.94 331.83,604.07 335.00,610.00              335.00,610.00 321.00,612.80 321.00,612.80              309.31,615.06 294.60,618.46 284.00,623.81              279.38,626.14 270.45,632.26 270.45,638.00              270.45,642.57 276.51,647.57 280.00,649.90              289.00,655.89 306.25,660.45 317.00,662.60              330.01,665.20 354.07,668.85 367.00,669.00              367.00,669.00 387.00,670.00 387.00,670.00              416.09,670.05 443.24,668.77 472.00,663.92              484.42,661.82 504.44,657.08 515.00,650.53              519.00,648.05 526.33,642.36 525.46,637.00              524.50,631.08 515.11,625.17 510.00,622.86              495.40,616.29 473.98,612.12 458.00,610.00              458.00,610.00 473.13,590.00 473.13,590.00 Z"
     style="fill:#ffffff;fill-opacity:1;stroke:none" />
</svg>
