<?xml version="1.0" encoding="UTF-8" standalone="no"?>
<svg
   xmlns:dc="http://purl.org/dc/elements/1.1/"
   xmlns:cc="http://creativecommons.org/ns#"
   xmlns:rdf="http://www.w3.org/1999/02/22-rdf-syntax-ns#"
   xmlns:svg="http://www.w3.org/2000/svg"
   xmlns="http://www.w3.org/2000/svg"
   xmlns:sodipodi="http://sodipodi.sourceforge.net/DTD/sodipodi-0.dtd"
   xmlns:inkscape="http://www.inkscape.org/namespaces/inkscape"
   width="1.84722in"
   height="1.84722in"
   viewBox="0 0 133 133"
   id="svg2"
   version="1.1"
   inkscape:version="0.91 r13725"
   sodipodi:docname="magnet.svg">
  <metadata
     id="metadata9">
    <rdf:RDF>
      <cc:Work
         rdf:about="">
        <dc:format>image/svg+xml</dc:format>
        <dc:type
           rdf:resource="http://purl.org/dc/dcmitype/StillImage" />
      </cc:Work>
    </rdf:RDF>
  </metadata>
  <defs
     id="defs7">
    <inkscape:path-effect
       is_visible="true"
       id="path-effect4161"
       effect="spiro" />
    <inkscape:path-effect
       effect="spiro"
       id="path-effect4157"
       is_visible="true" />
    <inkscape:path-effect
       effect="spiro"
       id="path-effect4153"
       is_visible="true" />
  </defs>
  <sodipodi:namedview
     pagecolor="#ffffff"
     bordercolor="#666666"
     borderopacity="1"
     objecttolerance="10"
     gridtolerance="10"
     guidetolerance="10"
     inkscape:pageopacity="0"
     inkscape:pageshadow="2"
     inkscape:window-width="1003"
     inkscape:window-height="584"
     id="namedview5"
     showgrid="false"
     inkscape:zoom="1.4195506"
     inkscape:cx="83.662537"
     inkscape:cy="27.883013"
     inkscape:window-x="120"
     inkscape:window-y="26"
     inkscape:window-maximized="0"
     inkscape:current-layer="svg2" />
  <path
     style="fill:#ffffff;fill-rule:evenodd;stroke:none;stroke-width:0.80000097px;stroke-linecap:butt;stroke-linejoin:miter;stroke-opacity:1"
     d="M 5.2304688 106.97266 L 8.46875 128.14453 L 14.695312 148.06836 L 22.166016 154.16992 L 44.083984 154.79297 L 49.314453 148.31836 L 43.087891 107.9707 L 5.7285156 107.9707 L 5.2304688 106.97266 z M 162.13867 106.97266 L 161.64062 107.9707 L 124.28125 107.9707 L 118.05469 148.31836 L 123.28516 154.79297 L 145.20312 154.16992 L 152.67578 148.06836 L 158.90234 128.14453 L 162.13867 106.97266 z "
     transform="scale(0.80000099,0.80000099)"
     id="path4159" />
  <path
     id="Selection"
     fill="none"
     stroke="black"
     stroke-width="1"
     d="M 124.63,42.00            C 130.29,53.15 132.14,66.63 132.00,79.00              131.89,88.49 129.30,104.14 125.94,113.00              124.62,116.47 122.24,122.13 118.90,123.98              116.51,125.30 111.77,125.03 109.00,125.00              105.49,124.96 95.13,124.63 93.17,121.69              90.48,117.62 94.50,103.90 95.58,99.00              98.84,84.13 99.81,62.47 84.00,54.05              80.99,52.44 76.40,51.54 73.00,51.17              67.45,50.55 63.56,50.37 58.00,51.17              34.47,54.55 34.45,79.81 38.00,98.00              38.94,102.79 41.51,113.61 40.65,118.00              38.94,126.73 28.67,125.35 22.00,124.42              20.44,124.21 17.34,123.93 16.02,123.41              10.48,121.24 8.46,114.22 7.13,109.00              3.25,93.79 2.93,87.49 3.00,72.00              3.05,61.66 5.64,51.23 10.25,42.00              20.86,20.77 36.20,11.87 59.00,8.42              84.66,5.29 112.79,18.66 124.63,42.00 Z            M 8.89,106.00            C 9.70,109.20 11.23,114.12 12.82,116.96              16.25,123.06 20.86,122.03 27.00,122.00              30.00,121.99 34.87,122.26 36.83,119.52              39.27,116.07 36.12,101.63 35.42,97.00              35.11,94.95 34.96,91.36 33.26,89.99              31.71,88.74 27.95,89.00 26.00,89.00              26.00,89.00 6.00,89.00 6.00,89.00              6.41,94.02 7.66,101.10 8.89,106.00 Z            M 99.00,89.00            C 99.00,89.00 95.17,114.00 95.17,114.00              94.34,124.60 105.69,122.12 113.00,122.00              120.15,121.88 120.31,119.27 122.80,113.00              126.98,102.43 126.52,98.85 129.00,89.00              129.00,89.00 99.00,89.00 99.00,89.00 Z"
     style="fill:#000000;fill-opacity:1;stroke:#000000;opacity:1;stroke-opacity:1" />
</svg>
