<?xml version="1.0" encoding="UTF-8" standalone="no"?>
<svg
   xmlns:dc="http://purl.org/dc/elements/1.1/"
   xmlns:cc="http://creativecommons.org/ns#"
   xmlns:rdf="http://www.w3.org/1999/02/22-rdf-syntax-ns#"
   xmlns:svg="http://www.w3.org/2000/svg"
   xmlns="http://www.w3.org/2000/svg"
   xmlns:sodipodi="http://sodipodi.sourceforge.net/DTD/sodipodi-0.dtd"
   xmlns:inkscape="http://www.inkscape.org/namespaces/inkscape"
   width="7.11111in"
   height="7.11111in"
   viewBox="0 0 512 512"
   id="svg2"
   version="1.1"
   inkscape:version="0.91 r13725"
   sodipodi:docname="medical.svg">
  <metadata
     id="metadata9">
    <rdf:RDF>
      <cc:Work
         rdf:about="">
        <dc:format>image/svg+xml</dc:format>
        <dc:type
           rdf:resource="http://purl.org/dc/dcmitype/StillImage" />
      </cc:Work>
    </rdf:RDF>
  </metadata>
  <defs
     id="defs7" />
  <sodipodi:namedview
     pagecolor="#ffffff"
     bordercolor="#666666"
     borderopacity="1"
     objecttolerance="10"
     gridtolerance="10"
     guidetolerance="10"
     inkscape:pageopacity="0"
     inkscape:pageshadow="2"
     inkscape:window-width="699"
     inkscape:window-height="480"
     id="namedview5"
     showgrid="false"
     inkscape:zoom="0.36875005"
     inkscape:cx="319.99996"
     inkscape:cy="319.99996"
     inkscape:window-x="670"
     inkscape:window-y="28"
     inkscape:window-maximized="0"
     inkscape:current-layer="svg2" />
  <path
     id="Selection"
     fill="none"
     stroke="black"
     stroke-width="1"
     d="M 380.00,302.14            C 355.51,291.29 339.18,265.74 339.18,239.00              339.18,203.17 366.78,171.38 403.00,168.74              403.00,168.74 411.00,168.74 411.00,168.74              428.87,169.65 442.04,173.33 456.00,185.30              483.79,209.12 488.11,252.01 465.96,281.00              458.23,291.12 450.43,296.85 439.00,302.22              435.54,303.84 423.21,307.20 421.86,308.88              420.49,310.58 421.00,315.75 421.00,318.00              421.00,318.00 421.00,360.00 421.00,360.00              421.00,399.52 419.18,427.98 394.37,461.00              388.74,468.49 382.26,475.43 375.00,481.38              316.55,529.31 228.74,518.66 186.09,455.00              171.28,432.90 164.04,406.48 164.00,380.00              164.00,380.00 164.00,306.00 164.00,306.00              164.00,303.83 164.22,300.25 162.98,298.43              161.39,296.11 157.56,295.74 155.00,295.20              150.94,294.33 143.83,292.22 140.00,290.69              121.04,283.10 100.32,267.59 87.21,252.00              79.68,243.05 84.98,241.35 78.16,231.00              78.16,231.00 69.23,218.00 69.23,218.00              54.96,195.22 44.67,169.90 37.85,144.00              35.42,134.80 31.01,112.98 31.00,104.00              31.00,104.00 31.00,84.00 31.00,84.00              31.06,78.92 32.04,73.97 33.00,69.00              35.84,54.33 39.86,41.29 52.00,31.37              65.65,20.23 88.05,15.32 105.00,11.37              111.67,9.82 111.50,6.52 117.00,2.97              125.64,-2.61 137.52,-0.19 142.59,9.00              148.09,19.00 143.26,32.19 132.00,35.28              121.61,38.14 119.03,31.98 113.00,32.62              113.00,32.62 102.00,35.40 102.00,35.40              88.17,38.25 69.22,43.67 61.11,56.00              54.47,66.08 54.10,76.47 54.00,88.00              54.00,88.00 54.00,101.00 54.00,101.00              54.19,126.95 64.67,157.61 75.53,181.00              80.03,190.71 91.13,211.22 97.90,218.86              102.62,224.18 103.97,220.50 112.00,228.04              133.72,248.46 147.11,263.37 179.00,263.00              197.87,262.77 217.91,248.41 230.91,235.79              230.91,235.79 238.09,228.03 238.09,228.03              245.81,220.35 248.13,224.31 253.40,217.94              259.72,210.32 268.68,194.14 273.25,185.00              284.94,161.61 296.96,125.25 297.00,99.00              297.00,99.00 297.00,85.00 297.00,85.00              296.87,73.83 294.40,61.83 287.18,53.04              277.85,41.67 258.73,38.01 245.00,34.76              245.00,34.76 238.00,32.87 238.00,32.87              232.16,32.01 230.84,36.55 222.00,35.90              204.86,34.65 200.21,10.79 214.09,2.65              220.51,-1.12 228.94,-0.96 234.91,3.64              238.18,6.16 239.13,8.97 242.18,10.57              242.18,10.57 259.00,14.96 259.00,14.96              259.00,14.96 268.00,17.09 268.00,17.09              280.48,20.53 293.99,26.42 302.91,36.00              319.53,53.86 319.26,81.17 319.00,104.00              318.65,133.21 303.83,174.98 290.73,201.00              290.73,201.00 278.33,222.00 278.33,222.00              278.33,222.00 270.85,233.00 270.85,233.00              267.78,238.39 270.07,241.33 266.01,248.00              259.45,258.80 239.85,274.41 229.00,281.31              223.28,284.94 211.45,290.57 205.00,292.56              205.00,292.56 188.31,297.17 188.31,297.17              185.92,298.80 186.05,301.42 186.00,304.00              186.00,304.00 186.00,351.00 186.00,351.00              186.00,369.36 185.40,389.02 189.42,407.00              193.92,427.11 207.28,449.21 223.04,462.40              242.81,478.94 267.94,489.50 294.00,488.98              337.00,488.13 376.27,460.26 391.42,420.00              395.27,409.77 397.98,398.98 398.00,388.00              398.00,388.00 398.00,307.00 398.00,307.00              391.04,306.68 386.31,304.94 380.00,302.14 Z            M 365.09,220.00            C 354.68,245.55 367.64,275.10 394.00,284.00              398.44,285.49 406.37,287.02 411.00,286.68              419.99,286.00 426.08,284.73 434.00,280.12              461.45,264.18 465.32,225.25 442.71,203.44              433.66,194.70 421.32,190.91 409.00,190.45              389.63,192.08 372.76,201.17 365.09,220.00 Z            M 423.00,206.47            C 435.63,211.37 445.86,226.31 444.82,240.00              443.60,256.00 432.10,269.99 416.00,272.68              381.12,278.50 360.18,235.30 387.00,212.21              392.24,207.71 397.41,205.89 404.00,204.46              410.37,203.58 416.96,204.12 423.00,206.47 Z"
     style="fill:#ffffff;fill-opacity:1;stroke:none" />
</svg>
