<?xml version="1.0" encoding="UTF-8" standalone="no"?>
<!-- Generator: Adobe Illustrator 16.0.0, SVG Export Plug-In . SVG Version: 6.00 Build 0)  -->

<svg
   xmlns:dc="http://purl.org/dc/elements/1.1/"
   xmlns:cc="http://creativecommons.org/ns#"
   xmlns:rdf="http://www.w3.org/1999/02/22-rdf-syntax-ns#"
   xmlns:svg="http://www.w3.org/2000/svg"
   xmlns="http://www.w3.org/2000/svg"
   xmlns:sodipodi="http://sodipodi.sourceforge.net/DTD/sodipodi-0.dtd"
   xmlns:inkscape="http://www.inkscape.org/namespaces/inkscape"
   version="1.1"
   id="Capa_1"
   x="0px"
   y="0px"
   width="415.258px"
   height="415.258px"
   viewBox="0 0 415.258 415.258"
   enable-background="new 0 0 415.258 415.258"
   xml:space="preserve"
   inkscape:version="0.91 r13725"
   sodipodi:docname="mountain.svg"><metadata
     id="metadata18"><rdf:RDF><cc:Work
         rdf:about=""><dc:format>image/svg+xml</dc:format><dc:type
           rdf:resource="http://purl.org/dc/dcmitype/StillImage" /></cc:Work></rdf:RDF></metadata><defs
     id="defs16" /><sodipodi:namedview
     pagecolor="#ffffff"
     bordercolor="#666666"
     borderopacity="1"
     objecttolerance="10"
     gridtolerance="10"
     guidetolerance="10"
     inkscape:pageopacity="0"
     inkscape:pageshadow="2"
     inkscape:window-width="699"
     inkscape:window-height="480"
     id="namedview14"
     showgrid="false"
     inkscape:zoom="0.56832139"
     inkscape:cx="207.629"
     inkscape:cy="207.629"
     inkscape:window-x="705"
     inkscape:window-y="39"
     inkscape:window-maximized="0"
     inkscape:current-layer="Capa_1" /><g
     id="g3"
     style="fill:#000000"><g
       id="g5"
       style="fill:#000000"><g
         id="Layer_5_47_"
         style="fill:#000000"><g
           id="g8"
           style="fill:#000000"><path
             fill="#8B1A1C"
             d="M327.073,323.196L174.091,90.426c-3.1-4.718-7.795-7.423-12.877-7.423      c-5.209,0-9.955,2.811-13.023,7.712L2.671,323.26c-3.166,5.063-3.535,10.572-1.013,15.127c2.522,4.556,7.392,7.166,13.36,7.166      h299.994c6.016,0,10.881-2.633,13.359-7.225C330.848,333.736,330.375,328.223,327.073,323.196z M161.304,101.234      c1.529,0,2.417,1.472,2.417,1.472l92.72,138.025c5.974,10.752,1.974,14.086-9.36,3.086c0,0-33.562-38.944-46.107-50.578      c-3.15-2.921-9.553-3.67-13.12-1.275c-9.288,6.233-25.457,21.992-34.852,28.063c-3.607,2.332-8.505,0.328-9.525-3.847      c-3.373-13.792-6.196-42.208-9.754-55.955c-1.076-4.159-5.102-4.926-8.567-2.387c-0.858,0.629-2.687,1.727-3.603,2.268      c-1.06,0.625-0.469-0.259-0.469-0.259l37.937-57.292C159.018,102.558,159.708,101.234,161.304,101.234z"
             id="path10"
             style="fill:#000000" /><path
             fill="#8B1A1C"
             d="M412.62,290.749L271.834,76.537c-2.854-4.341-7.174-6.831-11.853-6.831      c-4.793,0-9.161,2.587-11.983,7.098l-29.41,46.999c0,0-1.1,1.681-0.248,3.573c0.951,2.113,3.631,5.949,5.094,7.748      c1.143,1.401,2.588-0.974,2.588-0.974l32.199-48.845c0,0,0.873-1.301,1.847-1.301c1.109,0,1.947,1.386,1.947,1.386      l91.624,135.562c2.604,3.782-4.281,3.799-10.285-1.016c-9.07-7.273-27.021-22.074-36.115-29.319      c-3.095-2.464-8.74-3.301-12.074-1.174c-4.91,3.135-16.602,12.289-21.365,16.683c-2.557,2.357-0.692,4.572-0.692,4.572      l64.075,97.496c0,0,1.813,3.129,4.688,3.129c14.914,0,59.656,0,59.656,0c5.531,0,10.016-2.424,12.293-6.648      C416.094,300.45,415.659,295.374,412.62,290.749z"
             id="path12"
             style="fill:#000000" /></g></g></g></g></svg>