<?xml version="1.0" encoding="UTF-8" standalone="no"?>
<svg
   xmlns:dc="http://purl.org/dc/elements/1.1/"
   xmlns:cc="http://creativecommons.org/ns#"
   xmlns:rdf="http://www.w3.org/1999/02/22-rdf-syntax-ns#"
   xmlns:svg="http://www.w3.org/2000/svg"
   xmlns="http://www.w3.org/2000/svg"
   viewBox="0 0 227.5 296.25"
   height="296.25"
   width="227.5"
   version="1.1"
   id="svg4206">
  <metadata
     id="metadata4212">
    <rdf:RDF>
      <cc:Work
         rdf:about="">
        <dc:format>image/svg+xml</dc:format>
        <dc:type
           rdf:resource="http://purl.org/dc/dcmitype/StillImage" />
        <dc:title></dc:title>
      </cc:Work>
    </rdf:RDF>
  </metadata>
  <defs
     id="defs4210" />
  <g
     id="g4267">
    <rect
       ry="12.321428"
       style="opacity:1;fill:#93dbfe;fill-opacity:1;stroke:none;stroke-width:2.89400005;stroke-linecap:round;stroke-linejoin:round;stroke-miterlimit:4;stroke-dasharray:none;stroke-dashoffset:0;stroke-opacity:1"
       id="rect4222"
       width="227.5"
       height="296.25"
       x="0"
       y="0" />
    <rect
       y="18.137754"
       x="13.928572"
       height="259.97449"
       width="199.64285"
       id="rect4220"
       style="opacity:1;fill:#ffffff;fill-opacity:1;stroke:none;stroke-width:2.89400005;stroke-linecap:round;stroke-linejoin:round;stroke-miterlimit:4;stroke-dasharray:none;stroke-dashoffset:0;stroke-opacity:1"
       ry="10.812682" />
    <rect
       style="opacity:1;fill:#257070;fill-opacity:1;stroke:none;stroke-width:2.89400005;stroke-linecap:round;stroke-linejoin:round;stroke-miterlimit:4;stroke-dasharray:none;stroke-dashoffset:0;stroke-opacity:1"
       id="rect4261"
       width="67.002815"
       height="89.570595"
       x="126.02679"
       y="42.1875"
       ry="0" />
    <path
       style="opacity:1;fill:#79d2d2;fill-opacity:1;stroke:none;stroke-width:2.89400005;stroke-linecap:round;stroke-linejoin:round;stroke-miterlimit:4;stroke-dasharray:none;stroke-dashoffset:0;stroke-opacity:1"
       d="M 40.65625 42.378906 C 38.16537 42.378906 36.160156 44.38412 36.160156 46.875 C 36.160156 49.36588 38.16537 51.371094 40.65625 51.371094 L 113.04883 51.371094 C 115.53971 51.371094 117.54492 49.36588 117.54492 46.875 C 117.54492 44.38412 115.53971 42.378906 113.04883 42.378906 L 40.65625 42.378906 z M 40.65625 58.71875 C 38.16537 58.71875 36.160156 60.723963 36.160156 63.214844 C 36.160156 65.705724 38.16537 67.710938 40.65625 67.710938 L 113.04883 67.710938 C 115.53971 67.710938 117.54492 65.705724 117.54492 63.214844 C 117.54492 60.723963 115.53971 58.71875 113.04883 58.71875 L 40.65625 58.71875 z M 40.65625 74.65625 C 38.16537 74.65625 36.160156 76.661463 36.160156 79.152344 C 36.160156 81.643224 38.16537 83.648438 40.65625 83.648438 L 113.04883 83.648438 C 115.53971 83.648438 117.54492 81.643224 117.54492 79.152344 C 117.54492 76.661463 115.53971 74.65625 113.04883 74.65625 L 40.65625 74.65625 z M 40.65625 90.994141 C 38.16537 90.994141 36.160156 92.999354 36.160156 95.490234 C 36.160156 97.981115 38.16537 99.986328 40.65625 99.986328 L 113.04883 99.986328 C 115.53971 99.986328 117.54492 97.981115 117.54492 95.490234 C 117.54492 92.999354 115.53971 90.994141 113.04883 90.994141 L 40.65625 90.994141 z M 40.65625 107.46875 C 38.16537 107.46875 36.160156 109.47396 36.160156 111.96484 C 36.160156 114.45572 38.16537 116.46094 40.65625 116.46094 L 113.04883 116.46094 C 115.53971 116.46094 117.54492 114.45572 117.54492 111.96484 C 117.54492 109.47396 115.53971 107.46875 113.04883 107.46875 L 40.65625 107.46875 z M 40.65625 123.40625 C 38.16537 123.40625 36.160156 125.41146 36.160156 127.90234 C 36.160156 130.39322 38.16537 132.39844 40.65625 132.39844 L 113.04883 132.39844 C 115.53971 132.39844 117.54492 130.39322 117.54492 127.90234 C 117.54492 125.41146 115.53971 123.40625 113.04883 123.40625 L 40.65625 123.40625 z M 40.65625 139.87891 C 38.16537 139.87891 36.160156 141.88412 36.160156 144.375 C 36.160156 146.86588 38.16537 148.87109 40.65625 148.87109 L 189.11914 148.87109 C 191.61002 148.87109 193.61523 146.86588 193.61523 144.375 C 193.61523 141.88412 191.61002 139.87891 189.11914 139.87891 L 40.65625 139.87891 z M 40.65625 156.08398 C 38.16537 156.08398 36.160156 158.0892 36.160156 160.58008 C 36.160156 163.07096 38.16537 165.07617 40.65625 165.07617 L 189.11914 165.07617 C 191.61002 165.07617 193.61523 163.07096 193.61523 160.58008 C 193.61523 158.0892 191.61002 156.08398 189.11914 156.08398 L 40.65625 156.08398 z M 40.65625 172.15625 C 38.16537 172.15625 36.160156 174.16146 36.160156 176.65234 C 36.160156 179.14322 38.16537 181.14844 40.65625 181.14844 L 189.11914 181.14844 C 191.61002 181.14844 193.61523 179.14322 193.61523 176.65234 C 193.61523 174.16146 191.61002 172.15625 189.11914 172.15625 L 40.65625 172.15625 z M 40.65625 188.62891 C 38.16537 188.62891 36.160156 190.63412 36.160156 193.125 C 36.160156 195.61588 38.16537 197.62109 40.65625 197.62109 L 189.11914 197.62109 C 191.61002 197.62109 193.61523 195.61588 193.61523 193.125 C 193.61523 190.63412 191.61002 188.62891 189.11914 188.62891 L 40.65625 188.62891 z M 40.65625 204.83398 C 38.16537 204.83398 36.160156 206.8392 36.160156 209.33008 C 36.160156 211.82096 38.16537 213.82617 40.65625 213.82617 L 189.11914 213.82617 C 191.61002 213.82617 193.61523 211.82096 193.61523 209.33008 C 193.61523 206.8392 191.61002 204.83398 189.11914 204.83398 L 40.65625 204.83398 z M 40.65625 221.03906 C 38.16537 221.03906 36.160156 223.04428 36.160156 225.53516 C 36.160156 228.02604 38.16537 230.03125 40.65625 230.03125 L 189.11914 230.03125 C 191.61002 230.03125 193.61523 228.02604 193.61523 225.53516 C 193.61523 223.04428 191.61002 221.03906 189.11914 221.03906 L 40.65625 221.03906 z M 40.65625 237.37891 C 38.16537 237.37891 36.160156 239.38412 36.160156 241.875 C 36.160156 244.36588 38.16537 246.37109 40.65625 246.37109 L 189.11914 246.37109 C 191.61002 246.37109 193.61523 244.36588 193.61523 241.875 C 193.61523 239.38412 191.61002 237.37891 189.11914 237.37891 L 40.65625 237.37891 z M 40.65625 253.58398 C 38.16537 253.58398 36.160156 255.5892 36.160156 258.08008 C 36.160156 260.57096 38.16537 262.57617 40.65625 262.57617 L 189.11914 262.57617 C 191.61002 262.57617 193.61523 260.57096 193.61523 258.08008 C 193.61523 255.5892 191.61002 253.58398 189.11914 253.58398 L 40.65625 253.58398 z "
       id="rect4224" />
    <rect
       y="172.5574"
       x="36.160717"
       height="8.9923477"
       width="81.383926"
       id="rect4238"
       style="opacity:1;fill:#79d2d2;fill-opacity:1;stroke:none;stroke-width:2.89400005;stroke-linecap:round;stroke-linejoin:round;stroke-miterlimit:4;stroke-dasharray:none;stroke-dashoffset:0;stroke-opacity:1"
       ry="4.4961739" />
    <circle
       r="16.136421"
       cy="92.552811"
       cx="165.03615"
       id="circle4265"
       style="opacity:1;fill:#93dbfe;fill-opacity:1;stroke:none;stroke-width:2.89400005;stroke-linecap:round;stroke-linejoin:round;stroke-miterlimit:4;stroke-dasharray:none;stroke-dashoffset:0;stroke-opacity:1" />
    <circle
       style="opacity:1;fill:#61cbac;fill-opacity:1;stroke:none;stroke-width:2.89400005;stroke-linecap:round;stroke-linejoin:round;stroke-miterlimit:4;stroke-dasharray:none;stroke-dashoffset:0;stroke-opacity:1"
       id="path4263"
       cx="154.50484"
       cy="80.496445"
       r="13.768877" />
  </g>
</svg>
