<?xml version="1.0" encoding="UTF-8" standalone="no"?>
<svg
   xmlns:dc="http://purl.org/dc/elements/1.1/"
   xmlns:cc="http://creativecommons.org/ns#"
   xmlns:rdf="http://www.w3.org/1999/02/22-rdf-syntax-ns#"
   xmlns:svg="http://www.w3.org/2000/svg"
   xmlns="http://www.w3.org/2000/svg"
   viewBox="0 0 162.5 162.5"
   height="162.5"
   width="162.5"
   version="1.1"
   id="svg4228">
  <metadata
     id="metadata4234">
    <rdf:RDF>
      <cc:Work
         rdf:about="">
        <dc:format>image/svg+xml</dc:format>
        <dc:type
           rdf:resource="http://purl.org/dc/dcmitype/StillImage" />
        <dc:title></dc:title>
      </cc:Work>
    </rdf:RDF>
  </metadata>
  <defs
     id="defs4232" />
  <path
     id="path4778"
     d="M 31.495436,154.78111 C 16.118121,146.88335 6.9639177,130.71976 9.0887316,115.21756 11.049669,100.91095 21.441951,87.685188 33.971889,83.549935 c 5.938596,-1.959915 25.960202,-1.686568 28.029442,0.382673 2.617229,2.617229 -1.912371,4.556729 -10.642005,4.556729 -16.267795,0 -28.095633,11.210919 -28.095633,26.630223 0,9.12698 2.538003,14.95057 9.30674,21.35482 20.702083,19.58726 52.387809,1.12775 46.35437,-27.00522 -2.268915,-10.579577 0.297174,-13.933727 4.560384,-5.9609 2.024256,3.78565 2.97676,9.20386 3.017068,17.1622 0.05131,10.13129 -0.582303,12.6681 -4.916833,19.68563 -10.814855,17.50904 -32.132275,23.64807 -50.089986,14.42502 z M 107.11228,115.24193 C 105.7559,114.72639 93.548537,105.04869 79.984795,93.73591 41.150954,61.346724 38.072737,57.897029 43.32159,52.648177 c 4.908377,-4.908376 10.016794,-1.963029 39.774996,22.932971 33.175704,27.755122 33.880234,28.456222 33.880234,33.715702 0,2.99867 -4.51695,7.6029 -6.87929,7.01222 -0.28551,-0.0714 -1.62888,-0.55159 -2.98525,-1.06714 z M 63.798711,100.27953 C 60.308,96.422341 60.353898,93.013353 63.954919,88.677589 l 2.877157,-3.464206 6.44369,5.469849 6.44369,5.469849 -3.566533,3.566533 c -4.357036,4.357036 -8.738173,4.555596 -12.354212,0.559916 z M 86.017535,75.234538 74.137842,65.234795 78.052699,60.582252 c 2.720339,-3.232938 4.715969,-9.015464 6.540387,-18.951379 2.929182,-15.952552 4.967275,-19.924547 13.603616,-26.511806 11.860708,-9.0466038 32.361248,-6.4821379 41.548368,5.197397 10.88386,13.8366 7.39967,34.433653 -7.52631,44.492277 -2.87703,1.938824 -9.14808,4.790056 -13.93565,6.336072 -4.89082,1.579354 -11.26369,5.281725 -14.54529,8.450202 l -5.840593,5.639264 -11.879692,-9.999741 z"
     style="fill:#ffffff" />
</svg>
