<?xml version="1.0" encoding="UTF-8" standalone="no"?>
<svg
   xmlns:dc="http://purl.org/dc/elements/1.1/"
   xmlns:cc="http://creativecommons.org/ns#"
   xmlns:rdf="http://www.w3.org/1999/02/22-rdf-syntax-ns#"
   xmlns:svg="http://www.w3.org/2000/svg"
   xmlns="http://www.w3.org/2000/svg"
   xmlns:sodipodi="http://sodipodi.sourceforge.net/DTD/sodipodi-0.dtd"
   xmlns:inkscape="http://www.inkscape.org/namespaces/inkscape"
   width="3.72222in"
   height="3.75in"
   viewBox="0 0 268 270"
   id="svg2"
   version="1.1"
   inkscape:version="0.91 r13725"
   sodipodi:docname="pencil.svg">
  <metadata
     id="metadata9">
    <rdf:RDF>
      <cc:Work
         rdf:about="">
        <dc:format>image/svg+xml</dc:format>
        <dc:type
           rdf:resource="http://purl.org/dc/dcmitype/StillImage" />
      </cc:Work>
    </rdf:RDF>
  </metadata>
  <defs
     id="defs7" />
  <sodipodi:namedview
     pagecolor="#ffffff"
     bordercolor="#666666"
     borderopacity="1"
     objecttolerance="10"
     gridtolerance="10"
     guidetolerance="10"
     inkscape:pageopacity="0"
     inkscape:pageshadow="2"
     inkscape:window-width="699"
     inkscape:window-height="480"
     id="namedview5"
     showgrid="false"
     inkscape:zoom="0.69925926"
     inkscape:cx="167.4999"
     inkscape:cy="168.75"
     inkscape:window-x="166"
     inkscape:window-y="15"
     inkscape:window-maximized="0"
     inkscape:current-layer="svg2" />
  <path
     id="Selection"
     fill="none"
     stroke="black"
     stroke-width="1"
     d="M 224.00,40.00            C 224.00,40.00 237.00,53.00 237.00,53.00              246.50,62.50 256.85,72.72 248.01,87.00              245.67,90.78 238.45,97.55 235.00,101.00              232.50,103.50 223.76,112.97 221.00,113.66              217.68,114.49 214.11,110.09 212.00,108.00              212.00,108.00 192.00,88.00 192.00,88.00              192.00,88.00 167.00,63.00 167.00,63.00              164.87,60.87 157.97,54.54 157.34,52.00              156.46,48.50 161.77,44.24 164.00,42.00              171.27,34.72 180.13,23.48 190.00,20.53              206.27,17.87 213.65,29.65 224.00,40.00 Z            M 15.00,199.00            C 15.00,196.91 14.88,193.94 15.60,192.00              17.18,187.71 31.90,174.10 36.00,170.00              36.00,170.00 100.00,106.00 100.00,106.00              100.00,106.00 134.00,72.00 134.00,72.00              136.88,69.12 142.42,61.56 147.00,63.74              149.26,64.82 159.49,75.49 162.00,78.00              162.00,78.00 195.00,111.00 195.00,111.00              197.91,113.91 208.68,122.95 207.66,127.00              207.13,129.12 203.58,132.41 202.00,134.00              202.00,134.00 188.00,148.00 188.00,148.00              188.00,148.00 134.00,202.00 134.00,202.00              134.00,202.00 94.00,242.00 94.00,242.00              90.74,245.26 82.85,253.98 79.00,255.40              77.06,256.12 74.09,256.00 72.00,256.00              72.00,256.00 15.00,256.00 15.00,256.00              15.00,256.00 15.00,199.00 15.00,199.00 Z            M 125.00,110.00            C 125.00,110.00 78.00,157.00 78.00,157.00              75.22,159.78 64.05,170.59 62.62,173.00              60.18,177.11 62.85,179.96 66.02,179.26              68.44,178.72 71.26,175.70 73.00,174.00              73.00,174.00 87.00,160.00 87.00,160.00              87.00,160.00 138.00,109.00 138.00,109.00              138.00,109.00 151.68,95.00 151.68,95.00              154.47,91.19 154.13,87.95 148.98,87.74              143.00,90.54 130.40,104.60 125.00,110.00 Z            M 80.00,229.00            C 81.63,227.34 84.80,224.48 84.80,222.00              84.80,219.76 82.42,217.51 80.98,216.00              80.98,216.00 68.00,203.00 68.00,203.00              68.00,203.00 56.00,191.00 56.00,191.00              54.57,189.60 51.94,186.82 50.00,186.34              46.90,185.56 43.97,189.07 42.00,191.00              32.56,200.31 35.00,203.34 35.00,216.00              35.00,216.00 55.00,216.00 55.00,216.00              55.00,216.00 55.00,236.00 55.00,236.00              67.66,236.00 70.69,238.44 80.00,229.00 Z"
     style="fill:#ffffff;fill-opacity:1;stroke:none" />
</svg>
