<?xml version="1.0" encoding="UTF-8" standalone="no"?>
<svg
   xmlns:dc="http://purl.org/dc/elements/1.1/"
   xmlns:cc="http://creativecommons.org/ns#"
   xmlns:rdf="http://www.w3.org/1999/02/22-rdf-syntax-ns#"
   xmlns:svg="http://www.w3.org/2000/svg"
   xmlns="http://www.w3.org/2000/svg"
   xmlns:sodipodi="http://sodipodi.sourceforge.net/DTD/sodipodi-0.dtd"
   xmlns:inkscape="http://www.inkscape.org/namespaces/inkscape"
   width="7.11111in"
   height="7.11111in"
   viewBox="0 0 512 512"
   id="svg2"
   version="1.1"
   inkscape:version="0.91 r13725"
   sodipodi:docname="phone.svg">
  <metadata
     id="metadata9">
    <rdf:RDF>
      <cc:Work
         rdf:about="">
        <dc:format>image/svg+xml</dc:format>
        <dc:type
           rdf:resource="http://purl.org/dc/dcmitype/StillImage" />
      </cc:Work>
    </rdf:RDF>
  </metadata>
  <defs
     id="defs7" />
  <sodipodi:namedview
     pagecolor="#ffffff"
     bordercolor="#666666"
     borderopacity="1"
     objecttolerance="10"
     gridtolerance="10"
     guidetolerance="10"
     inkscape:pageopacity="0"
     inkscape:pageshadow="2"
     inkscape:window-width="699"
     inkscape:window-height="480"
     id="namedview5"
     showgrid="false"
     inkscape:zoom="0.36875005"
     inkscape:cx="319.99996"
     inkscape:cy="319.99996"
     inkscape:window-x="640"
     inkscape:window-y="39"
     inkscape:window-maximized="0"
     inkscape:current-layer="svg2" />
  <path
     id="Selection copy"
     fill="none"
     stroke="black"
     stroke-width="1"
     d="M 138.99,35.06            C 138.99,35.06 174.86,99.09 174.86,99.09              180.10,107.31 191.76,121.74 190.50,131.71              189.41,140.24 180.25,149.73 174.02,155.17              174.02,155.17 146.24,178.31 146.24,178.31              140.68,183.07 132.78,190.15 129.85,196.94              125.55,206.89 137.24,222.37 142.11,230.76              159.68,261.04 176.65,284.91 200.80,310.44              200.80,310.44 210.27,319.05 210.27,319.05              230.06,337.46 251.05,352.75 274.29,366.54              283.09,371.76 297.67,381.23 306.91,384.06              317.50,387.31 324.28,378.95 331.06,372.10              331.06,372.10 363.68,334.65 363.68,334.65              369.06,329.34 376.00,322.50 384.22,323.04              391.35,323.51 400.12,329.16 405.96,333.04              405.96,333.04 431.33,348.63 431.33,348.63              431.33,348.63 478.44,374.52 478.44,374.52              484.56,378.01 494.27,383.01 497.95,389.03              502.53,396.53 498.44,414.46 496.41,422.83              494.36,431.24 491.35,443.39 486.74,450.62              474.51,469.79 438.64,488.58 416.83,494.80              372.25,507.52 336.04,492.04 294.83,476.81              226.10,451.41 185.15,417.72 134.14,366.05              95.39,326.81 60.08,281.78 40.76,229.55              31.64,204.90 14.61,164.36 14.57,138.95              14.57,138.95 14.57,124.46 14.57,124.46              14.60,102.89 23.51,80.13 34.08,61.64              41.16,49.26 51.58,33.66 64.10,26.46              76.28,19.45 96.06,15.94 110.00,13.83              128.03,11.64 131.08,21.22 138.99,35.06 Z"
     style="fill:#ffffff;fill-opacity:1;stroke:none" />
</svg>
