<?xml version="1.0" encoding="UTF-8" standalone="no"?>
<svg
   xmlns:dc="http://purl.org/dc/elements/1.1/"
   xmlns:cc="http://creativecommons.org/ns#"
   xmlns:rdf="http://www.w3.org/1999/02/22-rdf-syntax-ns#"
   xmlns:svg="http://www.w3.org/2000/svg"
   xmlns="http://www.w3.org/2000/svg"
   xmlns:sodipodi="http://sodipodi.sourceforge.net/DTD/sodipodi-0.dtd"
   xmlns:inkscape="http://www.inkscape.org/namespaces/inkscape"
   width="7.11111in"
   height="7.11111in"
   viewBox="0 0 512 512"
   id="svg2"
   version="1.1"
   inkscape:version="0.91 r13725"
   sodipodi:docname="politics.svg">
  <metadata
     id="metadata9">
    <rdf:RDF>
      <cc:Work
         rdf:about="">
        <dc:format>image/svg+xml</dc:format>
        <dc:type
           rdf:resource="http://purl.org/dc/dcmitype/StillImage" />
      </cc:Work>
    </rdf:RDF>
  </metadata>
  <defs
     id="defs7" />
  <sodipodi:namedview
     pagecolor="#ffffff"
     bordercolor="#666666"
     borderopacity="1"
     objecttolerance="10"
     gridtolerance="10"
     guidetolerance="10"
     inkscape:pageopacity="0"
     inkscape:pageshadow="2"
     inkscape:window-width="699"
     inkscape:window-height="480"
     id="namedview5"
     showgrid="false"
     inkscape:zoom="0.36875005"
     inkscape:cx="319.99996"
     inkscape:cy="319.99996"
     inkscape:window-x="537"
     inkscape:window-y="40"
     inkscape:window-maximized="0"
     inkscape:current-layer="svg2" />
  <path
     id="Selection"
     fill="none"
     stroke="black"
     stroke-width="1"
     d="M 250.00,96.00            C 250.00,96.00 250.00,56.00 250.00,56.00              250.01,50.99 251.28,42.00 258.87,46.02              261.52,47.42 262.20,50.26 264.55,50.61              266.37,51.07 268.49,49.41 275.00,50.61              281.70,51.64 294.74,55.54 300.00,55.00              303.99,58.19 306.19,57.76 311.00,57.00              313.53,58.66 313.47,58.66 316.00,57.00              316.00,57.00 328.00,56.00 328.00,56.00              328.00,56.00 328.00,88.00 328.00,88.00              327.98,90.80 328.39,93.73 325.71,95.43              324.23,96.37 321.72,96.77 320.00,97.08              307.50,99.30 303.94,95.09 295.00,96.00              289.53,91.33 279.01,90.61 272.00,90.55              269.91,90.53 265.19,90.39 263.60,91.76              261.94,93.20 262.04,96.00 262.00,98.00              261.88,104.51 262.78,111.74 261.00,118.00              269.91,120.55 277.62,127.43 278.82,137.00              279.35,141.25 278.60,152.37 281.60,155.41              282.93,156.75 288.72,158.10 291.00,159.02              295.56,160.85 305.93,166.16 310.00,168.80              328.98,181.08 341.27,198.05 348.95,219.00              351.66,226.41 353.83,234.07 354.00,242.00              360.25,242.00 376.17,240.88 380.98,243.85              383.33,245.31 385.12,247.42 386.11,250.00              387.61,253.91 387.00,273.50 387.00,279.00              387.00,279.00 457.00,279.00 457.00,279.00              457.00,279.00 494.00,278.00 494.00,278.00              494.00,278.00 500.11,286.00 500.11,286.00              500.11,286.00 501.00,299.00 501.00,299.00              501.00,299.00 501.00,324.00 501.00,324.00              501.00,324.00 501.00,432.00 501.00,432.00              513.41,432.43 512.05,442.57 512.00,452.00              511.98,456.09 512.00,459.46 509.35,462.89              505.91,467.34 502.05,466.99 497.00,467.00              497.00,467.00 120.00,467.00 120.00,467.00              120.00,467.00 15.00,467.00 15.00,467.00              12.60,467.00 9.23,467.13 7.02,466.26              -1.41,462.95 -0.09,452.28 0.00,445.00              0.11,436.74 2.16,432.31 11.00,432.00              11.00,432.00 11.00,324.00 11.00,324.00              11.00,324.00 11.00,299.00 11.00,299.00              11.00,299.00 11.74,286.00 11.74,286.00              11.74,286.00 18.00,278.00 18.00,278.00              18.00,278.00 55.00,279.00 55.00,279.00              55.00,279.00 125.00,279.00 125.00,279.00              125.00,279.00 125.56,251.00 125.56,251.00              126.20,248.57 127.37,246.46 129.34,244.85              134.67,240.48 150.89,242.00 158.00,242.00              158.17,234.40 159.95,228.15 162.33,221.00              169.31,200.09 179.49,185.99 197.00,172.42              203.43,167.44 212.47,162.61 220.00,159.43              222.83,158.23 229.54,156.85 230.98,154.69              232.36,152.60 231.97,147.56 232.00,145.00              232.16,131.37 237.39,121.88 251.00,118.00              249.29,111.98 250.00,102.50 250.00,96.00 Z            M 373.00,388.00            C 373.00,388.00 373.00,316.00 373.00,316.00              373.01,309.32 375.15,303.16 371.64,297.00              367.38,289.55 353.58,282.64 346.00,278.35              346.00,278.35 290.00,245.55 290.00,245.55              280.49,239.88 265.07,228.08 254.00,229.10              248.23,229.64 233.42,238.56 228.00,241.95              228.00,241.95 189.00,264.20 189.00,264.20              189.00,264.20 176.00,271.46 176.00,271.46              176.00,271.46 164.00,278.69 164.00,278.69              149.92,286.32 138.03,289.67 138.00,308.00              138.00,308.00 138.00,432.00 138.00,432.00              138.00,432.00 149.00,432.00 149.00,432.00              149.00,432.00 149.00,314.00 149.00,314.00              149.01,309.51 148.73,305.88 151.51,302.01              155.10,297.03 160.93,294.68 166.00,291.57              166.00,291.57 185.00,280.55 185.00,280.55              185.00,280.55 198.00,272.76 198.00,272.76              198.00,272.76 212.00,264.50 212.00,264.50              212.00,264.50 237.00,250.40 237.00,250.40              241.04,247.99 250.09,241.40 254.25,240.90              261.37,240.03 274.30,250.12 281.00,253.77              281.00,253.77 309.00,270.13 309.00,270.13              309.00,270.13 343.00,289.68 343.00,289.68              355.20,297.28 362.97,297.91 363.00,314.00              363.00,314.00 363.00,432.00 363.00,432.00              363.00,432.00 374.00,432.00 374.00,432.00              372.13,417.86 373.00,402.36 373.00,388.00 Z            M 62.00,312.00            C 62.00,310.01 62.23,306.19 60.98,304.60              59.02,302.13 48.28,302.99 45.00,303.00              42.70,303.00 38.59,302.62 37.02,304.60              35.77,306.19 36.00,310.01 36.00,312.00              36.00,312.00 36.00,355.00 36.00,355.00              42.25,353.48 55.75,353.48 62.00,355.00              62.00,355.00 62.00,312.00 62.00,312.00 Z            M 95.00,303.00            C 88.57,303.04 87.13,303.16 87.00,310.00              87.00,310.00 87.00,355.00 87.00,355.00              87.00,355.00 112.00,354.00 112.00,354.00              112.00,354.00 112.00,303.00 112.00,303.00              112.00,303.00 95.00,303.00 95.00,303.00 Z            M 190.00,305.00            C 185.99,304.29 184.46,304.81 181.01,307.11              173.04,312.44 172.01,321.15 172.00,330.00              172.00,330.00 172.00,405.00 172.00,405.00              172.00,405.00 172.00,425.00 172.00,425.00              172.04,426.95 171.90,429.63 173.60,430.98              175.19,432.23 179.01,432.00 181.00,432.00              181.00,432.00 205.00,432.00 205.00,432.00              206.82,431.99 209.92,432.15 211.40,430.98              213.38,429.41 213.00,425.30 213.00,423.00              213.00,423.00 213.00,328.00 213.00,328.00              212.88,317.96 207.75,302.74 195.00,305.00              193.02,302.79 191.98,302.79 190.00,305.00 Z            M 254.00,305.00            C 242.60,302.82 236.12,315.18 236.00,325.00              236.00,325.00 236.00,432.00 236.00,432.00              236.00,432.00 276.00,432.00 276.00,432.00              276.00,432.00 276.00,325.00 276.00,325.00              275.88,315.18 269.40,302.82 258.00,305.00              256.48,303.29 255.52,303.29 254.00,305.00 Z            M 317.00,305.00            C 304.25,302.74 299.12,317.96 299.00,328.00              299.00,328.00 299.00,407.00 299.00,407.00              299.00,407.00 299.00,425.00 299.00,425.00              299.04,426.95 298.90,429.63 300.60,430.98              302.19,432.23 306.01,432.00 308.00,432.00              308.00,432.00 332.00,432.00 332.00,432.00              334.13,431.98 337.51,432.26 338.98,430.40              340.23,428.81 340.00,424.99 340.00,423.00              340.00,423.00 340.00,405.00 340.00,405.00              340.00,405.00 340.00,330.00 340.00,330.00              339.99,321.33 338.78,312.34 330.98,307.11              327.55,304.81 326.01,304.29 322.00,305.00              320.02,302.79 318.98,302.79 317.00,305.00 Z            M 425.00,312.00            C 424.99,305.26 425.49,303.14 418.00,303.00              418.00,303.00 400.00,303.00 400.00,303.00              400.00,303.00 400.00,354.00 400.00,354.00              400.00,354.00 425.00,355.00 425.00,355.00              425.00,355.00 425.00,312.00 425.00,312.00 Z            M 458.00,303.00            C 451.57,303.04 450.13,303.16 450.00,310.00              450.00,310.00 450.00,355.00 450.00,355.00              450.00,355.00 475.00,354.00 475.00,354.00              475.00,354.00 475.00,303.00 475.00,303.00              475.00,303.00 458.00,303.00 458.00,303.00 Z            M 36.00,395.00            C 36.00,395.00 36.00,424.00 36.00,424.00              36.04,430.43 36.16,431.87 43.00,432.00              43.00,432.00 62.00,432.00 62.00,432.00              62.00,432.00 62.00,380.00 62.00,380.00              56.09,381.44 42.80,381.65 37.00,380.00              35.36,384.13 36.00,390.46 36.00,395.00 Z            M 87.00,397.00            C 87.00,397.00 87.00,432.00 87.00,432.00              87.00,432.00 113.00,431.00 113.00,431.00              113.00,431.00 112.00,412.00 112.00,412.00              112.00,412.00 112.00,381.00 112.00,381.00              112.00,381.00 88.00,380.00 88.00,380.00              88.00,380.00 87.00,397.00 87.00,397.00 Z            M 400.00,381.00            C 400.00,381.00 400.00,412.00 400.00,412.00              400.00,412.00 399.00,431.00 399.00,431.00              399.00,431.00 425.00,432.00 425.00,432.00              425.00,432.00 425.00,380.00 425.00,380.00              425.00,380.00 400.00,381.00 400.00,381.00 Z            M 450.00,397.00            C 450.00,397.00 450.00,432.00 450.00,432.00              450.00,432.00 476.00,431.00 476.00,431.00              476.00,431.00 475.00,412.00 475.00,412.00              475.00,412.00 475.00,381.00 475.00,381.00              475.00,381.00 451.00,380.00 451.00,380.00              451.00,380.00 450.00,397.00 450.00,397.00 Z"
     style="fill:#ffffff;fill-opacity:1;stroke:none" />
</svg>
