<?xml version="1.0" encoding="UTF-8" standalone="no"?>
<svg
   xmlns:dc="http://purl.org/dc/elements/1.1/"
   xmlns:cc="http://creativecommons.org/ns#"
   xmlns:rdf="http://www.w3.org/1999/02/22-rdf-syntax-ns#"
   xmlns:svg="http://www.w3.org/2000/svg"
   xmlns="http://www.w3.org/2000/svg"
   version="1.1"
   id="svg4831"
   viewBox="0 0 375 375"
   height="5.20833in"
   width="5.20833in">
  <metadata
     id="metadata4838">
    <rdf:RDF>
      <cc:Work
         rdf:about="">
        <dc:format>image/svg+xml</dc:format>
        <dc:type
           rdf:resource="http://purl.org/dc/dcmitype/StillImage" />
        <dc:title></dc:title>
      </cc:Work>
    </rdf:RDF>
  </metadata>
  <defs
     id="defs4836" />
  <g
     transform="translate(0,16.723868)"
     id="g4201">
    <path
       id="path4182"
       d="m 173.07617,71.177734 c -3.4936,0.0059 -12.42383,2.550782 -15.57617,3.359375 L 123.75,83.386719 57.5,100.46289 20,110 l 50.349609,55 9.394532,10.95117 6.001953,0 L 103.75,168.75 l 38.75,-12.5 56.25,-18.33789 30,-9.02539 47.5,8.61328 77.5,15.72461 13.35352,2.69336 6.95507,0 L 422.5,103.75 321.25,87.1875 l -30,-4.849609 c -3.1875,-0.4625 -9.7125,-2.125 -12.5,-1.375 -4.025,1.074999 -9.475,7.262111 -12.5,10.287109 l -22.5,22.5 c -2.4125,2.4125 -8.3125,8.77461 -11.25,9.78711 -5.4,1.8625 -12.7875,-7.56211 -16.25,-11.03711 l -28.75,-30 c -3.2875,-3.299998 -9.22578,-10.69961 -13.80078,-11.287109 -0.18125,-0.02344 -0.39014,-0.03555 -0.62305,-0.03516 z"
       style="fill:#000000;fill-opacity:1;stroke:none"
       transform="scale(0.80000046,0.80000046)" />
    <g
       id="g4195">
      <g
         transform="matrix(0.3295671,0,0,0.3295671,-50.08598,-1.5407377)"
         id="g4166">
        <path
           style="fill:#010101"
           d="m 682.28516,12.275391 c -2.38321,-0.0085 -4.77205,0.02071 -7.16797,0.08984 -153.33902,4.424454 -234.1378,201.799099 -284.38672,385.242189 -17.78663,64.934 -30.28201,131.07767 -39.71875,197.82422 l 692.89058,0 c -9.108,-56.53106 -20.4919,-118.204 -35.0156,-186.04687 C 956.97315,166.88642 832.42746,12.81079 682.28516,12.275391 Z"
           id="path491" />
        <path
           style="opacity:1;fill:#ffffff;fill-opacity:1;stroke:none;stroke-width:7.4000001;stroke-linecap:round;stroke-linejoin:round;stroke-miterlimit:4;stroke-dasharray:none;stroke-dashoffset:0;stroke-opacity:1"
           d="m 776.27734,108.59375 c -54.90375,-0.16671 -72.27805,48.92467 -76.86328,55.04687 -4.73313,6.31307 -10.25,-3.15429 -10.25,-3.15429 0,0 -66.43615,-75.392173 -143.0957,-19.73633 -50.68033,36.78943 -107.66535,237.01669 -142.76367,454.68164 l 592.30859,0 C 935.323,112.253 781.70898,108.76758 781.70898,108.76758 c -1.85002,-0.11099 -3.66055,-0.16845 -5.43164,-0.17383 z m -24.52539,148.52734 c 13.80794,0.44446 25.3977,16.7597 26.28516,37.28711 0.87626,21.20285 -10.06313,38.85374 -24.38867,39.48438 -14.36537,0.60409 -26.73235,-16.13033 -27.61524,-37.30664 -0.8829,-21.1763 10.02955,-38.86818 24.375,-39.45899 0.44975,-0.0191 0.89834,-0.0202 1.34375,-0.006 z m -131.85937,0.40821 c 12.9635,-0.0452 26.48748,12.44095 31.97656,30.6914 6.25996,20.8112 -0.37139,41.2183 -14.81641,45.56641 -14.44503,4.30164 -31.23964,-9.07395 -37.48632,-29.86523 -6.27323,-20.84439 0.39168,-41.23119 14.83007,-45.58594 1.80397,-0.53771 3.64417,-0.80019 5.4961,-0.80664 z m 101.83398,119.46679 c 19.6181,-0.0557 40.60591,2.46048 61.03125,9.56641 0,0 26.69893,70.11941 -14.97656,159.39844 0,0 -98.20802,-38.67374 -137.38086,-151.89063 0,0 41.19104,-16.9319 91.32617,-17.07422 z"
           id="rect4156" />
      </g>
      <path
         id="Selection"
         transform="scale(0.80000046,0.80000046)"
         d="m 173.07617,71.177734 c -0.33013,5.58e-4 -0.74433,0.04365 -1.16211,0.08594 0.41594,-0.042 0.83319,-0.08538 1.16211,-0.08594 z m -2.23633,0.222657 c -0.26704,0.0397 -0.52913,0.07764 -0.81445,0.126953 0.28396,-0.04904 0.54863,-0.08744 0.81445,-0.126953 z m -2.18164,0.382812 c -0.26182,0.05253 -0.51412,0.10099 -0.7832,0.158203 0.2676,-0.05689 0.52279,-0.105961 0.7832,-0.158203 z m -2.30078,0.498047 c -0.27678,0.06373 -0.53834,0.121364 -0.8164,0.1875 0.27385,-0.06512 0.5438,-0.124715 0.8164,-0.1875 z m -4.54687,1.126953 c -0.32179,0.08384 -0.64439,0.159836 -0.94922,0.240235 0.29033,-0.07656 0.64361,-0.160576 0.94922,-0.240235 z m 118.14648,7.378906 c 1.35425,-0.07625 3.10899,0.123438 4.89258,0.408203 -1.78359,-0.284765 -3.53833,-0.484448 -4.89258,-0.408203 z m 87.14649,75.130861 1.64648,0.33203 -31.25,16.5625 -67.5,33.125 -25,12.5 -13.75,4.94922 -15,-4.22461 L 188.75,210 125,189.16211 85,176.25 l 0.746094,-0.29883 -6.001953,0 L 80,176.25 l -65,22.5 -15,5 c 3.3374981,4.9625 11.962503,6.625 17.5,8.6875 L 60,228.34961 c 4.624997,1.7125 17.587111,5.65078 19.974609,9.48828 C 81.512108,240.32539 81.25,244.625 81.25,247.5 l 0,75 c 0,2.875 -0.262108,7.17461 1.275391,9.66211 1.699999,2.725 5.862111,4.27539 8.724609,5.52539 l 20,8.75 86.25,37.6875 22.5,9.91211 c 3.6875,1.6875 9.6875,4.72578 13.75,4.05078 3.625,-0.6 13.9125,-7.80078 17.5,-10.17578 l 37.5,-25 63.75,-42.19922 c 18.23749,-12.66249 19.975,-10.4754 20,-23.21289 l 0,-67.5 c 0,-2.35 -0.15,-6.38828 0.75,-8.48828 2.2125,-5.1625 17.65,-11.49844 23,-14.39844 L 468.75,168.75 c -5.675,-3.3 -23.8125,-4.3 -31.25,-5.1875 l -33.75,-3.91211 -30,-3.40039 0.30859,-0.33203 -6.95507,0 z"
         style="fill:#000000;fill-opacity:1;stroke:none" />
    </g>
  </g>
</svg>
