<?xml version="1.0" encoding="UTF-8" standalone="no"?>
<svg
   xmlns:dc="http://purl.org/dc/elements/1.1/"
   xmlns:cc="http://creativecommons.org/ns#"
   xmlns:rdf="http://www.w3.org/1999/02/22-rdf-syntax-ns#"
   xmlns:svg="http://www.w3.org/2000/svg"
   xmlns="http://www.w3.org/2000/svg"
   xmlns:sodipodi="http://sodipodi.sourceforge.net/DTD/sodipodi-0.dtd"
   xmlns:inkscape="http://www.inkscape.org/namespaces/inkscape"
   width="512"
   height="512"
   viewBox="0 0 409.60054 409.60052"
   id="svg2"
   version="1.1"
   inkscape:version="0.91 r13725"
   sodipodi:docname="question.svg">
  <metadata
     id="metadata9">
    <rdf:RDF>
      <cc:Work
         rdf:about="">
        <dc:format>image/svg+xml</dc:format>
        <dc:type
           rdf:resource="http://purl.org/dc/dcmitype/StillImage" />
        <dc:title></dc:title>
      </cc:Work>
    </rdf:RDF>
  </metadata>
  <defs
     id="defs7" />
  <sodipodi:namedview
     pagecolor="#ffffff"
     bordercolor="#666666"
     borderopacity="1"
     objecttolerance="10"
     gridtolerance="10"
     guidetolerance="10"
     inkscape:pageopacity="0"
     inkscape:pageshadow="2"
     inkscape:window-width="1244"
     inkscape:window-height="628"
     id="namedview5"
     showgrid="false"
     units="px"
     inkscape:zoom="0.26915713"
     inkscape:cx="23.023747"
     inkscape:cy="140.24246"
     inkscape:window-x="85"
     inkscape:window-y="17"
     inkscape:window-maximized="0"
     inkscape:current-layer="svg2" />
  <path
     id="Selection"
     d="m 245.48126,51.447468 c 52.73259,19.918675 88.20664,69.618042 66.39018,125.838032 -11.71114,30.1862 -42.01089,39.2372 -56.65793,52.19731 -6.47194,5.75825 -12.19775,12.70059 -15.44183,20.79458 -2.25464,5.59604 -2.35197,12.61949 -7.63982,16.46373 -4.67148,3.39006 -11.93823,2.98455 -17.4694,3.00077 0,0 -38.92901,0 -38.92901,0 -4.20109,-0.0649 -8.87257,0.0324 -12.27885,-2.82235 -4.81747,-4.02266 -5.74203,-13.99822 -5.41762,-19.88623 1.62204,-28.69393 17.89112,-49.43984 42.0271,-64.13554 14.29019,-8.71037 32.2462,-13.34942 37.63138,-31.56495 0.84346,-3.76314 1.33008,-7.5425 0,-11.3543 -1.88157,-7.26675 -8.61304,-13.52783 -14.92278,-17.27474 -22.18955,-13.17098 -46.35797,-6.05022 -62.80547,12.40862 -6.87746,7.72092 -16.1231,24.1522 -28.02889,19.70781 -4.47683,-1.68693 -16.64215,-11.2732 -21.08654,-14.64704 -6.034,-4.6066 -22.741029,-16.05822 -24.460393,-22.90323 -2.027553,-8.09399 12.441061,-24.736146 17.566713,-30.818806 19.4645,-23.065438 47.1041,-36.836574 76.64148,-41.459393 0,0 19.4645,-1.622042 19.4645,-1.622042 13.982,-1.119209 32.3273,3.146761 45.41718,8.077769 z M 219.52859,285.96231 c 4.65526,0.0649 10.25131,0.0811 14.14421,3.00078 5.20675,3.90912 5.23919,10.57571 5.3203,16.46373 0,0 0,42.17309 0,42.17309 -0.0649,5.23919 -0.0811,11.40295 -4.07133,15.39317 -4.59038,4.59038 -12.63571,4.05511 -18.63726,4.07133 0,0 -38.92902,0 -38.92902,0 -5.23919,-0.0649 -11.40295,-0.0811 -15.39317,-4.07133 -3.99022,-3.99022 -4.00644,-10.15398 -4.07132,-15.39317 0,0 0,-42.17309 0,-42.17309 0.11354,-9.50517 0.27574,-14.56594 9.76468,-18.53994 0,0 51.87291,-0.92457 51.87291,-0.92457 z"
     inkscape:connector-curvature="0"
     style="fill:#ffffff;stroke:none;stroke-width:1.62204194;fill-opacity:1" />
</svg>
