<?xml version="1.0" encoding="UTF-8" standalone="no"?>
<svg
   xmlns:dc="http://purl.org/dc/elements/1.1/"
   xmlns:cc="http://creativecommons.org/ns#"
   xmlns:rdf="http://www.w3.org/1999/02/22-rdf-syntax-ns#"
   xmlns:svg="http://www.w3.org/2000/svg"
   xmlns="http://www.w3.org/2000/svg"
   xmlns:sodipodi="http://sodipodi.sourceforge.net/DTD/sodipodi-0.dtd"
   xmlns:inkscape="http://www.inkscape.org/namespaces/inkscape"
   width="512"
   height="512"
   id="svg2"
   version="1.1"
   inkscape:version="0.91 r13725"
   sodipodi:docname="run.svg">
  <metadata
     id="metadata34">
    <rdf:RDF>
      <cc:Work
         rdf:about="">
        <dc:format>image/svg+xml</dc:format>
        <dc:type
           rdf:resource="http://purl.org/dc/dcmitype/StillImage" />
        <dc:title>Cuzins on the run</dc:title>
      </cc:Work>
    </rdf:RDF>
  </metadata>
  <defs
     id="defs32" />
  <sodipodi:namedview
     pagecolor="#ffffff"
     bordercolor="#666666"
     borderopacity="1"
     objecttolerance="10"
     gridtolerance="10"
     guidetolerance="10"
     inkscape:pageopacity="0"
     inkscape:pageshadow="2"
     inkscape:window-width="1217"
     inkscape:window-height="600"
     id="namedview30"
     showgrid="false"
     inkscape:zoom="0.484375"
     inkscape:cx="320"
     inkscape:cy="240"
     inkscape:window-x="159"
     inkscape:window-y="19"
     inkscape:window-maximized="0"
     inkscape:current-layer="svg2" />
  <title
     id="title4">Cuzins on the run</title>
  <g
     id="g6"
     transform="matrix(1.0852283,0,0,1.0852283,-21.546062,-11.161707)">
    <title
       id="title8">Layer 1</title>
    <g
       id="Layer_1">
      <g
         id="g11">
        <g
           id="surface0">
          <path
             d="m 181.2624,52.750534 c 18.4461,-8.187439 38.83982,-2.573021 56.28835,6.021957 19.46918,10.172455 39.35956,24.971878 47.34711,48.206109 3.58343,9.48105 1.23092,20.5436 -4.92566,27.97474 -4.8436,4.60063 -11.73328,3.31715 -17.53794,2.66629 -13.17576,-3.14481 -21.24353,-16.17616 -31.48141,-24.71234 -8.87564,-8.68622 -18.3239,-18.090221 -30.33801,-20.492916 -10.71752,-1.968796 -20.02716,5.916527 -26.89681,14.095836 -10.33819,14.179 -16.86862,31.21891 -21.96023,48.42308 -3.30806,15.00421 -10.34731,29.32106 -9.49932,45.15658 -1.00664,-14.60679 -4.75421,-28.82429 -5.11346,-43.50206 -0.67111,-18.9256 1.48808,-37.95661 5.76268,-56.25567 7.83981,-19.610912 19.95605,-39.021094 38.3547,-47.581607 z"
             stroke-miterlimit="10"
             id="path14"
             inkscape:connector-curvature="0"
             style="fill:none;stroke:#000000;stroke-width:0.1;stroke-miterlimit:10" />
          <path
             d="m 181.2624,52.750534 c 18.4461,-8.187439 38.83982,-2.573021 56.28835,6.021957 19.46918,10.172455 39.35956,24.971878 47.34711,48.206109 3.58343,9.48105 1.23092,20.5436 -4.92566,27.97474 -4.8436,4.60063 -11.73328,3.31715 -17.53794,2.66629 -13.17576,-3.14481 -21.24353,-16.17616 -31.48141,-24.71234 -8.87564,-8.68622 -18.3239,-18.090221 -30.33801,-20.492916 -10.71752,-1.968796 -20.02716,5.916527 -26.89681,14.095836 -10.33819,14.179 -16.86862,31.21891 -21.96023,48.42308 -3.30806,15.00421 -10.34731,29.32106 -9.49932,45.15658 -1.00664,-14.60679 -4.75421,-28.82429 -5.11346,-43.50206 -0.67111,-18.9256 1.48808,-37.95661 5.76268,-56.25567 7.83981,-19.610912 19.95605,-39.021094 38.3547,-47.581607 z"
             id="path16"
             inkscape:connector-curvature="0" />
          <path
             d="m 349.44543,65.293236 c 13.3563,-1.72345 27.39286,4.101837 36.35602,15.281998 6.07999,8.321259 10.16312,18.803932 10.09748,29.633326 -1.17807,13.16721 -7.13773,26.1783 -17.08204,33.74528 -11.72232,9.23773 -27.74661,11.16193 -40.93695,4.75878 -19.5968,-8.27868 -31.00912,-36.32642 -20.93719,-57.512776 5.66788,-14.412155 18.73422,-23.789787 32.50268,-25.906609 z"
             stroke-miterlimit="10"
             id="path18"
             inkscape:connector-curvature="0"
             style="fill:none;stroke:#000000;stroke-width:0.1;stroke-miterlimit:10" />
          <path
             d="m 349.44543,65.293236 c 13.3563,-1.72345 27.39286,4.101837 36.35602,15.281998 6.07999,8.321259 10.16312,18.803932 10.09748,29.633326 -1.17807,13.16721 -7.13773,26.1783 -17.08204,33.74528 -11.72232,9.23773 -27.74661,11.16193 -40.93695,4.75878 -19.5968,-8.27868 -31.00912,-36.32642 -20.93719,-57.512776 5.66788,-14.412155 18.73422,-23.789787 32.50268,-25.906609 z"
             id="path20"
             inkscape:connector-curvature="0" />
          <path
             d="m 488.47397,141.83299 c 0.78964,-0.0487 1.58838,-0.071 2.39447,-0.0547 -0.3356,7.81029 1.49533,15.61452 0.33551,23.3944 -1.85462,13.37402 -6.69821,25.93498 -11.94482,38.04582 -11.52536,28.58507 -33.31965,52.19034 -59.74418,63.29955 -12.13079,4.75674 -26.52291,4.39178 -37.45382,-3.72877 -17.67832,-12.83264 -31.5817,-32.40707 -37.66175,-55.00058 -3.84967,-12.20208 -3.98278,-26.85551 2.6352,-37.91403 3.30987,-4.84594 7.77963,-10.2576 13.75931,-9.89467 6.17849,0.63465 11.70047,4.76081 15.43164,10.13799 8.78445,12.82049 10.62265,29.49544 17.86432,43.18376 6.0581,8.82816 15.85467,19.31488 26.68527,14.1506 13.05176,-6.13551 24.03552,-16.57156 34.64905,-26.80484 13.41833,-12.83062 22.75717,-29.95774 30.21221,-47.59378 1.49723,-3.53816 2.54218,-7.30948 2.83759,-11.2207 z"
             stroke-miterlimit="10"
             id="path22"
             inkscape:connector-curvature="0"
             style="fill:none;stroke:#000000;stroke-width:0.1;stroke-miterlimit:10" />
          <path
             d="m 488.47397,141.83299 c 0.78964,-0.0487 1.58838,-0.071 2.39447,-0.0547 -0.3356,7.81029 1.49533,15.61452 0.33551,23.3944 -1.85462,13.37402 -6.69821,25.93498 -11.94482,38.04582 -11.52536,28.58507 -33.31965,52.19034 -59.74418,63.29955 -12.13079,4.75674 -26.52291,4.39178 -37.45382,-3.72877 -17.67832,-12.83264 -31.5817,-32.40707 -37.66175,-55.00058 -3.84967,-12.20208 -3.98278,-26.85551 2.6352,-37.91403 3.30987,-4.84594 7.77963,-10.2576 13.75931,-9.89467 6.17849,0.63465 11.70047,4.76081 15.43164,10.13799 8.78445,12.82049 10.62265,29.49544 17.86432,43.18376 6.0581,8.82816 15.85467,19.31488 26.68527,14.1506 13.05176,-6.13551 24.03552,-16.57156 34.64905,-26.80484 13.41833,-12.83062 22.75717,-29.95774 30.21221,-47.59378 1.49723,-3.53816 2.54218,-7.30948 2.83759,-11.2207 z"
             id="path24"
             inkscape:connector-curvature="0" />
          <path
             d="m 162.4042,223.8087 c 7.7632,-7.30948 19.22841,-6.59981 28.25722,-2.94406 9.07079,4.28838 18.62663,7.60147 26.90775,13.70047 12.85849,9.16066 25.14613,19.43245 36.139,31.23308 12.4208,11.16397 23.95528,23.61746 33.83941,37.59167 7.29452,9.53983 14.91006,20.68552 14.3356,33.89734 -5.38886,19.25 -20.22412,33.32355 -35.65756,42.74375 -20.4685,11.5715 -43.2986,16.16195 -65.17493,23.26263 -9.46103,3.39621 -19.39255,4.63306 -29.23105,5.8111 -11.14059,0.66909 -22.34139,3.22387 -33.47467,1.03204 7.13406,-5.76447 15.7708,-8.32938 23.61243,-12.59949 22.51643,-10.8071 43.70892,-24.66369 65.64726,-36.80694 9.29323,-5.00208 18.39502,-11.37687 23.70911,-21.5615 -0.2845,-2.23846 -0.56171,-4.47082 -0.82976,-6.69711 -6.24597,-7.02969 -13.9563,-12.05408 -21.9037,-16.31201 -9.27321,8.52194 -19.96335,15.00418 -28.50527,24.51767 -23.44101,19.40002 -49.35306,34.60904 -74.3168,51.39145 -33.605958,20.99984 -65.399232,45.48102 -99.643468,65.24194 -1.995056,0.79486 -4.039352,1.41327 -6.131063,1.8573 13.150236,-15.93082 28.463312,-29.48935 41.411127,-45.63916 18.684975,-21.76019 37.369949,-43.5325 56.864614,-64.40457 20.58886,-22.04202 40.59962,-44.73285 59.68032,-68.39694 -8.04771,-8.27259 -18.43878,-15.89429 -20.88427,-28.58098 -2.32517,-9.59458 -0.95743,-20.92883 5.3487,-28.33768 z"
             stroke-miterlimit="10"
             id="path26"
             inkscape:connector-curvature="0"
             style="fill:none;stroke:#000000;stroke-width:0.1;stroke-miterlimit:10" />
          <path
             d="m 162.4042,223.8087 c 7.7632,-7.30948 19.22841,-6.59981 28.25722,-2.94406 9.07079,4.28838 18.62663,7.60147 26.90775,13.70047 12.85849,9.16066 25.14613,19.43245 36.139,31.23308 12.4208,11.16397 23.95528,23.61746 33.83941,37.59167 7.29452,9.53983 14.91006,20.68552 14.3356,33.89734 -5.38886,19.25 -20.22412,33.32355 -35.65756,42.74375 -20.4685,11.5715 -43.2986,16.16195 -65.17493,23.26263 -9.46103,3.39621 -19.39255,4.63306 -29.23105,5.8111 -11.14059,0.66909 -22.34139,3.22387 -33.47467,1.03204 7.13406,-5.76447 15.7708,-8.32938 23.61243,-12.59949 22.51643,-10.8071 43.70892,-24.66369 65.64726,-36.80694 9.29323,-5.00208 18.39502,-11.37687 23.70911,-21.5615 -0.2845,-2.23846 -0.56171,-4.47082 -0.82976,-6.69711 -6.24597,-7.02969 -13.9563,-12.05408 -21.9037,-16.31201 -9.27321,8.52194 -19.96335,15.00418 -28.50527,24.51767 -23.44101,19.40002 -49.35306,34.60904 -74.3168,51.39145 -33.605958,20.99984 -65.399232,45.48102 -99.643468,65.24194 -1.995056,0.79486 -4.039352,1.41327 -6.131063,1.8573 13.150236,-15.93082 28.463312,-29.48935 41.411127,-45.63916 18.684975,-21.76019 37.369949,-43.5325 56.864614,-64.40457 20.58886,-22.04202 40.59962,-44.73285 59.68032,-68.39694 -8.04771,-8.27259 -18.43878,-15.89429 -20.88427,-28.58098 -2.32517,-9.59458 -0.95743,-20.92883 5.3487,-28.33768 z"
             id="path28"
             inkscape:connector-curvature="0" />
        </g>
      </g>
    </g>
  </g>
</svg>
