<?xml version="1.0" encoding="UTF-8" standalone="no"?>
<svg
   xmlns:dc="http://purl.org/dc/elements/1.1/"
   xmlns:cc="http://creativecommons.org/ns#"
   xmlns:rdf="http://www.w3.org/1999/02/22-rdf-syntax-ns#"
   xmlns:svg="http://www.w3.org/2000/svg"
   xmlns="http://www.w3.org/2000/svg"
   xmlns:sodipodi="http://sodipodi.sourceforge.net/DTD/sodipodi-0.dtd"
   xmlns:inkscape="http://www.inkscape.org/namespaces/inkscape"
   width="7.11111in"
   height="7.11111in"
   viewBox="0 0 512 512"
   id="svg2"
   version="1.1"
   inkscape:version="0.91 r13725"
   sodipodi:docname="science.svg">
  <metadata
     id="metadata9">
    <rdf:RDF>
      <cc:Work
         rdf:about="">
        <dc:format>image/svg+xml</dc:format>
        <dc:type
           rdf:resource="http://purl.org/dc/dcmitype/StillImage" />
      </cc:Work>
    </rdf:RDF>
  </metadata>
  <defs
     id="defs7" />
  <sodipodi:namedview
     pagecolor="#ffffff"
     bordercolor="#666666"
     borderopacity="1"
     objecttolerance="10"
     gridtolerance="10"
     guidetolerance="10"
     inkscape:pageopacity="0"
     inkscape:pageshadow="2"
     inkscape:window-width="699"
     inkscape:window-height="480"
     id="namedview5"
     showgrid="false"
     inkscape:zoom="0.36875005"
     inkscape:cx="319.99996"
     inkscape:cy="319.99996"
     inkscape:window-x="534"
     inkscape:window-y="43"
     inkscape:window-maximized="0"
     inkscape:current-layer="svg2" />
  <path
     id="Selection copy"
     fill="none"
     stroke="black"
     stroke-width="1"
     d="M 158.25,243.25            C 158.25,243.25 160.19,217.75 160.19,217.75              163.51,169.22 169.99,117.35 192.18,73.25              196.53,64.62 205.37,50.62 211.76,43.53              217.13,37.58 223.34,32.28 230.50,28.61              282.11,2.20 313.96,55.42 328.25,96.62              328.25,96.62 290.00,107.25 290.00,107.25              285.48,94.29 272.44,62.65 256.00,63.09              239.10,63.55 224.67,97.84 219.48,111.50              208.58,140.18 198.67,195.56 198.61,226.25              198.61,226.25 198.61,285.75 198.61,285.75              198.64,294.76 202.92,321.15 198.61,327.06              194.90,332.06 171.29,337.85 164.62,338.88              159.47,317.67 158.21,266.48 158.25,243.25 Z            M 79.71,238.58            C 71.91,238.58 61.25,219.77 57.54,213.50              40.24,184.32 32.46,145.17 62.66,120.82              75.49,110.47 103.72,104.36 120.00,105.51              120.00,105.51 158.25,109.38 158.25,109.38              158.25,109.38 149.75,147.62 149.75,147.62              130.33,147.45 74.26,135.84 82.88,173.12              83.96,177.83 85.89,181.69 88.21,185.88              88.21,185.88 107.25,215.62 107.25,215.62              102.12,220.76 86.43,238.58 79.71,238.58 Z            M 398.38,107.33            C 432.21,108.65 469.62,120.14 470.59,160.38              471.37,192.10 451.25,223.01 430.20,245.37              388.00,290.18 353.40,312.40 300.62,342.22              256.77,367.01 209.96,387.61 160.38,397.15              134.12,402.78 105.51,405.35 79.62,397.15              46.59,385.85 36.38,352.91 47.10,321.88              60.67,282.58 106.75,233.28 141.25,211.38              141.25,211.38 139.12,247.50 139.12,247.50              139.11,256.32 139.82,261.26 134.21,268.75              134.21,268.75 120.03,283.62 120.03,283.62              120.03,283.62 108.66,296.38 108.66,296.38              96.25,311.99 62.40,354.08 98.75,362.92              103.99,364.20 108.30,364.30 113.62,364.37              113.62,364.37 122.12,364.37 122.12,364.37              148.08,364.07 180.72,353.19 205.00,344.02              259.53,323.44 325.39,286.06 368.62,247.14              387.77,229.91 412.77,204.71 424.28,181.62              433.57,162.98 432.36,149.62 409.00,145.82              409.00,145.82 392.00,145.82 392.00,145.82              379.82,145.65 363.52,148.68 351.62,151.65              345.56,153.17 333.86,157.26 328.25,157.06              320.21,156.77 290.57,140.46 283.62,134.88              309.15,121.64 369.72,106.22 398.38,107.33 Z            M 347.38,195.80            C 347.38,195.80 375.00,215.62 375.00,215.62              369.82,222.85 354.62,241.46 345.25,241.25              339.43,241.13 323.29,228.65 317.62,224.83              296.05,210.27 277.24,198.16 253.88,186.40              248.18,183.53 227.53,175.09 225.42,170.12              223.01,164.42 230.46,139.41 232.62,132.75              271.41,148.26 312.72,172.44 347.38,195.80 Z            M 269.96,242.21            C 278.75,250.67 276.02,268.86 264.41,273.56              242.51,282.42 224.87,251.68 247.59,238.44              255.22,236.64 263.81,236.28 269.96,242.21 Z            M 429.55,343.12            C 426.78,325.48 409.18,307.29 407.83,300.62              406.14,292.28 425.97,271.46 434.31,273.71              440.26,275.32 450.11,290.94 453.49,296.38              470.56,323.90 479.93,360.95 455.06,387.36              429.22,414.79 386.94,406.27 353.75,404.75              353.75,404.75 364.38,364.38 364.38,364.38              382.93,369.05 434.74,376.24 429.55,343.12 Z            M 338.61,385.62            C 327.55,429.65 296.37,508.45 236.88,486.44              208.16,475.82 193.09,442.31 183.75,415.38              190.82,413.02 214.63,403.00 220.52,406.94              225.70,410.40 238.38,452.38 258.12,448.88              266.34,447.43 274.54,436.97 278.68,430.25              284.80,420.33 291.47,405.31 294.84,394.12              296.81,387.59 299.98,372.22 303.28,367.32              306.47,362.59 337.65,345.97 345.25,341.00              348.28,351.71 341.43,374.38 338.61,385.62 Z"
     style="fill:#ffffff;fill-opacity:1;stroke:none" />
</svg>
