<?xml version="1.0" encoding="UTF-8" standalone="no"?>
<!-- Created with Inkscape (http://www.inkscape.org/) -->

<svg
   xmlns:dc="http://purl.org/dc/elements/1.1/"
   xmlns:cc="http://creativecommons.org/ns#"
   xmlns:rdf="http://www.w3.org/1999/02/22-rdf-syntax-ns#"
   xmlns:svg="http://www.w3.org/2000/svg"
   xmlns="http://www.w3.org/2000/svg"
   xmlns:sodipodi="http://sodipodi.sourceforge.net/DTD/sodipodi-0.dtd"
   xmlns:inkscape="http://www.inkscape.org/namespaces/inkscape"
   id="svg4215"
   version="1.1"
   inkscape:version="0.91 r13725"
   width="601"
   height="599"
   viewBox="0 0 601 599"
   sodipodi:docname="shake.svg">
  <metadata
     id="metadata4221">
    <rdf:RDF>
      <cc:Work
         rdf:about="">
        <dc:format>image/svg+xml</dc:format>
        <dc:type
           rdf:resource="http://purl.org/dc/dcmitype/StillImage" />
        <dc:title></dc:title>
      </cc:Work>
    </rdf:RDF>
  </metadata>
  <defs
     id="defs4219" />
  <sodipodi:namedview
     pagecolor="#ffffff"
     bordercolor="#666666"
     borderopacity="1"
     objecttolerance="10"
     gridtolerance="10"
     guidetolerance="10"
     inkscape:pageopacity="0"
     inkscape:pageshadow="2"
     inkscape:window-width="699"
     inkscape:window-height="480"
     id="namedview4217"
     showgrid="false"
     inkscape:zoom="0.39398998"
     inkscape:cx="300.5"
     inkscape:cy="299.5"
     inkscape:window-x="294"
     inkscape:window-y="68"
     inkscape:window-maximized="0"
     inkscape:current-layer="svg4215" />
  <path
     style="opacity:1;fill:#000000;fill-opacity:1;stroke:#000000;stroke-width:7;stroke-linecap:round;stroke-linejoin:round;stroke-miterlimit:4;stroke-dasharray:none;stroke-opacity:1"
     d="m 286.8028,536.17121 -10.69721,-4.94336 -10.64588,4.46023 c -5.85524,2.45313 -11.28794,4.46023 -12.07267,4.46023 -0.78473,0 -3.10534,-1.05007 -5.15691,-2.33348 -2.05157,-1.28342 -6.88013,-3.9949 -10.73013,-6.02552 -5.20621,-2.74592 -7.831,-4.90271 -10.24285,-8.41651 -1.78357,-2.59847 -4.70857,-6.39514 -6.5,-8.43704 L 217.5,511.22321 206,513.64408 c -17.34027,3.6503 -16.10537,3.96309 -26.63271,-6.74577 -12.14756,-12.35702 -18.6048,-23.12556 -20.79539,-34.67982 -0.87901,-4.63641 -1.78309,-8.6147 -2.00905,-8.84066 -0.22596,-0.22596 -2.40786,1.42996 -4.84867,3.67982 -2.44081,2.24986 -5.0906,4.09066 -5.88842,4.09066 -4.91972,0 -19.17742,-6.32911 -28.21521,-12.52497 l -9.88945,-6.7797 -4.36055,-9.33133 C 100.03643,435.3989 99,431.99107 99,428.17468 l 0,-5.0063 -8.75,-4.36752 C 78.785356,413.07833 45.88069,402.22788 24.5,397.11953 -2.2919366,390.7183 0,391.6097 0,387.59071 c 0,-3.09891 0.24668493,-3.42272 2.25,-2.95345 45.240064,10.5973 77.701284,20.71464 93.255876,29.0655 4.946764,2.65579 9.232904,5.17183 9.524754,5.59119 0.29184,0.41937 13.06384,6.86377 28.38223,14.32089 18.2,8.85993 30.54917,14.24716 35.63598,15.54594 4.28141,1.09314 8.03014,1.98753 8.33051,1.98753 0.30037,0 2.31351,-2.5875 4.47363,-5.75 3.79279,-5.55277 4.26664,-5.87769 13.81422,-9.47258 l 9.88671,-3.72259 12.47305,2.10021 c 11.53086,1.94157 13.09713,2.48049 20.735,7.13453 4.54408,2.76888 8.80007,5.68271 9.45777,6.47519 1.49977,1.80711 6.78027,14.23402 6.78027,15.95639 0,1.69846 0.66486,1.63183 7.59345,-0.76107 4.88396,-1.68675 7.25083,-1.92387 13.67122,-1.36959 7.56992,0.65351 8.08078,0.87243 20.36771,8.72834 9.29527,5.94314 12.85834,8.79041 13.5758,10.8485 0.9589,2.75071 1.0162,2.768 4.02175,1.21377 2.29063,-1.18453 4.4283,-1.40436 8.59446,-0.88384 8.19174,1.02349 9.50467,1.78272 14.65302,8.47339 4.55148,5.91499 4.68609,6.28762 4.35954,12.06822 -0.18532,3.28063 -0.16999,5.96395 0.0341,5.96295 1.40072,-0.007 28.80123,-8.38326 29.47783,-9.01142 0.46686,-0.43344 -0.65814,-1.09893 -2.5,-1.47886 -3.83423,-0.79091 -22.97681,-10.26063 -24.08353,-11.91398 -1.2582,-1.87965 -0.84278,-3.48573 1.18189,-4.5693 1.5824,-0.84688 3.92336,-0.0104 12.49536,4.46481 11.04479,5.76621 15.63751,6.72666 19.84262,4.1496 1.21815,-0.74653 10.70745,-3.75131 21.08733,-6.67729 17.52893,-4.94122 19.00592,-5.53871 20.74627,-8.39267 1.03056,-1.68999 1.87543,-3.36103 1.87748,-3.71341 0.002,-0.35239 -3.25876,-0.84239 -7.24626,-1.0889 -6.5481,-0.4048 -8.247,-1.00031 -17.54816,-6.15111 -6.26773,-3.47094 -14.4475,-6.95851 -20.90014,-8.9111 -11.31698,-3.42455 -14.01276,-5.4257 -11.15661,-8.28185 1.48158,-1.48158 2.49874,-1.35978 12.64494,1.51419 7.44903,2.10997 14.39248,4.97732 21.37186,8.82564 l 10.33811,5.70027 10,0.32475 c 8.57406,0.27844 11.60894,-0.10132 21.28339,-2.6632 10.33235,-2.73611 11.78768,-3.42483 17.26648,-8.17119 6.6189,-5.73405 9.95013,-9.57684 9.95013,-11.47811 0,-0.71823 -1.93323,-1.54151 -4.53646,-1.93189 -2.49506,-0.37415 -13.64514,-4.39505 -24.77797,-8.93533 -20.06979,-8.18501 -20.3753,-8.35547 -36.01219,-20.09273 -12.55988,-9.42762 -15.70988,-12.26331 -15.47203,-13.92822 0.6707,-4.69482 4.41312,-3.09806 19.91666,8.49775 14.58485,10.90867 15.59107,11.4696 34.20445,19.06781 10.54765,4.30567 21.97182,8.32499 25.38706,8.93181 5.70862,1.01432 6.85681,0.88775 14.23408,-1.56911 4.41352,-1.46983 8.87672,-3.42536 9.91823,-4.3456 1.04151,-0.92025 5.99867,-6.98823 11.01591,-13.4844 7.10629,-9.20102 9.12358,-12.51593 9.12825,-15 0.003,-1.75383 0.295,-6.90128 0.64822,-11.43878 l 0.64222,-8.25 -6.07541,0 c -5.61038,0 -7.74581,-0.78071 -27.89822,-10.19948 -18.9215,-8.84345 -23.75062,-11.59728 -36.32284,-20.71322 -16.18011,-11.73197 -33.86246,-20.65625 -69.5,-35.07662 -16.34486,-6.61379 -21.57328,-9.31776 -37.41426,-19.34942 -22.80834,-14.44391 -22.88168,-14.45622 -33.3933,-5.60474 -3.95584,3.33109 -10.44942,7.94359 -14.43018,10.25 l -7.23773,4.19348 -0.0123,8.57542 -0.0123,8.57542 -13.75,23.3117 -13.75,23.3117 -11.5,9.6474 c -6.325,5.30607 -12.6958,10.56383 -14.15734,11.68391 l -2.65733,2.03651 -16.12233,-2.22321 c -8.86729,-1.22276 -16.72852,-2.72629 -17.46941,-3.34118 -0.74089,-0.61488 -2.13578,-4.87627 -3.09975,-9.46974 l -1.75266,-8.35176 6.24501,-21.37808 c 7.36534,-25.21317 9.93295,-40.96563 9.98098,-61.23378 L 202,268.93693 217.32617,249.29262 c 8.42939,-10.80437 21.43322,-27.74431 28.8974,-37.64431 7.61584,-10.10115 17.71292,-22.08829 23.00935,-27.31645 l 9.43811,-9.31645 13.82661,-0.97398 13.82661,-0.97398 15.08787,4.50246 c 29.31439,8.74788 45.2553,12.73525 60.19216,15.05611 l 15.10428,2.34687 12.65743,-2.75733 c 6.96158,-1.51653 12.89275,-2.99265 13.18037,-3.28027 0.28762,-0.28763 -1.91324,-2.74949 -4.89079,-5.47081 -2.97756,-2.72132 -6.20707,-6.48196 -7.17668,-8.35699 -0.96961,-1.87503 -5.63653,-7.12583 -10.37091,-11.66844 l -8.60798,-8.2593 -19.18972,-0.0157 c -19.17373,-0.0157 -37.26528,1.18101 -76.81028,5.08084 l -21,2.07096 -12.42039,5.53911 c -9.42883,4.20497 -17.97932,6.96127 -35.5,11.44364 -12.69379,3.24749 -24.64406,6.41075 -26.55617,7.02945 -7.41248,2.39849 -33.4864,17.04772 -51.87775,29.14672 -10.59559,6.97044 -20.18281,12.67354 -21.30493,12.67354 -1.469,0 -114.635377,-32.02061 -125.59076,-35.53611 C 0.5625,192.39158 0,190.84696 0,189.17969 c 0,-2.43796 0.42211617,-3.03138 2.1563047,-3.03138 1.1859677,0 29.4656303,7.875 62.8436953,17.5 33.378065,9.625 60.99257,17.5 61.36556,17.5 0.37299,0 8.20583,-5.04846 17.40631,-11.21881 9.20047,-6.17034 24.58682,-15.39898 34.19188,-20.50807 l 17.46375,-9.28927 25.53625,-6.56577 C 240.3885,168.57199 249.73091,165.60893 260,161.18555 l 13.5,-5.81508 22,-2.13735 c 41.85433,-4.06622 57.08832,-5.05947 77.79399,-5.07211 l 20.794,-0.0127 9.206,8.69798 c 5.06331,4.78388 10.78101,11.02822 12.70601,13.8763 1.925,2.84807 6.29806,7.74409 9.71791,10.88003 l 6.21792,5.7017 18.54765,-11.14608 C 465.65935,167.0384 472.52775,162.08608 488.26556,148.9162 520.96985,121.54827 549.44997,96.563397 582,66.685402 l 18.5,-16.981333 0.33563,4.472118 c 0.32706,4.357974 0.17392,4.621005 -6,10.305464 -19.36398,17.828821 -53.80642,48.571479 -70.78705,63.183139 -43.82983,37.71514 -48.35599,41.22831 -70.44186,54.67635 -11.56834,7.04395 -21.84665,12.80717 -22.84069,12.80717 -0.99405,0 -8.98408,1.54664 -17.75562,3.43698 l -15.94827,3.43698 -15.78107,-2.40123 c -8.67959,-1.32068 -20.01092,-3.55166 -25.18074,-4.95773 -14.99723,-4.07889 -37.07534,-10.44192 -43.68395,-12.58994 -5.43986,-1.76814 -7.39753,-1.88643 -18.5,-1.11782 l -12.41638,0.85956 -9.61232,9.9166 c -5.28677,5.45413 -17.39331,20.2666 -26.90342,32.9166 -9.5101,12.65 -21.49706,28.28257 -26.63768,34.73905 L 209,271.12642 l -0.0183,12.76094 c -0.0101,7.01852 -0.686,17.45882 -1.50205,23.20066 -1.07219,7.54403 -1.1771,10.62923 -0.37822,11.12297 0.60804,0.37578 3.33785,0.94763 6.06625,1.27077 2.7284,0.32314 6.82666,1.61781 9.10724,2.87704 3.89129,2.14859 4.26899,2.75977 6.13661,9.92992 l 1.99011,7.64041 -3.7123,10.85959 c -3.96618,11.60227 -5.471,13.56726 -13.33269,17.40968 -2.27885,1.1138 -7.35377,2.79567 -11.27761,3.7375 -6.10289,1.46486 -7.09411,2.00153 -6.85663,3.71241 0.2465,1.77585 1.80052,2.2166 13.86609,3.93267 l 13.58848,1.93268 12.19529,-10.33917 c 13.26448,-11.24563 11.14505,-8.36114 30.83717,-41.9686 L 273,316.76346 l -0.0222,-7.55757 c -0.0274,-9.31519 -1.34544,-11.33171 -10.15681,-15.53924 -6.59407,-3.14876 -8.0861,-5.68694 -4.62598,-7.86953 2.07986,-1.31194 13.04769,3.3804 16.55107,7.08102 l 2.24604,2.37248 6.48426,-3.6262 c 3.56634,-1.99441 10.17367,-6.74243 14.68296,-10.55116 5.91081,-4.99253 8.98587,-6.92495 11.01966,-6.92495 1.65374,0 2.821,-0.54005 2.821,-1.30518 0,-0.71785 -3.15,-5.94871 -7,-11.62413 l -7,-10.31895 0,-7.30444 c 0,-5.30707 0.4297,-7.73414 1.57143,-8.87587 1.95373,-1.95373 2.88525,-1.97189 4.76426,-0.0929 1.11816,1.11815 1.34423,2.95984 0.92748,7.55575 l -0.55106,6.07721 6.55428,9.69424 c 3.60486,5.33184 6.86417,11.26925 7.24292,13.19425 0.64158,3.26085 1.96306,4.29637 19.33966,15.15479 20.63044,12.89171 18.88324,12.00384 42.76083,21.7296 20.45194,8.33043 48.61594,21.48402 53.13283,24.81493 l 3.24263,2.39122 13.56795,-7.29527 13.56795,-7.29527 5.34962,-9.5 c 5.23721,-9.30037 5.37488,-9.75216 6.55165,-21.5 l 1.20203,-12 -4.15834,-11.5 c -3.03143,-8.38352 -6.09266,-14.43261 -11.29613,-22.32151 -6.41468,-9.72521 -8.2902,-11.73397 -18.51317,-19.82838 -9.03033,-7.15008 -11.31162,-9.45455 -11.0661,-11.17849 0.64354,-4.51864 4.22493,-3.13254 16.05752,6.21473 10.61317,8.38399 11.95717,9.85481 19.47218,21.30961 6.61953,10.08985 8.85041,14.57009 12.39676,24.89625 l 4.32458,12.59221 -1.64167,13.57655 -1.64167,13.57656 -5.93803,10.33124 -5.93802,10.33123 -12.10247,6.54462 c -6.65636,3.59953 -12.38615,6.8283 -12.73288,7.17503 -0.34673,0.34673 2.74347,3.12553 6.86712,6.17511 4.89602,3.62078 14.93257,9.02503 28.92517,15.57497 26.19994,12.26418 27.3,12.41749 39.57412,5.51501 7.6302,-4.29092 8.2626,-4.92003 12.72799,-12.66169 7.28275,-12.62614 7.67586,-11.73386 -11.04142,-25.06225 -13.16267,-9.37301 -16,-11.82502 -16,-13.82712 0,-5.08546 3.75731,-3.57562 19.90614,7.99905 8.4925,6.087 15.95793,11.06727 16.58984,11.06727 0.63191,0 4.60382,-3.15254 8.82647,-7.00565 C 555.0451,323.28954 567.95,313.5905 579.5,305.58923 l 21,-14.54777 0.32046,3.14861 c 0.17625,1.73174 0.11206,3.69169 -0.14265,4.35545 -0.25471,0.66376 -9.01388,7.14499 -19.46483,14.40273 -25.01107,17.36912 -33.86661,25.35616 -37.27479,33.61911 -1.409,3.41603 -4.56044,9.55093 -7.00321,13.63311 -3.93297,6.57249 -5.18514,7.82535 -10.93819,10.94427 l -6.49679,3.52212 -1,14.75667 -1,14.75668 -11.66006,14.79881 c -10.46623,13.28361 -12.1044,14.93155 -16,16.09543 -12.04364,3.59823 -14.37843,4.90483 -15.76064,8.82001 -1.59852,4.52786 -2.62428,5.74397 -11.45538,13.58116 -6.74384,5.98483 -7.11873,6.16492 -19.4919,9.36312 -6.9387,1.79351 -12.74536,3.60937 -12.9037,4.03524 -0.15834,0.42587 -1.73699,3.46367 -3.50811,6.75067 l -3.22021,5.97636 -20.5,5.84836 -20.5,5.84835 -3,5.05688 -3,5.05688 -17,4.93317 -17,4.93317 -6.5,6.32291 c -3.575,3.47761 -7.54324,6.85575 -8.8183,7.50698 -3.1456,1.60659 -28.43173,12.04484 -29.12683,12.02371 -0.30518,-0.009 -5.36861,-2.24138 -11.25207,-4.96023 z m 22.94295,-7.18305 c 5.63516,-2.29993 10.13516,-4.27616 10,-4.39162 -0.13516,-0.11546 -3.30231,0.20779 -7.0381,0.71834 l -6.79235,0.92828 -5.6673,-4.49588 c -4.65529,-3.69304 -5.94236,-4.28279 -7.20765,-3.3026 -0.84719,0.65629 -3.48118,2.77059 -5.85331,4.69845 l -4.31295,3.50518 6.81295,3.18211 c 3.74713,1.75015 7.48796,3.2175 8.31296,3.26076 0.825,0.0433 6.11059,-1.80309 11.74575,-4.10302 z m -44.29003,-0.82183 c 8.63464,-3.51332 13.48558,-6.6526 22.04428,-14.26591 0.55,-0.48925 -1.82705,0.33151 -5.28234,1.82391 l -6.28234,2.71346 -7.71766,-2.22441 C 259.77738,513.78069 251,508.80239 251,506.44797 c 0,-0.82051 0.69941,-3.89773 1.55425,-6.83826 1.2568,-4.32325 2.70301,-6.40997 7.55699,-10.90391 3.30152,-3.05662 6.55427,-5.55749 7.22834,-5.55749 0.67406,0 4.29596,2.54855 8.04865,5.66343 4.90097,4.06801 9.52692,6.74721 16.42112,9.51059 12.30399,4.93178 12.62043,4.66697 12.29197,-10.28645 L 304,483.42346 293.00237,476.41532 c -9.47674,-6.03896 -11.83761,-7.10317 -17.07148,-7.69532 -8.0441,-0.91009 -16.5878,1.88894 -24.55875,8.04576 -4.98398,3.84967 -26.25892,29.3105 -26.34656,31.53031 -0.0141,0.35627 2.45818,3.82211 5.49388,7.70187 4.53938,5.80153 6.98092,7.85843 13.75,11.58379 4.5268,2.49133 8.94362,4.53799 9.81516,4.54813 0.87155,0.0101 5.98854,-1.77344 11.3711,-3.96353 z m 48.27209,-10.01802 2.56424,0 -2.39603,-2.25196 c -1.31781,-1.23858 -3.14575,-3.37608 -4.06209,-4.75 l -1.66606,-2.49804 -2.83394,2.80688 -2.83393,2.80687 2.87457,2.50231 c 1.58102,1.37627 3.53032,2.25068 4.33179,1.94313 0.80147,-0.30756 2.61112,-0.55919 4.02145,-0.55919 z m 20.35882,-8.66896 c 1.44307,-8.77861 1.11697,-10.77678 -2.54045,-15.56677 -2.92335,-3.82859 -4.14388,-4.62681 -7.94665,-5.19707 -3.3047,-0.49557 -5.36638,-0.22609 -7.79617,1.01906 -4.15786,2.13069 -4.76908,3.0775 -4.78805,7.41694 -0.0195,4.46456 4.69546,11.24461 12.05326,17.33238 l 5.43143,4.49391 2.39624,-2.33371 c 1.49363,-1.45465 2.69537,-4.15345 3.19039,-7.16474 z M 282.27852,508.0008 288.5,504.85329 284,502.9425 c -2.475,-1.05094 -7.0495,-3.90956 -10.16555,-6.35249 -3.11605,-2.44294 -6.06527,-4.4417 -6.55383,-4.4417 -1.84075,0 -7.26645,6.67914 -7.86767,9.68527 -0.72171,3.60852 0.41387,4.48965 9.58705,7.43889 7.06815,2.27246 6.08741,2.36638 13.27852,-1.27167 z m -72.81588,-2.13281 9.96264,-2.21968 9.33533,-12 c 13.38508,-17.2057 14.29286,-19.80639 3.09207,-8.85846 -8.08399,7.90149 -10.05771,9.31572 -14.55012,10.42558 -4.63484,1.14505 -5.66316,1.08211 -9.5,-0.58144 -5.6153,-2.43463 -6.63325,-3.25722 -9.3432,-7.55006 -1.83611,-2.90859 -2.40398,-5.68203 -2.97855,-14.54716 -0.56477,-8.71395 -0.42998,-11.18576 0.6593,-12.08978 1.02545,-0.85105 4.6319,-0.78123 14.36455,0.27807 18.27716,1.9893 29.4578,4.68982 32.09799,7.7528 l 2.10264,2.43936 1.55106,-2.63445 c 1.43427,-2.4361 1.38539,-3.04576 -0.64924,-8.09702 -1.98019,-4.91613 -2.95959,-5.94414 -9.79095,-10.2769 -6.25212,-3.96539 -9.06535,-5.07388 -15.95341,-6.28608 -11.83338,-2.08251 -15.05509,-1.87024 -23.18227,1.52742 -6.50429,2.7192 -7.53874,3.55862 -10.98478,8.91385 -2.09237,3.25158 -4.40511,6.14252 -5.13942,6.4243 -0.73431,0.28178 -4.81117,-0.37815 -9.05969,-1.46652 -4.24852,-1.08837 -7.94921,-1.75422 -8.22376,-1.47967 -0.27455,0.27455 0.28689,5.13575 1.24766,10.80267 2.27962,13.44602 7.39878,22.82958 18.8821,34.61139 9.27896,9.52016 7.16473,9.12167 26.06005,4.91178 z m 7.81948,-20.11149 c 3.10991,-1.34512 17.56551,-15.16369 16.66291,-15.92861 -0.88622,-0.75104 -17.61842,-3.66621 -24.77042,-4.31563 l -7.32539,-0.66516 0.70494,7.4006 c 0.83614,8.77783 1.5504,10.38381 5.75966,12.95038 3.80057,2.31738 4.76302,2.3773 8.9683,0.55842 z M 154.9945,454.65494 c 0.70977,-0.85523 1.09075,-1.75471 0.84662,-1.99884 -0.24414,-0.24414 -11.44576,-5.84232 -24.8925,-12.44041 -18.4441,-9.05021 -24.52968,-11.62824 -24.77868,-10.49698 -0.18153,0.82476 1.37668,5.13657 3.46271,9.58181 3.6832,7.84877 4.05005,8.25525 12.69918,14.07091 4.89852,3.29376 11.89031,7.00253 15.53729,8.24171 l 6.63088,2.25305 4.60199,-3.82814 c 2.5311,-2.10548 5.18273,-4.52788 5.89251,-5.38311 z m 48.074,-90.09921 c 2.98732,-0.87593 7.32304,-2.77746 9.63493,-4.22563 3.80623,-2.38423 4.50093,-3.485 7.35177,-11.64896 2.99931,-8.58914 3.08756,-9.26928 1.86429,-14.36843 -1.38999,-5.79415 -2.7457,-6.84711 -10.16759,-7.89702 -3.65822,-0.51749 -3.79741,-0.41874 -5.80442,4.11844 -1.85773,4.19972 -10.90789,33.05207 -10.93589,34.86418 -0.0175,1.13212 2.06491,0.91434 8.05691,-0.84258 z"
     id="path4765"
     inkscape:connector-curvature="0" />
</svg>
