<?xml version="1.0" encoding="UTF-8" standalone="no"?>
<svg
   xmlns:dc="http://purl.org/dc/elements/1.1/"
   xmlns:cc="http://creativecommons.org/ns#"
   xmlns:rdf="http://www.w3.org/1999/02/22-rdf-syntax-ns#"
   xmlns:svg="http://www.w3.org/2000/svg"
   xmlns="http://www.w3.org/2000/svg"
   xmlns:sodipodi="http://sodipodi.sourceforge.net/DTD/sodipodi-0.dtd"
   xmlns:inkscape="http://www.inkscape.org/namespaces/inkscape"
   width="3.33333in"
   height="3.33333in"
   viewBox="0 0 240 240"
   id="svg8071"
   version="1.1"
   inkscape:version="0.91 r13725"
   sodipodi:docname="sound.svg">
  <metadata
     id="metadata8078">
    <rdf:RDF>
      <cc:Work
         rdf:about="">
        <dc:format>image/svg+xml</dc:format>
        <dc:type
           rdf:resource="http://purl.org/dc/dcmitype/StillImage" />
      </cc:Work>
    </rdf:RDF>
  </metadata>
  <defs
     id="defs8076" />
  <sodipodi:namedview
     pagecolor="#ffffff"
     bordercolor="#666666"
     borderopacity="1"
     objecttolerance="10"
     gridtolerance="10"
     guidetolerance="10"
     inkscape:pageopacity="0"
     inkscape:pageshadow="2"
     inkscape:window-width="699"
     inkscape:window-height="480"
     id="namedview8074"
     showgrid="false"
     inkscape:zoom="0.78666747"
     inkscape:cx="149.99985"
     inkscape:cy="149.99985"
     inkscape:window-x="258"
     inkscape:window-y="55"
     inkscape:window-maximized="0"
     inkscape:current-layer="svg8071" />
  <path
     id="Selection"
     fill="none"
     stroke="black"
     stroke-width="1"
     d="M 120.75,76.00            C 120.75,76.00 123.98,56.02 123.98,56.02              124.67,53.35 126.42,50.07 129.78,51.40              131.98,52.27 132.76,54.96 133.36,57.00              133.36,57.00 137.12,74.00 137.12,74.00              137.12,74.00 152.00,142.00 152.00,142.00              152.00,142.00 163.05,112.00 163.05,112.00              164.11,109.18 165.78,103.55 169.09,102.82              173.39,101.89 175.19,108.07 176.42,111.00              176.42,111.00 189.00,143.00 189.00,143.00              189.00,143.00 191.00,143.00 191.00,143.00              192.65,139.14 196.32,133.21 200.09,131.17              203.78,129.18 221.76,129.99 227.00,130.00              229.93,130.00 235.16,129.73 237.40,131.85              238.29,132.70 238.71,133.77 238.71,135.00              238.71,139.66 233.19,138.99 230.00,139.00              224.70,139.01 207.95,137.90 204.30,140.60              201.38,142.75 196.52,150.70 193.85,153.89              192.40,155.62 190.55,157.71 188.02,157.18              184.48,156.43 182.79,150.96 181.60,148.00              181.60,148.00 170.00,120.00 170.00,120.00              170.00,120.00 157.19,154.00 157.19,154.00              155.96,157.24 154.09,164.05 149.22,162.34              145.26,160.96 143.34,146.18 142.42,142.00              142.42,142.00 133.65,101.00 133.65,101.00              132.21,94.64 131.53,88.04 129.00,82.00              129.00,82.00 123.73,115.00 123.73,115.00              123.73,115.00 116.00,165.00 116.00,165.00              116.00,165.00 112.94,183.98 112.94,183.98              112.19,186.63 110.49,189.90 107.13,188.60              102.93,186.98 101.13,173.30 100.12,169.00              100.12,169.00 86.00,110.00 86.00,110.00              86.00,110.00 74.67,145.00 74.67,145.00              73.62,148.24 72.38,155.37 68.00,155.37              63.04,155.37 58.49,141.10 56.72,137.00              54.78,132.50 53.13,128.82 52.00,124.00              52.00,124.00 40.54,138.18 40.54,138.18              36.40,141.18 18.82,140.01 13.00,140.00              9.87,140.00 4.03,140.37 2.03,137.49              1.37,136.54 1.15,135.24 1.37,134.11              2.24,129.67 8.57,130.02 12.00,130.00              17.18,129.98 32.09,131.08 35.82,128.40              38.55,126.44 44.00,117.36 46.75,114.06              48.46,112.01 50.82,109.65 53.78,110.66              56.35,111.53 57.72,115.68 58.72,118.00              58.72,118.00 67.00,138.00 67.00,138.00              67.00,138.00 79.33,99.00 79.33,99.00              80.39,95.73 81.64,87.63 86.01,87.63              91.28,87.63 93.14,100.87 94.12,105.00              94.12,105.00 102.63,141.00 102.63,141.00              104.21,147.34 105.15,154.12 108.00,160.00              108.00,160.00 120.75,76.00 120.75,76.00 Z"
     style="stroke:none;fill:#ffffff;fill-opacity:1" />
</svg>
