<?xml version="1.0" encoding="UTF-8" standalone="no"?>
<svg
   xmlns:dc="http://purl.org/dc/elements/1.1/"
   xmlns:cc="http://creativecommons.org/ns#"
   xmlns:rdf="http://www.w3.org/1999/02/22-rdf-syntax-ns#"
   xmlns:svg="http://www.w3.org/2000/svg"
   xmlns="http://www.w3.org/2000/svg"
   xmlns:sodipodi="http://sodipodi.sourceforge.net/DTD/sodipodi-0.dtd"
   xmlns:inkscape="http://www.inkscape.org/namespaces/inkscape"
   width="11.1111in"
   height="11.1111in"
   viewBox="0 0 800 800"
   id="svg2"
   version="1.1"
   inkscape:version="0.91 r13725"
   sodipodi:docname="thumbup.svg">
  <metadata
     id="metadata9">
    <rdf:RDF>
      <cc:Work
         rdf:about="">
        <dc:format>image/svg+xml</dc:format>
        <dc:type
           rdf:resource="http://purl.org/dc/dcmitype/StillImage" />
      </cc:Work>
    </rdf:RDF>
  </metadata>
  <defs
     id="defs7" />
  <sodipodi:namedview
     pagecolor="#ffffff"
     bordercolor="#666666"
     borderopacity="1"
     objecttolerance="10"
     gridtolerance="10"
     guidetolerance="10"
     inkscape:pageopacity="0"
     inkscape:pageshadow="2"
     inkscape:window-width="699"
     inkscape:window-height="480"
     id="namedview5"
     showgrid="false"
     inkscape:zoom="0.23600023"
     inkscape:cx="499.99951"
     inkscape:cy="499.99951"
     inkscape:window-x="0"
     inkscape:window-y="0"
     inkscape:window-maximized="0"
     inkscape:current-layer="svg2" />
  <path
     id="Selection"
     fill="none"
     stroke="black"
     stroke-width="1"
     d="M 274.00,223.01            C 281.95,215.25 292.05,207.28 301.00,200.63              335.33,175.14 381.33,158.03 424.00,154.91              424.00,154.91 436.00,154.00 436.00,154.00              436.00,154.00 455.00,154.00 455.00,154.00              482.94,154.04 519.58,163.23 545.00,174.70              575.67,188.52 604.17,207.94 626.83,233.00              656.39,265.68 675.93,303.07 685.65,346.00              688.32,357.81 690.98,373.97 691.00,386.00              691.00,386.00 691.97,400.00 691.97,400.00              691.97,400.00 691.00,417.00 691.00,417.00              690.87,427.57 687.75,444.48 685.42,455.00              678.04,488.44 662.05,523.00 640.99,550.00              622.78,573.34 603.03,591.82 578.00,607.68              544.74,628.75 506.35,642.21 467.00,645.09              467.00,645.09 455.00,646.00 455.00,646.00              455.00,646.00 434.00,646.00 434.00,646.00              410.51,645.72 378.99,637.88 357.00,629.58              357.00,629.58 335.00,620.00 335.00,620.00              335.00,620.00 339.77,605.00 339.77,605.00              343.43,589.22 342.00,564.85 342.00,548.00              342.00,548.00 342.00,515.00 342.00,515.00              342.00,515.00 342.00,499.00 342.00,499.00              341.97,479.56 334.35,458.78 321.70,444.00              316.38,437.78 310.65,432.73 304.00,428.00              304.00,428.00 310.35,407.00 310.35,407.00              314.80,388.18 316.22,373.28 316.00,354.00              316.00,354.00 315.08,344.00 315.08,344.00              311.98,305.25 294.73,261.02 263.00,237.00              265.39,230.90 269.39,227.52 274.00,223.01 Z            M 138.88,401.00            C 136.51,391.00 134.12,373.20 134.00,363.00              133.80,345.74 137.90,320.06 144.20,304.00              149.74,289.90 156.30,276.96 167.01,266.00              173.22,259.65 178.04,255.35 186.00,251.26              217.60,235.02 247.60,250.58 266.25,278.00              280.05,298.27 288.96,329.49 289.00,354.00              289.00,354.00 289.00,371.00 289.00,371.00              288.90,379.55 286.12,395.60 283.85,404.00              283.17,406.53 281.64,413.58 279.49,414.77              277.71,415.97 274.90,415.06 273.00,414.77              266.57,413.25 265.62,413.01 259.00,413.00              259.00,413.00 165.00,413.00 165.00,413.00              154.46,413.02 152.28,414.69 143.00,416.00              143.00,416.00 138.88,401.00 138.88,401.00 Z            M 384.00,403.25            C 384.00,403.25 418.00,386.25 418.00,386.25              424.33,383.08 434.00,379.93 432.62,371.00              431.47,363.62 421.99,360.79 416.00,358.14              416.00,358.14 381.00,342.58 381.00,342.58              374.77,339.86 368.74,336.26 362.00,335.00              362.00,335.00 355.00,354.00 355.00,354.00              355.00,354.00 398.00,372.00 398.00,372.00              398.00,372.00 398.00,374.00 398.00,374.00              398.00,374.00 354.00,395.00 354.00,395.00              354.00,395.00 363.00,413.00 363.00,413.00              368.98,411.29 378.10,406.20 384.00,403.25 Z            M 500.38,359.00            C 488.68,382.31 507.71,410.48 534.00,406.70              538.43,406.06 543.13,404.35 547.00,402.12              564.67,391.95 567.73,367.16 554.53,352.09              547.54,344.10 536.43,340.29 526.00,341.30              514.56,343.46 505.82,348.15 500.38,359.00 Z            M 304.30,615.00            C 301.31,619.62 297.09,624.78 292.96,628.41              268.24,650.19 244.25,646.00 214.00,646.00              214.00,646.00 173.00,646.00 173.00,646.00              164.10,645.89 154.94,643.16 147.00,639.24              120.80,626.34 108.04,602.65 108.00,574.00              108.00,574.00 108.00,529.00 108.00,529.00              108.00,501.74 107.48,480.37 128.42,459.42              150.73,437.12 174.22,439.00 203.00,439.00              239.87,439.00 278.16,433.25 302.56,468.00              307.26,474.69 310.43,482.29 313.00,490.00              313.00,490.00 225.00,490.00 225.00,490.00              225.00,490.00 206.00,490.00 206.00,490.00              206.00,490.00 199.60,491.60 199.60,491.60              199.60,491.60 198.00,500.00 198.00,500.00              198.00,500.00 198.00,504.00 198.00,504.00              198.00,504.00 315.00,504.00 315.00,504.00              315.00,504.00 315.00,536.00 315.00,536.00              315.00,536.00 198.00,536.00 198.00,536.00              198.00,548.02 196.94,549.98 208.00,550.00              208.00,550.00 315.00,550.00 315.00,550.00              315.00,550.00 315.00,581.00 315.00,581.00              315.00,581.00 226.00,581.00 226.00,581.00              226.00,581.00 206.00,581.00 206.00,581.00              206.00,581.00 199.60,582.60 199.60,582.60              199.60,582.60 198.00,591.00 198.00,591.00              198.00,591.00 198.00,595.00 198.00,595.00              198.00,595.00 313.00,595.00 313.00,595.00              310.75,602.56 308.64,608.30 304.30,615.00 Z            M 367.87,489.18            C 367.26,492.48 372.93,498.59 375.00,501.00              383.57,510.98 391.09,517.84 402.00,525.25              432.26,545.80 471.45,548.80 504.00,531.68              517.68,524.49 529.84,514.51 540.05,503.00              542.30,500.47 549.67,492.59 549.10,489.21              548.55,485.90 536.21,479.54 533.00,478.00              516.73,500.89 490.39,521.95 461.00,522.00              461.00,522.00 455.00,522.00 455.00,522.00              436.96,521.97 419.82,513.02 406.00,502.00              397.88,495.52 389.57,486.78 384.00,478.00              380.65,479.50 368.52,485.72 367.87,489.18 Z"
     style="fill:#ffffff;fill-opacity:1;stroke:none" />
</svg>
