<?xml version="1.0" encoding="UTF-8" standalone="no"?>
<!-- Generator: Adobe Illustrator 19.1.0, SVG Export Plug-In  -->

<svg
   xmlns:dc="http://purl.org/dc/elements/1.1/"
   xmlns:cc="http://creativecommons.org/ns#"
   xmlns:rdf="http://www.w3.org/1999/02/22-rdf-syntax-ns#"
   xmlns:svg="http://www.w3.org/2000/svg"
   xmlns="http://www.w3.org/2000/svg"
   xmlns:sodipodi="http://sodipodi.sourceforge.net/DTD/sodipodi-0.dtd"
   xmlns:inkscape="http://www.inkscape.org/namespaces/inkscape"
   version="1.1"
   x="0px"
   y="0px"
   width="512"
   height="512"
   viewBox="0 0 512.00001 511.99999"
   xml:space="preserve"
   id="svg2"
   inkscape:version="0.91 r13725"
   sodipodi:docname="toilet.svg"><metadata
     id="metadata12"><rdf:RDF><cc:Work
         rdf:about=""><dc:format>image/svg+xml</dc:format><dc:type
           rdf:resource="http://purl.org/dc/dcmitype/StillImage" /><dc:title></dc:title></cc:Work></rdf:RDF></metadata><sodipodi:namedview
     pagecolor="#ffffff"
     bordercolor="#666666"
     borderopacity="1"
     objecttolerance="10"
     gridtolerance="10"
     guidetolerance="10"
     inkscape:pageopacity="0"
     inkscape:pageshadow="2"
     inkscape:window-width="945"
     inkscape:window-height="490"
     id="namedview10"
     showgrid="false"
     inkscape:zoom="0.50899804"
     inkscape:cx="127.8165"
     inkscape:cy="231.828"
     inkscape:window-x="228"
     inkscape:window-y="105"
     inkscape:window-maximized="0"
     inkscape:current-layer="svg2" /><defs
     id="defs4" /><g
     id="g6"
     transform="matrix(1.1042665,0,0,1.1042665,119.84319,1.2114062e-4)"><path
       d="m 175.878,191.615 c 0,4.308 0,7.911 0,11.222 12.174,3.084 24.188,5.643 35.876,9.258 7.888,2.439 15.645,5.767 22.885,9.745 19.283,10.594 23.742,20.823 19.547,42.397 -8.244,42.395 -33.239,71.71 -71.226,90.659 -4.348,2.169 -5.552,4.071 -4.559,8.985 4.38,21.672 7.972,43.503 12.386,65.166 1.71,8.392 -1.314,14.249 -7.339,19.226 -7.484,6.182 -16.351,9.529 -25.659,11.696 -24.586,5.723 -48.879,5.127 -72.573,-4.209 -4.13,-1.627 -8.08,-3.966 -11.715,-6.539 -7.426,-5.257 -10.433,-12.044 -8.428,-21.578 4.619,-21.96 8.384,-44.098 12.682,-66.127 0.688,-3.526 -0.972,-4.618 -3.645,-5.873 C 44.809,341.884 22.984,320.591 9.505,291.013 4.066,279.077 1.397,266.447 0.151,253.428 c -0.979,-10.23 2.867,-18.178 10.573,-24.551 11.406,-9.435 24.875,-14.708 38.869,-18.64 9.746,-2.738 19.72,-4.665 30.063,-7.063 0,-3.336 0,-7.073 0,-11.558 -6.855,0 -13.784,0.013 -20.713,-0.003 -18.004,-0.041 -27.16,-7.719 -29.284,-25.72 C 27.105,144.245 25.205,122.519 23.034,100.826 20.846,78.967 18.58,57.115 16.562,35.24 16.123,30.48 15.958,25.524 16.772,20.851 18.864,8.84 28.707,0.193 40.858,0.154 98.84,-0.033 156.823,-0.055 214.805,0.12 c 13.899,0.042 25.051,11.486 24.666,25.602 -0.353,12.951 -1.926,25.877 -3.171,38.794 -2.122,22.031 -4.406,44.046 -6.626,66.068 -1.336,13.248 -2.451,26.524 -4.088,39.735 -1.494,12.05 -12.522,21.12 -25.281,21.278 -7.974,0.098 -15.949,0.018 -24.427,0.018 z m -47.904,80.471 c 0.055,0.455 0.11,0.91 0.166,1.364 18.802,-2.149 37.66,-3.912 56.385,-6.6 10.507,-1.508 20.878,-4.406 29.836,-10.604 7.648,-5.292 7.914,-11.733 0.097,-16.602 -5.556,-3.461 -11.796,-6.351 -18.121,-7.964 -42.475,-10.832 -85.255,-10.634 -128.106,-2.339 -9.81,1.899 -19.501,4.527 -27.727,10.6 -6.546,4.833 -6.839,11.068 -0.063,15.426 5.641,3.629 11.996,6.565 18.43,8.469 22.522,6.664 45.743,8.222 69.103,8.25 z M 81.337,64.016 c 9.176,-1.404 17.873,-2.814 26.595,-4.039 5.405,-0.759 3.921,-4.802 4.117,-8.075 0.174,-2.898 -1.166,-4.284 -4.138,-4.276 -15.32,0.046 -30.648,-0.266 -45.956,0.156 -9.398,0.259 -16.638,10.135 -15.044,19.35 1.713,9.903 11.063,16.326 20.531,14.088 8.846,-2.091 12.691,-8.377 13.895,-17.204 z"
       id="path8"
       inkscape:connector-curvature="0" /></g></svg>